<svg xmlns="http://www.w3.org/2000/svg" viewBox="0 0 1919.08 1083.24"><defs><style>.cls-1{isolation:isolate;}.cls-10,.cls-11,.cls-12,.cls-13,.cls-14,.cls-15,.cls-16,.cls-17,.cls-18,.cls-19,.cls-2,.cls-20,.cls-21,.cls-22,.cls-23,.cls-24,.cls-25,.cls-26,.cls-27,.cls-28,.cls-29,.cls-3,.cls-30,.cls-31,.cls-32,.cls-33,.cls-34,.cls-35,.cls-36,.cls-37,.cls-38,.cls-39,.cls-4,.cls-40,.cls-41,.cls-42,.cls-43,.cls-44,.cls-45,.cls-46,.cls-47,.cls-48,.cls-49,.cls-5,.cls-50,.cls-51,.cls-52,.cls-53,.cls-54,.cls-55,.cls-56,.cls-57,.cls-58,.cls-59,.cls-6,.cls-60,.cls-61,.cls-62,.cls-63,.cls-64,.cls-65,.cls-66,.cls-67,.cls-68,.cls-69,.cls-7,.cls-70,.cls-71,.cls-72,.cls-8,.cls-9{fill:#00a873;mix-blend-mode:color-dodge;}.cls-2{opacity:0.38;}.cls-3{opacity:0.31;}.cls-4{opacity:0.28;}.cls-5{opacity:0.24;}.cls-6{opacity:0.33;}.cls-7{opacity:0.56;}.cls-8{opacity:0.29;}.cls-9{opacity:0.23;}.cls-10{opacity:0.59;}.cls-11{opacity:0.06;}.cls-12{opacity:0.54;}.cls-13{opacity:0.69;}.cls-14{opacity:0.41;}.cls-15{opacity:0.5;}.cls-16{opacity:0.26;}.cls-17{opacity:0.34;}.cls-18{opacity:0.46;}.cls-19{opacity:0.2;}.cls-20{opacity:0.61;}.cls-21{opacity:0.07;}.cls-22{opacity:0.02;}.cls-23{opacity:0.1;}.cls-24{opacity:0.19;}.cls-25{opacity:0.43;}.cls-26{opacity:0.35;}.cls-27{opacity:0.52;}.cls-28{opacity:0.36;}.cls-29{opacity:0.68;}.cls-30{opacity:0.08;}.cls-31{opacity:0.03;}.cls-32{opacity:0.13;}.cls-33{opacity:0.15;}.cls-34{opacity:0.05;}.cls-35{opacity:0;}.cls-36{opacity:0.37;}.cls-37{opacity:0.39;}.cls-38{opacity:0.53;}.cls-39{opacity:0.49;}.cls-40{opacity:0.66;}.cls-41{opacity:0.11;}.cls-42{opacity:0.22;}.cls-43{opacity:0.65;}.cls-44{opacity:0.55;}.cls-45{opacity:0.14;}.cls-46{opacity:0.62;}.cls-47{opacity:0.27;}.cls-48{opacity:0.21;}.cls-49{opacity:0.51;}.cls-50{opacity:0.12;}.cls-51{opacity:0.58;}.cls-52{opacity:0.47;}.cls-53{opacity:0.32;}.cls-54{opacity:0.44;}.cls-55{opacity:0.04;}.cls-56{opacity:0.6;}.cls-57{opacity:0.7;}.cls-58{opacity:0.67;}.cls-59{opacity:0.45;}.cls-60{opacity:0.42;}.cls-61{opacity:0.17;}.cls-62{opacity:0.4;}.cls-63{opacity:0.16;}.cls-64{opacity:0.63;}.cls-65{opacity:0.64;}.cls-66{opacity:0.57;}.cls-67{opacity:0.3;}.cls-68{opacity:0.48;}.cls-69{opacity:0.01;}.cls-70{opacity:0.25;}.cls-71{opacity:0.09;}.cls-72{opacity:0.18;}</style></defs><g class="cls-1"><g id="Слой_1" data-name="Слой 1"><polygon class="cls-2" points="450.55 1083.24 364.67 1042.4 502.15 925.53 510.13 1083.24 511.79 1083.24 503.73 923.76 503.64 922.08 362.62 1041.97 361.64 1042.8 446.68 1083.24 450.55 1083.24"/><path class="cls-3" d="M499.46,924.58l.53,1.31.91,1.08L362.55,1044.58l-1.95-64.47ZM364.1,1041.08,498.67,926.69,362.3,981.22Z" transform="translate(-0.17 -0.23)"/><path class="cls-4" d="M498.2,922a3.74,3.74,0,1,1-2.08,4.86A3.74,3.74,0,0,1,498.2,922Z" transform="translate(-0.17 -0.23)"/><path class="cls-5" d="M502.64,929.31a3.75,3.75,0,1,0-5.28-.43A3.74,3.74,0,0,0,502.64,929.31Z" transform="translate(-0.17 -0.23)"/><polygon class="cls-6" points="141.17 791.24 104.68 934.79 50.32 915.09 50.89 913.53 103.52 932.61 137.61 798.51 50.1 910.8 48.8 909.78 141.17 791.24"/><path class="cls-7" d="M52.69,912.67a3.74,3.74,0,1,1-.65-5.25A3.74,3.74,0,0,1,52.69,912.67Z" transform="translate(-0.17 -0.23)"/><path class="cls-8" d="M52.23,911.08a3.74,3.74,0,1,0,2.24,4.8A3.75,3.75,0,0,0,52.23,911.08Z" transform="translate(-0.17 -0.23)"/><polygon class="cls-9" points="140.71 794.53 140.04 795.39 50.1 910.8 48.8 909.78 138.06 795.23 60.16 762.88 48.37 909.62 46.72 909.49 58.69 760.47 59.74 760.91 140.71 794.53"/><path class="cls-10" d="M51.46,909.89a3.74,3.74,0,1,1-3.43-4A3.74,3.74,0,0,1,51.46,909.89Z" transform="translate(-0.17 -0.23)"/><path class="cls-11" d="M46.78,908.07a3.74,3.74,0,1,0,5.26-.65A3.75,3.75,0,0,0,46.78,908.07Z" transform="translate(-0.17 -0.23)"/><polygon class="cls-12" points="120.96 766.24 141.63 796.71 54.88 760.68 114.75 762.81 114.69 764.46 63.98 762.66 137.14 793.05 119.59 767.17 120.96 766.24"/><path class="cls-13" d="M114.84,760.11a3.75,3.75,0,1,1-3.87,3.61A3.75,3.75,0,0,1,114.84,760.11Z" transform="translate(-0.17 -0.23)"/><path class="cls-14" d="M123.65,765a3.74,3.74,0,1,0-1,5.2A3.74,3.74,0,0,0,123.65,765Z" transform="translate(-0.17 -0.23)"/><polygon class="cls-15" points="371.62 1083.24 364.27 1044.05 446.68 1083.24 450.55 1083.24 362.04 1041.15 369.93 1083.24 371.62 1083.24"/><polygon class="cls-16" points="360.88 1083.24 363.5 1048.96 369.93 1083.24 371.62 1083.24 362.81 1036.25 359.22 1083.24 360.88 1083.24"/><polygon class="cls-17" points="363.16 980.71 172.36 1041.32 171.86 1039.74 359.4 980.16 190.2 865.2 169.96 1038.17 168.31 1037.97 188.87 862.29 363.16 980.71"/><path class="cls-18" d="M173.05,1038.55a3.75,3.75,0,1,1-3.28-4.15A3.74,3.74,0,0,1,173.05,1038.55Z" transform="translate(-0.17 -0.23)"/><path class="cls-19" d="M171.33,1037.13a3.75,3.75,0,1,0,4.7,2.44A3.74,3.74,0,0,0,171.33,1037.13Z" transform="translate(-0.17 -0.23)"/><polygon class="cls-20" points="353.98 808.68 362.19 982.05 360.81 981.12 187.72 863.51 349.35 805.58 349.91 807.15 191.35 863.98 360.37 978.82 352.32 808.76 353.98 808.68"/><path class="cls-5" d="M348.36,803.13a3.75,3.75,0,1,1-2.26,4.79A3.75,3.75,0,0,1,348.36,803.13Z" transform="translate(-0.17 -0.23)"/><path class="cls-21" d="M357.07,809a3.74,3.74,0,1,0-3.56,3.92A3.74,3.74,0,0,0,357.07,809Z" transform="translate(-0.17 -0.23)"/><polygon class="cls-22" points="190.59 861.8 190.36 863.84 169.26 1044.12 105.22 937.17 106.64 936.32 168.18 1039.09 188.47 865.69 107.38 932.09 106.33 930.8 190.59 861.8"/><path class="cls-23" d="M109.54,934.45a3.74,3.74,0,1,1,.53-5.27A3.74,3.74,0,0,1,109.54,934.45Z" transform="translate(-0.17 -0.23)"/><path class="cls-24" d="M109.41,935.21a3.75,3.75,0,1,0-1.29,5.14A3.74,3.74,0,0,0,109.41,935.21Z" transform="translate(-0.17 -0.23)"/><polygon class="cls-25" points="139.02 792.96 190.66 863.89 107.38 932.09 106.33 930.8 188.4 863.6 139.76 796.79 105.78 930.45 104.17 930.05 139.02 792.96"/><path class="cls-26" d="M108.82,931.22a3.74,3.74,0,1,1-2.7-4.55A3.75,3.75,0,0,1,108.82,931.22Z" transform="translate(-0.17 -0.23)"/><path class="cls-27" d="M104.8,928.66a3.74,3.74,0,1,0,5.27.52A3.75,3.75,0,0,0,104.8,928.66Z" transform="translate(-0.17 -0.23)"/><polygon class="cls-28" points="0 463.93 6.66 458.92 0 465.34 0 467.65 14.99 453.18 14.26 452.42 13.63 451.59 0 461.85 0 463.93"/><path class="cls-29" d="M11.85,450.25a3.74,3.74,0,1,1-.09,5.29A3.75,3.75,0,0,1,11.85,450.25Z" transform="translate(-0.17 -0.23)"/><path class="cls-30" d="M16.41,455.59a3.75,3.75,0,1,0-5.25-.74A3.76,3.76,0,0,0,16.41,455.59Z" transform="translate(-0.17 -0.23)"/><polygon class="cls-31" points="293.11 1083.24 358.58 1046.15 322.77 1083.24 325.07 1083.24 367.73 1039.05 289.75 1083.24 293.11 1083.24"/><polygon class="cls-11" points="289.42 1083.24 360.52 982.93 362.31 1042.13 289.75 1083.24 293.11 1083.24 363.56 1043.32 364 1043.08 362.03 977.93 287.75 1082.74 288.46 1083.24 289.42 1083.24"/><polygon class="cls-32" points="281.12 1083.24 171.25 1041.67 359.17 981.98 287.75 1082.74 288.46 1083.24 289.42 1083.24 363.39 978.89 166.2 1041.54 276.43 1083.24 281.12 1083.24"/><polygon class="cls-33" points="3.11 431.77 14.26 447.68 15.62 446.73 5.13 431.77 3.11 431.77"/><polygon class="cls-33" points="0 461.85 0 463.93 14.63 452.92 13.63 451.59 0 461.85"/><path class="cls-30" d="M11.9,449.6a3.75,3.75,0,1,1-.74,5.25A3.76,3.76,0,0,1,11.9,449.6Z" transform="translate(-0.17 -0.23)"/><path class="cls-34" d="M11.93,449.43a3.75,3.75,0,1,0,.92-5.22A3.75,3.75,0,0,0,11.93,449.43Z" transform="translate(-0.17 -0.23)"/><polygon class="cls-25" points="343.46 1083.24 362.01 1046.69 359.22 1083.24 360.88 1083.24 364.3 1038.51 341.6 1083.24 343.46 1083.24"/><polygon class="cls-11" points="325.07 1083.24 359.91 1047.16 341.6 1083.24 343.46 1083.24 366.4 1038.05 322.77 1083.24 325.07 1083.24"/><path class="cls-35" d="M183.21,625.25l.08,1.52.64,1.37L98.4,667.83,79.67,630.9Zm-84.05,40.4L182.54,627,82.3,632.42Z" transform="translate(-0.17 -0.23)"/><path class="cls-12" d="M181.83,624.07a3.74,3.74,0,1,1-1.82,5A3.75,3.75,0,0,1,181.83,624.07Z" transform="translate(-0.17 -0.23)"/><path class="cls-36" d="M183.27,629.83a3.75,3.75,0,1,0-3.94-3.53A3.75,3.75,0,0,0,183.27,629.83Z" transform="translate(-0.17 -0.23)"/><polygon class="cls-35" points="436.88 815.17 504.12 924.21 359.71 981.96 432.13 815.51 433.65 816.17 362.85 978.91 501.67 923.4 435.48 816.04 436.88 815.17"/><path class="cls-33" d="M433.26,818a3.75,3.75,0,1,1,5.15,1.22A3.75,3.75,0,0,1,433.26,818Z" transform="translate(-0.17 -0.23)"/><path class="cls-4" d="M436.42,817.74a3.74,3.74,0,1,0-4.92,1.94A3.74,3.74,0,0,0,436.42,817.74Z" transform="translate(-0.17 -0.23)"/><polygon class="cls-37" points="477.3 833.9 477.4 834.24 505.44 929.52 435.48 816.04 436.88 815.17 500.35 918.09 475.9 835.05 437.09 814.95 437.85 813.48 477.3 833.9"/><path class="cls-38" d="M433.26,818a3.75,3.75,0,1,1,5.15,1.22A3.75,3.75,0,0,1,433.26,818Z" transform="translate(-0.17 -0.23)"/><path class="cls-33" d="M439.53,811.21a3.74,3.74,0,1,0,1.6,5A3.74,3.74,0,0,0,439.53,811.21Z" transform="translate(-0.17 -0.23)"/><polygon class="cls-39" points="430.85 811.43 430.69 813.09 353.85 806.08 361.94 976.84 432.13 815.51 433.65 816.17 360.62 984.03 352.1 804.25 430.85 811.43"/><path class="cls-36" d="M429.56,814.75a3.74,3.74,0,1,1,1.94,4.93A3.74,3.74,0,0,1,429.56,814.75Z" transform="translate(-0.17 -0.23)"/><path class="cls-4" d="M430.41,816.2a3.75,3.75,0,1,0-3.39-4.07A3.74,3.74,0,0,0,430.41,816.2Z" transform="translate(-0.17 -0.23)"/><path class="cls-40" d="M170.62,806.43l.12.36,18.58,53.55-1.28.44-1.1.81-49.73-68.3ZM187.09,859,169.3,807.7l-27.39-10.78Z" transform="translate(-0.17 -0.23)"/><path class="cls-41" d="M190.53,858.74a3.75,3.75,0,1,1-5.24-.82A3.75,3.75,0,0,1,190.53,858.74Z" transform="translate(-0.17 -0.23)"/><path class="cls-40" d="M184.94,861.66a3.74,3.74,0,1,0,2.31-4.76A3.73,3.73,0,0,0,184.94,861.66Z" transform="translate(-0.17 -0.23)"/><polygon class="cls-42" points="350.14 802.87 349.42 804.36 314.7 787.53 196.72 860.28 349.35 805.58 349.91 807.15 182.34 867.2 314.61 785.64 350.14 802.87"/><path class="cls-7" d="M348.36,803.13a3.75,3.75,0,1,1-2.26,4.79A3.75,3.75,0,0,1,348.36,803.13Z" transform="translate(-0.17 -0.23)"/><path class="cls-37" d="M348.15,807.13a3.75,3.75,0,1,0-1.74-5A3.74,3.74,0,0,0,348.15,807.13Z" transform="translate(-0.17 -0.23)"/><polygon class="cls-28" points="317 786.11 315.09 787.29 189.97 864.45 188.99 863.11 281.66 783.59 282.75 784.85 198.1 857.49 312.31 787.06 288.29 783.27 288.55 781.64 317 786.11"/><path class="cls-32" d="M279.8,781.73a3.74,3.74,0,1,1-.41,5.28A3.74,3.74,0,0,1,279.8,781.73Z" transform="translate(-0.17 -0.23)"/><path class="cls-3" d="M289.36,779a3.75,3.75,0,1,0,3.11,4.29A3.74,3.74,0,0,0,289.36,779Z" transform="translate(-0.17 -0.23)"/><polygon class="cls-38" points="0 743.89 55.78 761.4 56.28 759.82 0 742.15 0 743.89"/><polygon class="cls-38" points="7.04 662.61 0 666.03 0 667.87 6.33 664.8 57.01 758.93 58.47 758.15 7.04 662.61"/><path class="cls-38" d="M61.12,756.83a3.74,3.74,0,1,1-5.07-1.52A3.74,3.74,0,0,1,61.12,756.83Z" transform="translate(-0.17 -0.23)"/><path class="cls-33" d="M54.9,764.35a3.74,3.74,0,1,0-2.45-4.69A3.74,3.74,0,0,0,54.9,764.35Z" transform="translate(-0.17 -0.23)"/><polygon class="cls-43" points="56.28 759.82 0 742.15 0 743.89 54.96 761.14 0 764.81 0 766.48 55.93 762.74 55.83 761.25 56.28 759.82"/><path class="cls-44" d="M55.61,758.42a3.74,3.74,0,1,1-3.48,4A3.75,3.75,0,0,1,55.61,758.42Z" transform="translate(-0.17 -0.23)"/><path class="cls-45" d="M54.9,764.35a3.74,3.74,0,1,0-2.45-4.69A3.74,3.74,0,0,0,54.9,764.35Z" transform="translate(-0.17 -0.23)"/><path class="cls-38" d="M6.39,658.66a3.75,3.75,0,1,1-5.27.47A3.74,3.74,0,0,1,6.39,658.66Z" transform="translate(-0.17 -0.23)"/><polygon class="cls-24" points="0 821.01 0 823.38 58.42 763.89 46.72 909.49 48.37 909.62 60.44 759.46 0 821.01"/><polygon class="cls-24" points="0 878.66 43.92 911.63 44.91 910.3 0 876.59 0 878.66"/><path class="cls-38" d="M51.46,909.89a3.74,3.74,0,1,1-3.43-4A3.74,3.74,0,0,1,51.46,909.89Z" transform="translate(-0.17 -0.23)"/><path class="cls-43" d="M42.19,914.07a3.75,3.75,0,1,0-.75-5.24A3.75,3.75,0,0,0,42.19,914.07Z" transform="translate(-0.17 -0.23)"/><polygon class="cls-26" points="0 764.81 0 766.48 57.31 762.65 0 821.01 0 823.38 61.55 760.7 0 764.81"/><polygon class="cls-46" points="0 652.85 0 655.71 2.31 658.96 0 657.03 0 659.2 3.42 662.06 4.25 661.08 5.31 660.33 0 652.85"/><path class="cls-35" d="M6.39,658.66a3.75,3.75,0,1,1-5.27.47A3.74,3.74,0,0,1,6.39,658.66Z" transform="translate(-0.17 -0.23)"/><path class="cls-47" d="M1.64,663.05a3.75,3.75,0,1,0,.89-5.22A3.76,3.76,0,0,0,1.64,663.05Z" transform="translate(-0.17 -0.23)"/><polygon class="cls-22" points="0 563.98 0 565.71 48.77 550.62 47.73 538.94 46.08 539.1 47 549.43 0 563.98"/><polygon class="cls-22" points="0 557.87 43.71 537.72 43.01 536.21 0 556.04 0 557.87"/><path class="cls-30" d="M41.79,533.87a3.74,3.74,0,1,1-1.83,5A3.75,3.75,0,0,1,41.79,533.87Z" transform="translate(-0.17 -0.23)"/><path class="cls-41" d="M50.82,539.1a3.75,3.75,0,1,0-3.39,4.07A3.73,3.73,0,0,0,50.82,539.1Z" transform="translate(-0.17 -0.23)"/><polygon class="cls-7" points="0 484.08 16.05 453.65 14.58 452.87 0 480.52 0 484.08"/><polygon class="cls-7" points="18.93 453.21 17.36 453.75 45.56 535.04 0 556.04 0 557.87 46.94 536.23 47.62 535.92 18.93 453.21"/><path class="cls-11" d="M12.09,451.91A3.74,3.74,0,1,1,13.65,457,3.75,3.75,0,0,1,12.09,451.91Z" transform="translate(-0.17 -0.23)"/><path class="cls-48" d="M21.91,452.65a3.74,3.74,0,1,0-2.31,4.77A3.75,3.75,0,0,0,21.91,452.65Z" transform="translate(-0.17 -0.23)"/><polygon class="cls-49" points="0 467.65 13.83 454.31 0 480.52 0 484.08 16.05 453.65 14.81 453 13.84 451.99 0 465.35 0 467.65"/><path class="cls-50" d="M11.85,450.25a3.74,3.74,0,1,1-.09,5.29A3.75,3.75,0,0,1,11.85,450.25Z" transform="translate(-0.17 -0.23)"/><path class="cls-7" d="M18.71,455.4A3.74,3.74,0,1,0,13.65,457,3.74,3.74,0,0,0,18.71,455.4Z" transform="translate(-0.17 -0.23)"/><polygon class="cls-26" points="99.71 666.03 99.38 666.83 61.55 758.7 60.01 758.07 97.51 667 42.8 647.17 59.71 758.03 58.07 758.28 40.74 644.65 99.71 666.03"/><path class="cls-51" d="M64.49,759.87a3.75,3.75,0,1,1-2-4.89A3.74,3.74,0,0,1,64.49,759.87Z" transform="translate(-0.17 -0.23)"/><path class="cls-23" d="M55.33,758.77a3.74,3.74,0,1,0,3.14-4.27A3.74,3.74,0,0,0,55.33,758.77Z" transform="translate(-0.17 -0.23)"/><path class="cls-23" d="M42.59,644.88l.17,1.13L59.88,758.26l-1.43.22-1.27.68L5.72,663.58Zm15.46,112.4L41.29,647.4,8,664.29Z" transform="translate(-0.17 -0.23)"/><path class="cls-52" d="M61.12,756.83a3.74,3.74,0,1,1-5.07-1.52A3.74,3.74,0,0,1,61.12,756.83Z" transform="translate(-0.17 -0.23)"/><path class="cls-34" d="M55.33,758.77a3.74,3.74,0,1,0,3.14-4.27A3.74,3.74,0,0,0,55.33,758.77Z" transform="translate(-0.17 -0.23)"/><polygon class="cls-16" points="83.17 634.23 100.3 668.01 39.36 645.92 77.19 631.89 77.77 633.44 44.18 645.9 96.92 665.02 81.68 634.98 83.17 634.23"/><path class="cls-5" d="M76.17,629.45A3.74,3.74,0,1,1,74,634.26,3.74,3.74,0,0,1,76.17,629.45Z" transform="translate(-0.17 -0.23)"/><path class="cls-42" d="M86,633.3a3.75,3.75,0,1,0-1.65,5A3.75,3.75,0,0,0,86,633.3Z" transform="translate(-0.17 -0.23)"/><path class="cls-28" d="M50.16,553.24l31.92,78.9L41,647.36l.08-1.27L47,553.76l1.64.1Zm29.73,77.94L48.66,553.94l-5.81,91Z" transform="translate(-0.17 -0.23)"/><path class="cls-53" d="M44.08,553.76a3.75,3.75,0,1,1,3.5,4A3.74,3.74,0,0,1,44.08,553.76Z" transform="translate(-0.17 -0.23)"/><path class="cls-10" d="M52.93,552.33a3.74,3.74,0,1,0-2.06,4.87A3.73,3.73,0,0,0,52.93,552.33Z" transform="translate(-0.17 -0.23)"/><polygon class="cls-30" points="0 615.97 0 617.99 40.15 645.8 9.49 661.36 10.23 662.84 43.38 646.02 0 615.97"/><path class="cls-2" d="M7.75,658.71a3.75,3.75,0,1,1-5.22-.88A3.76,3.76,0,0,1,7.75,658.71Z" transform="translate(-0.17 -0.23)"/><path class="cls-46" d="M8.51,658.9a3.74,3.74,0,1,0,5,1.65A3.74,3.74,0,0,0,8.51,658.9Z" transform="translate(-0.17 -0.23)"/><polygon class="cls-29" points="0 565.71 44.74 551.87 44.24 550.29 0 563.98 0 565.71"/><polygon class="cls-29" points="46.83 553.53 41.03 644.39 0 615.97 0 617.99 42.51 647.43 48.49 553.63 46.83 553.53"/><path class="cls-54" d="M43.37,547.79a3.74,3.74,0,1,1-2.47,4.68A3.75,3.75,0,0,1,43.37,547.79Z" transform="translate(-0.17 -0.23)"/><path class="cls-24" d="M51.56,554.23a3.75,3.75,0,1,0-4,3.5A3.75,3.75,0,0,0,51.56,554.23Z" transform="translate(-0.17 -0.23)"/><polygon class="cls-55" points="121.27 702.93 119.23 760.24 117.58 760.17 119.47 706.88 61.46 760.92 114.75 762.81 114.69 764.46 57.39 762.43 121.27 702.93"/><path class="cls-18" d="M114.84,760.11a3.75,3.75,0,1,1-3.87,3.61A3.75,3.75,0,0,1,114.84,760.11Z" transform="translate(-0.17 -0.23)"/><path class="cls-56" d="M114.84,760.11a3.75,3.75,0,1,0,3.88-3.61A3.75,3.75,0,0,0,114.84,760.11Z" transform="translate(-0.17 -0.23)"/><path class="cls-9" d="M183.23,626.63l.68,1.48,1.25,1-64.75,77.43-22.8-40.21.82-.38Zm-62.56,77.06,63.12-75.48L100,667.11Z" transform="translate(-0.17 -0.23)"/><path class="cls-56" d="M181.83,624.07a3.74,3.74,0,1,1-1.82,5A3.75,3.75,0,0,1,181.83,624.07Z" transform="translate(-0.17 -0.23)"/><path class="cls-16" d="M187.28,631.16a3.75,3.75,0,1,0-5.28.47A3.75,3.75,0,0,0,187.28,631.16Z" transform="translate(-0.17 -0.23)"/><path class="cls-24" d="M98.66,664.85l22.92,40.45L62.77,760.09l-1.1-1.18-1.49-.61ZM119.49,705,98.9,668.63,61.81,758.71Z" transform="translate(-0.17 -0.23)"/><path class="cls-13" d="M64.49,759.87a3.75,3.75,0,1,1-2-4.89A3.74,3.74,0,0,1,64.49,759.87Z" transform="translate(-0.17 -0.23)"/><path class="cls-16" d="M59.78,756.61a3.75,3.75,0,1,0,5.3.19A3.74,3.74,0,0,0,59.78,756.61Z" transform="translate(-0.17 -0.23)"/><polygon class="cls-57" points="596.75 1002.46 629.04 1048.86 557.93 1066.68 591.64 1002.77 593.11 1003.55 561.13 1064.17 626.31 1047.84 595.38 1003.41 596.75 1002.46"/><path class="cls-16" d="M589.14,1001.81a3.75,3.75,0,1,1,1.57,5.06A3.75,3.75,0,0,1,589.14,1001.81Z" transform="translate(-0.17 -0.23)"/><path class="cls-38" d="M599.41,1001.18a3.74,3.74,0,1,0-.93,5.21A3.74,3.74,0,0,0,599.41,1001.18Z" transform="translate(-0.17 -0.23)"/><polygon class="cls-46" points="511.79 1083.24 503.98 928.74 558.56 1065.23 540.98 1083.24 543.3 1083.24 560.12 1066.01 560.5 1065.62 501.82 918.87 510.13 1083.24 511.79 1083.24"/><polygon class="cls-29" points="535.6 930.64 595.03 999.9 594.76 1000.4 559.17 1067.89 532.52 932.13 534.15 931.81 559.89 1062.96 593.03 1000.12 534.34 931.72 535.6 930.64"/><path class="cls-33" d="M529.87,933.11a3.74,3.74,0,1,1,4.39,2.95A3.75,3.75,0,0,1,529.87,933.11Z" transform="translate(-0.17 -0.23)"/><path class="cls-46" d="M538.1,929.12a3.74,3.74,0,1,0-.4,5.28A3.75,3.75,0,0,0,538.1,929.12Z" transform="translate(-0.17 -0.23)"/><polygon class="cls-42" points="529.27 927.11 529.01 928.75 504.21 924.85 557 1056.88 532.52 932.13 534.15 931.81 560.35 1065.27 558.76 1065.73 501.59 922.76 529.27 927.11"/><path class="cls-4" d="M529.7,924.43a3.75,3.75,0,1,1-4.28,3.12A3.74,3.74,0,0,1,529.7,924.43Z" transform="translate(-0.17 -0.23)"/><path class="cls-58" d="M537.22,931.67a3.74,3.74,0,1,0-3,4.39A3.75,3.75,0,0,0,537.22,931.67Z" transform="translate(-0.17 -0.23)"/><polygon class="cls-3" points="643.77 1083.24 629.85 1051.28 628.34 1051.94 641.97 1083.24 643.77 1083.24"/><polygon class="cls-3" points="587.5 1083.24 625.49 1051.27 624.42 1050 584.93 1083.24 587.5 1083.24"/><path class="cls-9" d="M622.57,1048.12a3.74,3.74,0,1,1-.45,5.28A3.74,3.74,0,0,1,622.57,1048.12Z" transform="translate(-0.17 -0.23)"/><path class="cls-32" d="M632.77,1050.51a3.74,3.74,0,1,0-1.93,4.93A3.73,3.73,0,0,0,632.77,1050.51Z" transform="translate(-0.17 -0.23)"/><polygon class="cls-32" points="560.33 1083.24 560.36 1066.07 624.39 1050.03 584.93 1083.24 587.5 1083.24 625.49 1051.27 624.42 1050.01 624.02 1048.41 559.33 1064.62 558.7 1064.78 558.67 1083.24 560.33 1083.24"/><path class="cls-58" d="M623.3,1045.85a3.75,3.75,0,1,1-2.72,4.55A3.76,3.76,0,0,1,623.3,1045.85Z" transform="translate(-0.17 -0.23)"/><path class="cls-45" d="M627.39,1053.85a3.74,3.74,0,1,0-5.27-.45A3.74,3.74,0,0,0,627.39,1053.85Z" transform="translate(-0.17 -0.23)"/><rect class="cls-44" x="552.55" y="1075.51" width="14.26" height="1.66" transform="translate(-517.82 1633.89) rotate(-89.9)"/><polygon class="cls-44" points="543.3 1083.24 557.64 1068.55 556.45 1067.39 540.98 1083.24 543.3 1083.24"/><path class="cls-41" d="M554.41,1065.72a3.74,3.74,0,1,1,.06,5.29A3.74,3.74,0,0,1,554.41,1065.72Z" transform="translate(-0.17 -0.23)"/><path class="cls-59" d="M563.44,1069.4a3.75,3.75,0,1,0-3.75,3.74A3.76,3.76,0,0,0,563.44,1069.4Z" transform="translate(-0.17 -0.23)"/><polygon class="cls-11" points="281.39 780.88 281.31 782.54 208.2 778.67 190.84 861.52 281.66 783.59 282.75 784.85 188.22 865.96 206.87 776.94 281.39 780.88"/><path class="cls-53" d="M279.8,781.73a3.74,3.74,0,1,1-.41,5.28A3.74,3.74,0,0,1,279.8,781.73Z" transform="translate(-0.17 -0.23)"/><path class="cls-60" d="M281.14,785.67a3.75,3.75,0,1,0-3.54-3.94A3.75,3.75,0,0,0,281.14,785.67Z" transform="translate(-0.17 -0.23)"/><polygon class="cls-46" points="273.25 753.07 286.2 782.8 284.86 782.73 203.98 778.45 267.48 750.79 268.14 752.31 211.09 777.16 283.61 781 271.73 753.73 273.25 753.07"/><path class="cls-52" d="M266.31,748.43a3.74,3.74,0,1,1-1.93,4.92A3.74,3.74,0,0,1,266.31,748.43Z" transform="translate(-0.17 -0.23)"/><path class="cls-61" d="M276.17,752.3a3.75,3.75,0,1,0-1.94,4.93A3.75,3.75,0,0,0,276.17,752.3Z" transform="translate(-0.17 -0.23)"/><polygon class="cls-62" points="208.81 775.78 191.07 860.43 189.45 860.09 206.26 779.83 170.77 807.13 189.15 860.11 187.58 860.65 168.81 806.54 169.29 806.18 208.81 775.78"/><path class="cls-48" d="M192,859.21a3.74,3.74,0,1,1-4.76-2.31A3.73,3.73,0,0,1,192,859.21Z" transform="translate(-0.17 -0.23)"/><path class="cls-60" d="M186.81,859.54a3.75,3.75,0,1,0,4.43-2.9A3.74,3.74,0,0,0,186.81,859.54Z" transform="translate(-0.17 -0.23)"/><polygon class="cls-39" points="189.32 628.14 272.32 750.5 271.4 750.89 206.86 779 206.71 777.92 186.3 629.3 187.94 629.07 208.21 776.61 269.82 749.77 187.94 629.07 189.32 628.14"/><path class="cls-63" d="M183.61,630.11a3.74,3.74,0,1,1,4.22,3.2A3.74,3.74,0,0,1,183.61,630.11Z" transform="translate(-0.17 -0.23)"/><path class="cls-60" d="M192,626.89a3.74,3.74,0,1,0-1,5.2A3.74,3.74,0,0,0,192,626.89Z" transform="translate(-0.17 -0.23)"/><polygon class="cls-6" points="211.2 776.03 173.11 805.32 172.11 804.01 203.87 779.58 142.1 795.05 166.78 804.76 166.18 806.3 136.68 794.7 211.2 776.03"/><path class="cls-22" d="M167.85,802.21a3.74,3.74,0,1,1-4.86,2.11A3.74,3.74,0,0,1,167.85,802.21Z" transform="translate(-0.17 -0.23)"/><path class="cls-30" d="M170.65,801.81a3.74,3.74,0,1,0,5.25.69A3.74,3.74,0,0,0,170.65,801.81Z" transform="translate(-0.17 -0.23)"/><polygon class="cls-63" points="211.69 777.62 143.04 794.82 142.64 793.21 203.38 777.99 120.04 764.88 138.08 791.47 136.71 792.4 116.52 762.64 211.69 777.62"/><path class="cls-38" d="M140.56,789.91a3.74,3.74,0,1,1-5.2-1A3.75,3.75,0,0,1,140.56,789.91Z" transform="translate(-0.17 -0.23)"/><path class="cls-4" d="M142.28,790.57a3.74,3.74,0,1,0,4.55,2.72A3.74,3.74,0,0,0,142.28,790.57Z" transform="translate(-0.17 -0.23)"/><polygon class="cls-37" points="210.37 779.09 121.66 765.13 121.92 763.5 204.71 776.52 121.14 706.63 119.23 760.24 117.58 760.17 119.6 703.18 210.37 779.09"/><path class="cls-14" d="M122.33,760.38a3.75,3.75,0,1,1-3.61-3.88A3.75,3.75,0,0,1,122.33,760.38Z" transform="translate(-0.17 -0.23)"/><path class="cls-13" d="M122.73,760.87a3.75,3.75,0,1,0,3.12,4.28A3.75,3.75,0,0,0,122.73,760.87Z" transform="translate(-0.17 -0.23)"/><polygon class="cls-64" points="187.94 629.07 208.65 779.82 119.2 705.01 183.72 627.86 184.99 628.92 121.54 704.8 206.42 775.79 186.3 629.3 187.94 629.07"/><path class="cls-47" d="M183.61,630.11a3.74,3.74,0,1,1,4.22,3.2A3.74,3.74,0,0,1,183.61,630.11Z" transform="translate(-0.17 -0.23)"/><path class="cls-6" d="M187.28,631.16a3.75,3.75,0,1,0-5.28.47A3.75,3.75,0,0,0,187.28,631.16Z" transform="translate(-0.17 -0.23)"/><polygon class="cls-2" points="0 1021.95 195.38 1031.76 195.49 1029.45 0 1019.65 0 1021.95"/><polygon class="cls-2" points="88.17 792.48 87.16 790.37 0 960.92 0 965.98 87.09 795.57 197.2 1026.9 199.28 1025.9 88.17 792.48"/><path class="cls-22" d="M203,1024.16a5.19,5.19,0,1,1-6.92-2.45A5.19,5.19,0,0,1,203,1024.16Z" transform="translate(-0.17 -0.23)"/><path class="cls-60" d="M195.09,1036a5.19,5.19,0,1,0-4.92-5.44A5.18,5.18,0,0,0,195.09,1036Z" transform="translate(-0.17 -0.23)"/><polygon class="cls-3" points="0 879.77 82.9 798.71 0 960.93 0 965.99 85.91 797.88 84.17 796.99 82.8 795.6 0 876.56 0 879.77"/><path class="cls-4" d="M80,793.12a5.19,5.19,0,1,1-.08,7.34A5.18,5.18,0,0,1,80,793.12Z" transform="translate(-0.17 -0.23)"/><path class="cls-5" d="M89.56,800.18a5.19,5.19,0,1,0-7,2.26A5.19,5.19,0,0,0,89.56,800.18Z" transform="translate(-0.17 -0.23)"/><polygon class="cls-62" points="506.81 1083.24 496.05 1007.32 493.77 1007.65 504.48 1083.24 506.81 1083.24"/><polygon class="cls-62" points="601.87 1083.24 498.83 1004.68 497.44 1006.51 598.08 1083.24 601.87 1083.24"/><path class="cls-65" d="M490,1008.7a5.19,5.19,0,1,1,5.87,4.41A5.2,5.2,0,0,1,490,1008.7Z" transform="translate(-0.17 -0.23)"/><path class="cls-11" d="M501.66,1001.85a5.19,5.19,0,1,0,1,7.28A5.19,5.19,0,0,0,501.66,1001.85Z" transform="translate(-0.17 -0.23)"/><polygon class="cls-8" points="506.8 1083.24 496.05 1007.32 493.77 1007.65 504.48 1083.24 506.8 1083.24"/><polygon class="cls-8" points="429.51 1083.24 491.97 1007.14 490.19 1005.68 426.53 1083.24 429.51 1083.24"/><path class="cls-66" d="M487.08,1003.55a5.19,5.19,0,1,1,.72,7.31A5.18,5.18,0,0,1,487.08,1003.55Z" transform="translate(-0.17 -0.23)"/><path class="cls-11" d="M500.25,1007.24a5.19,5.19,0,1,0-4.41,5.87A5.19,5.19,0,0,0,500.25,1007.24Z" transform="translate(-0.17 -0.23)"/><polygon class="cls-15" points="14.58 1083.24 0 1060.95 0 1065.16 11.82 1083.24 14.58 1083.24"/><polygon class="cls-15" points="136.55 1083.24 140.12 1083.24 203.33 1029.85 0 1019.65 0 1021.95 197.39 1031.86 136.55 1083.24"/><polygon class="cls-16" points="14.58 1083.24 0 1060.95 0 1065.16 11.83 1083.24 14.58 1083.24"/><polygon class="cls-67" points="140.12 1083.24 199.47 1033.12 205.28 1083.24 207.6 1083.24 201.25 1028.59 136.55 1083.24 140.12 1083.24"/><polygon class="cls-35" points="0 728.77 0 731.6 85.34 793.11 0 876.55 0 879.77 88.91 792.84 0 728.77"/><polygon class="cls-37" points="0 693.26 5.37 693.72 80.83 787.01 0 728.77 0 731.6 93.42 798.93 6.85 691.89 6.54 691.51 0 690.96 0 693.26"/><polygon class="cls-22" points="971.57 1083.24 1090.01 1034.27 1062.83 1083.24 1065.46 1083.24 1095.21 1029.63 965.54 1083.24 971.57 1083.24"/><polygon class="cls-68" points="429.51 1083.24 491.97 1007.14 490.19 1005.68 426.53 1083.24 429.51 1083.24"/><polygon class="cls-68" points="361.09 1083.24 406.02 976.27 489.16 1002.23 489.85 1000.03 404.71 973.45 358.6 1083.24 361.09 1083.24"/><path class="cls-53" d="M487.08,1003.55a5.19,5.19,0,1,1,.72,7.31A5.18,5.18,0,0,1,487.08,1003.55Z" transform="translate(-0.17 -0.23)"/><path class="cls-42" d="M487.88,1006.24a5.19,5.19,0,1,0-3.4-6.5A5.19,5.19,0,0,0,487.88,1006.24Z" transform="translate(-0.17 -0.23)"/><polygon class="cls-4" points="280.06 1083.24 402.44 978.87 358.6 1083.24 361.09 1083.24 408.3 970.84 276.51 1083.24 280.06 1083.24"/><polygon class="cls-9" points="679.77 1083.24 701.63 992.37 708.72 1083.24 711.03 1083.24 703.75 989.88 701.83 990.03 699.94 989.57 677.41 1083.24 679.77 1083.24"/><path class="cls-10" d="M697.62,990.86a5.19,5.19,0,1,1,5.57,4.77A5.18,5.18,0,0,1,697.62,990.86Z" transform="translate(-0.17 -0.23)"/><path class="cls-21" d="M706.22,991.54a5.19,5.19,0,1,0-6.26,3.83A5.19,5.19,0,0,0,706.22,991.54Z" transform="translate(-0.17 -0.23)"/><polygon class="cls-33" points="642.01 1083.24 699.44 991.64 677.41 1083.24 679.77 1083.24 702.18 990.11 700.28 989.65 698.63 988.62 639.3 1083.24 642.01 1083.24"/><path class="cls-58" d="M696.13,989.11a5.19,5.19,0,1,1,3.83,6.26A5.18,5.18,0,0,1,696.13,989.11Z" transform="translate(-0.17 -0.23)"/><path class="cls-8" d="M704,992.43a5.19,5.19,0,1,0-7.16,1.64A5.19,5.19,0,0,0,704,992.43Z" transform="translate(-0.17 -0.23)"/><polygon class="cls-25" points="642.01 1083.24 700.57 989.84 698.63 988.62 639.3 1083.24 642.01 1083.24"/><polygon class="cls-25" points="601.87 1083.24 497.28 1003.5 697.4 986.61 697.21 984.32 494.11 1001.46 491.14 1001.71 598.08 1083.24 601.87 1083.24"/><path class="cls-43" d="M695.23,986.92a5.19,5.19,0,1,1,1.64,7.15A5.19,5.19,0,0,1,695.23,986.92Z" transform="translate(-0.17 -0.23)"/><path class="cls-49" d="M697.65,990.89a5.19,5.19,0,1,0-5.61-4.74A5.2,5.2,0,0,0,697.65,990.89Z" transform="translate(-0.17 -0.23)"/><polygon class="cls-57" points="249.09 843.74 315.11 885.97 233.56 946.6 242.72 846.86 245.01 847.07 236.32 941.68 311.07 886.11 247.85 845.68 249.09 843.74"/><path class="cls-16" d="M238.84,847a5.19,5.19,0,1,1,4.7,5.64A5.19,5.19,0,0,1,238.84,847Z" transform="translate(-0.17 -0.23)"/><path class="cls-38" d="M251.66,840.71a5.19,5.19,0,1,0,1.57,7.17A5.18,5.18,0,0,0,251.66,840.71Z" transform="translate(-0.17 -0.23)"/><polygon class="cls-46" points="83.12 787.23 236.29 943.87 236.01 944.57 203.26 1026.7 201.12 1025.85 233.6 944.41 91.14 798.72 199.28 1025.9 197.2 1026.9 83.12 787.23"/><path class="cls-16" d="M203,1024.16a5.19,5.19,0,1,1-6.92-2.45A5.19,5.19,0,0,1,203,1024.16Z" transform="translate(-0.17 -0.23)"/><path class="cls-39" d="M197.63,1024.34a5.19,5.19,0,1,0,6.75-2.9A5.19,5.19,0,0,0,197.63,1024.34Z" transform="translate(-0.17 -0.23)"/><polygon class="cls-29" points="132.62 784.33 245.53 841.38 245.46 842.16 235.79 947.49 129.48 787.88 131.39 786.6 234.09 940.79 243.1 842.73 131.59 786.39 132.62 784.33"/><path class="cls-33" d="M126.43,790.56a5.19,5.19,0,1,1,7.2,1.45A5.19,5.19,0,0,1,126.43,790.56Z" transform="translate(-0.17 -0.23)"/><path class="cls-46" d="M134.85,781.07a5.19,5.19,0,1,0,2.29,7A5.2,5.2,0,0,0,134.85,781.07Z" transform="translate(-0.17 -0.23)"/><polygon class="cls-42" points="122.64 783.18 123.18 785.42 89.36 793.61 227.17 934.55 129.48 787.88 131.39 786.6 235.9 943.5 234.12 944.95 84.89 792.33 122.64 783.18"/><path class="cls-4" d="M121.61,779.54a5.19,5.19,0,1,1-3.83,6.27A5.19,5.19,0,0,1,121.61,779.54Z" transform="translate(-0.17 -0.23)"/><path class="cls-58" d="M135.07,784.81a5.19,5.19,0,1,0-1.44,7.2A5.19,5.19,0,0,0,135.07,784.81Z" transform="translate(-0.17 -0.23)"/><polygon class="cls-3" points="317.44 888.63 407.87 975.67 254.26 997.27 309.81 889.89 311.85 890.95 258.35 994.37 402.87 974.05 315.85 890.28 317.44 888.63"/><path class="cls-9" d="M306.27,888.49a5.19,5.19,0,1,1,2.22,7A5.19,5.19,0,0,1,306.27,888.49Z" transform="translate(-0.17 -0.23)"/><path class="cls-32" d="M320.6,886.12a5.19,5.19,0,1,0,.14,7.34A5.2,5.2,0,0,0,320.6,886.12Z" transform="translate(-0.17 -0.23)"/><polygon class="cls-35" points="280.06 1083.24 402.36 978.93 400.87 977.18 276.52 1083.24 280.06 1083.24"/><polygon class="cls-35" points="240.48 1083.24 257.28 996.84 400.64 976.68 400.32 974.4 255.34 994.79 238.14 1083.24 240.48 1083.24"/><path class="cls-29" d="M398.22,974.51a5.19,5.19,0,1,1-.58,7.31A5.19,5.19,0,0,1,398.22,974.51Z" transform="translate(-0.17 -0.23)"/><path class="cls-68" d="M401.12,981a5.19,5.19,0,1,0-5.86-4.42A5.19,5.19,0,0,0,401.12,981Z" transform="translate(-0.17 -0.23)"/><path class="cls-32" d="M308.62,888.29l1.37,1.83,2,1-55.66,107.6L233.71,944l.72-.53Zm-52,105L310,890.16l-73.43,54.6Z" transform="translate(-0.17 -0.23)"/><path class="cls-58" d="M306,885.2a5.19,5.19,0,1,1-1.07,7.26A5.19,5.19,0,0,1,306,885.2Z" transform="translate(-0.17 -0.23)"/><path class="cls-45" d="M315.49,893.26a5.19,5.19,0,1,0-7,2.22A5.2,5.2,0,0,0,315.49,893.26Z" transform="translate(-0.17 -0.23)"/><polygon class="cls-39" points="217.79 1083.24 253.32 1005.16 238.14 1083.24 240.48 1083.24 259.3 986.47 215.26 1083.24 217.79 1083.24"/><polygon class="cls-42" points="207.6 1083.24 201.59 1031.44 253.68 998.83 215.26 1083.24 217.79 1083.24 258.94 992.81 199.75 1029.88 199.13 1030.26 205.28 1083.24 207.6 1083.24"/><polygon class="cls-44" points="237.89 948.26 257.74 996.28 197.99 1033.7 232.04 948.29 234.18 949.15 202.74 1028.01 254.87 995.36 235.76 949.14 237.89 948.26"/><path class="cls-41" d="M228.37,947.27a5.19,5.19,0,1,1,2.9,6.74A5.18,5.18,0,0,1,228.37,947.27Z" transform="translate(-0.17 -0.23)"/><path class="cls-59" d="M241.89,947.18a5.19,5.19,0,1,0-2.81,6.78A5.18,5.18,0,0,0,241.89,947.18Z" transform="translate(-0.17 -0.23)"/><polygon class="cls-41" points="1129.64 1083.24 1096.37 1035.35 1094.48 1036.66 1126.83 1083.24 1129.64 1083.24"/><polygon class="cls-41" points="1065.46 1083.24 1091.22 1036.82 1089.21 1035.71 1062.83 1083.24 1065.46 1083.24"/><path class="cls-69" d="M1085.73,1034.2a5.19,5.19,0,1,1,2,7.06A5.18,5.18,0,0,1,1085.73,1034.2Z" transform="translate(-0.17 -0.23)"/><path class="cls-55" d="M1100,1033.48a5.19,5.19,0,1,0-1.3,7.23A5.21,5.21,0,0,0,1100,1033.48Z" transform="translate(-0.17 -0.23)"/><polygon class="cls-41" points="812.13 1083.24 754.9 974.02 916.57 1083.24 920.68 1083.24 748.62 967.01 809.54 1083.24 812.13 1083.24"/><polygon class="cls-5" points="812.13 1083.24 755.07 974.35 753.03 975.42 809.54 1083.24 812.13 1083.24"/><polygon class="cls-5" points="717.76 1083.24 751.39 975.57 749.19 974.88 715.35 1083.24 717.76 1083.24"/><path class="cls-69" d="M749.74,977.75a5.19,5.19,0,1,1,7,2.19A5.18,5.18,0,0,1,749.74,977.75Z" transform="translate(-0.17 -0.23)"/><path class="cls-44" d="M755.34,977.25a5.19,5.19,0,1,0-6.5,3.4A5.19,5.19,0,0,0,755.34,977.25Z" transform="translate(-0.17 -0.23)"/><polygon class="cls-36" points="717.76 1083.24 751.39 975.57 749.19 974.88 715.35 1083.24 717.76 1083.24"/><polygon class="cls-36" points="711.03 1083.24 703.44 985.89 747.35 973.01 746.7 970.8 701 984.21 708.72 1083.24 711.03 1083.24"/><path class="cls-35" d="M745.43,974.15a5.19,5.19,0,1,1,3.41,6.5A5.18,5.18,0,0,1,745.43,974.15Z" transform="translate(-0.17 -0.23)"/><path class="cls-49" d="M748.41,977.19a5.19,5.19,0,1,0-6.44-3.52A5.19,5.19,0,0,0,748.41,977.19Z" transform="translate(-0.17 -0.23)"/><polygon class="cls-70" points="1919.08 171.15 1915.29 169.78 1919.08 170.19 1919.08 168.79 1903.93 167.14 1919.08 172.63 1919.08 171.15"/><polygon class="cls-70" points="1919.08 272.62 1875.3 251.39 1919.08 216.77 1919.08 215 1872.7 251.67 1919.08 274.16 1919.08 272.62"/><polygon class="cls-70" points="1919.08 215 1875.72 249.28 1909.99 169.34 1919.08 172.63 1919.08 171.15 1909.85 167.8 1909.23 167.58 1872.28 253.77 1919.08 216.77 1919.08 215"/><polygon class="cls-68" points="1684.89 87.14 1686.42 174.57 1674.26 164.4 1675.15 163.33 1684.98 171.55 1683.63 95.15 1673.57 159.12 1672.2 158.9 1683.5 87.05 1684.89 87.14"/><path class="cls-31" d="M1676.18,159.57a3.14,3.14,0,1,1-2.61-3.59A3.14,3.14,0,0,1,1676.18,159.57Z" transform="translate(-0.17 -0.23)"/><path class="cls-53" d="M1677,161.79a3.13,3.13,0,1,0,.4,4.42A3.14,3.14,0,0,0,1677,161.79Z" transform="translate(-0.17 -0.23)"/><polygon class="cls-2" points="1626.8 0 1685.18 27.77 1685.77 26.51 1630.03 0 1626.8 0"/><polygon class="cls-2" points="1686.04 0 1687.33 25.48 1688.71 25.4 1687.43 0 1686.04 0"/><path class="cls-22" d="M1691.32,25.35a3.14,3.14,0,1,1-3.3-3A3.16,3.16,0,0,1,1691.32,25.35Z" transform="translate(-0.17 -0.23)"/><path class="cls-60" d="M1684.16,30.13a3.14,3.14,0,1,0-1.49-4.18A3.13,3.13,0,0,0,1684.16,30.13Z" transform="translate(-0.17 -0.23)"/><polygon class="cls-67" points="1919.08 274.16 1919.08 272.62 1874.3 250.9 1873.6 250.56 1842.57 340.43 1843.88 340.88 1874.4 252.49 1919.08 274.16"/><polygon class="cls-67" points="1919.08 306.35 1844.65 341.57 1845.24 342.82 1919.08 307.89 1919.08 306.35"/><path class="cls-57" d="M1846.6,345.19a3.14,3.14,0,1,1,1.49-4.17A3.13,3.13,0,0,1,1846.6,345.19Z" transform="translate(-0.17 -0.23)"/><path class="cls-71" d="M1840.48,339.71a3.14,3.14,0,1,0,4-1.94A3.13,3.13,0,0,0,1840.48,339.71Z" transform="translate(-0.17 -0.23)"/><polygon class="cls-62" points="1860.87 83.04 1910.48 168.58 1910.1 168.95 1809.49 268.66 1857.36 83.52 1858.7 83.87 1812.1 264.11 1908.74 168.34 1859.67 83.73 1860.87 83.04"/><path class="cls-65" d="M1855.12,83.29a3.14,3.14,0,1,1,2.26,3.82A3.15,3.15,0,0,1,1855.12,83.29Z" transform="translate(-0.17 -0.23)"/><path class="cls-11" d="M1863.23,82.18a3.13,3.13,0,1,0-1.14,4.28A3.14,3.14,0,0,0,1863.23,82.18Z" transform="translate(-0.17 -0.23)"/><polygon class="cls-8" points="1858.7 83.87 1811.21 267.56 1684.41 172.96 1855.82 81.59 1856.47 82.82 1687 173.16 1810.38 265.21 1857.36 83.52 1858.7 83.87"/><path class="cls-66" d="M1854.7,79.74a3.14,3.14,0,1,1,3,5.54,3.14,3.14,0,0,1-3-5.54Z" transform="translate(-0.17 -0.23)"/><path class="cls-11" d="M1861.2,84.86a3.14,3.14,0,1,0-3.82,2.25A3.15,3.15,0,0,0,1861.2,84.86Z" transform="translate(-0.17 -0.23)"/><polygon class="cls-41" points="1812.89 266.57 1695.93 295.88 1691.75 215.43 1693.14 215.36 1697.23 294.12 1808.69 266.19 1694.71 214.29 1695.29 213.02 1812.89 266.57"/><path class="cls-37" d="M1694,216.8a3.14,3.14,0,1,1,4.16-1.55A3.13,3.13,0,0,1,1694,216.8Z" transform="translate(-0.17 -0.23)"/><path class="cls-63" d="M1695.75,215.62a3.13,3.13,0,1,0-3,3.3A3.13,3.13,0,0,0,1695.75,215.62Z" transform="translate(-0.17 -0.23)"/><polygon class="cls-28" points="1816.41 269.7 1694.71 214.29 1695.29 213.02 1805.18 263.06 1686.68 174.65 1692.48 209.37 1691.11 209.59 1684.73 171.47 1816.41 269.7"/><path class="cls-38" d="M1694,216.8a3.14,3.14,0,1,1,4.16-1.55A3.13,3.13,0,0,1,1694,216.8Z" transform="translate(-0.17 -0.23)"/><path class="cls-17" d="M1688.85,210.07a3.14,3.14,0,1,0,2.57-3.61A3.14,3.14,0,0,0,1688.85,210.07Z" transform="translate(-0.17 -0.23)"/><polygon class="cls-15" points="1568.15 0 1579.36 59.79 1580.73 59.53 1569.57 0 1568.15 0"/><polygon class="cls-15" points="1626.8 0 1686.28 28.29 1583.23 61.02 1583.65 62.35 1690.06 28.55 1630.03 0 1626.8 0"/><path class="cls-43" d="M1584.71,64.86a3.14,3.14,0,1,1,2-3.94A3.13,3.13,0,0,1,1584.71,64.86Z" transform="translate(-0.17 -0.23)"/><path class="cls-32" d="M1577.1,60.32a3.14,3.14,0,1,0,2.51-3.67A3.14,3.14,0,0,0,1577.1,60.32Z" transform="translate(-0.17 -0.23)"/><polygon class="cls-16" points="1568.15 0 1579.55 60.82 1560.09 44.53 1559.19 45.6 1581.63 64.37 1569.56 0 1568.15 0"/><polygon class="cls-16" points="1559.95 0 1556.88 40.13 1558.27 40.24 1561.35 0 1559.95 0"/><path class="cls-56" d="M1560.89,40.49a3.14,3.14,0,1,1-2.89-3.36A3.13,3.13,0,0,1,1560.89,40.49Z" transform="translate(-0.17 -0.23)"/><path class="cls-58" d="M1561.94,43a3.13,3.13,0,1,0,.4,4.42A3.14,3.14,0,0,0,1561.94,43Z" transform="translate(-0.17 -0.23)"/><path class="cls-67" d="M1689.36,27.59l-12.21,42.78-93.46-6.64.09-1.27-.38-1.21ZM1676.12,68.9l11.2-39.2L1584.44,62.38Z" transform="translate(-0.17 -0.23)"/><path class="cls-4" d="M1583.67,66.17a3.14,3.14,0,1,1,3.36-2.9A3.13,3.13,0,0,1,1583.67,66.17Z" transform="translate(-0.17 -0.23)"/><path class="cls-29" d="M1582.81,58.88a3.14,3.14,0,1,0,3.94,2A3.13,3.13,0,0,0,1582.81,58.88Z" transform="translate(-0.17 -0.23)"/><polygon class="cls-31" points="1509.55 0 1506.73 0 1500.92 3.29 1501.61 4.5 1509.55 0"/><polygon class="cls-31" points="1532.04 0 1520.63 11.81 1501.72 5.63 1501.29 6.96 1521.03 13.41 1533.97 0 1532.04 0"/><path class="cls-45" d="M1503.12,6.78a3.14,3.14,0,1,1,1.18-4.28A3.15,3.15,0,0,1,1503.12,6.78Z" transform="translate(-0.17 -0.23)"/><path class="cls-64" d="M1502.8,3.59a3.14,3.14,0,1,0,2,4A3.14,3.14,0,0,0,1502.8,3.59Z" transform="translate(-0.17 -0.23)"/><polygon class="cls-11" points="1506.73 0 1501.05 3.22 1503.33 0 1501.63 0 1499.83 2.54 1500.94 3.32 1501.61 4.5 1509.55 0 1506.73 0"/><path class="cls-64" d="M1503.12,6.78a3.14,3.14,0,1,1,1.18-4.28A3.15,3.15,0,0,1,1503.12,6.78Z" transform="translate(-0.17 -0.23)"/><polygon class="cls-32" points="1482.52 0 1495.64 4.96 1496.13 3.66 1486.45 0 1482.52 0"/><path class="cls-61" d="M1494.8,7.42a3.14,3.14,0,1,0-1.83-4A3.13,3.13,0,0,0,1494.8,7.42Z" transform="translate(-0.17 -0.23)"/><polygon class="cls-25" points="1548.02 0 1546.46 0 1536.05 20.51 1554.85 41.4 1555.88 40.47 1537.72 20.29 1548.02 0"/><polygon class="cls-25" points="1559.95 0 1556.88 40.13 1558.27 40.24 1561.35 0 1559.95 0"/><path class="cls-52" d="M1560.89,40.49a3.14,3.14,0,1,1-2.89-3.36A3.13,3.13,0,0,1,1560.89,40.49Z" transform="translate(-0.17 -0.23)"/><path class="cls-34" d="M1553.09,43.15a3.14,3.14,0,1,0,.24-4.43A3.13,3.13,0,0,0,1553.09,43.15Z" transform="translate(-0.17 -0.23)"/><polygon class="cls-11" points="1546.46 0 1537.62 17.42 1538.86 18.05 1548.02 0 1546.46 0"/><polygon class="cls-11" points="1533.97 0 1532.04 0 1519.66 12.82 1533.9 19.72 1534.51 18.47 1521.99 12.4 1533.97 0"/><path class="cls-37" d="M1541.28,19.25A3.14,3.14,0,1,1,1539.9,15,3.15,3.15,0,0,1,1541.28,19.25Z" transform="translate(-0.17 -0.23)"/><path class="cls-13" d="M1532.86,22.08a3.14,3.14,0,1,0-1.45-4.19A3.14,3.14,0,0,0,1532.86,22.08Z" transform="translate(-0.17 -0.23)"/><polygon class="cls-9" points="1810.62 265.71 1811.07 267.02 1707.32 312.2 1706.76 310.93 1802.81 269.1 1697.54 295.48 1703.75 309.74 1702.48 310.3 1695.61 294.53 1696.41 294.33 1810.62 265.71"/><path class="cls-53" d="M1708.61,314.6a3.14,3.14,0,1,1,1.62-4.13A3.13,3.13,0,0,1,1708.61,314.6Z" transform="translate(-0.17 -0.23)"/><path class="cls-41" d="M1700.35,311.36a3.14,3.14,0,1,0,1.62-4.13A3.14,3.14,0,0,0,1700.35,311.36Z" transform="translate(-0.17 -0.23)"/><polygon class="cls-5" points="1686.14 171.45 1692.48 209.37 1691.11 209.59 1685.27 174.66 1672.74 189.64 1690.81 209.74 1689.78 210.67 1670.9 189.68 1686.14 171.45"/><path class="cls-67" d="M1695,209a3.14,3.14,0,1,1-3.62-2.58A3.14,3.14,0,0,1,1695,209Z" transform="translate(-0.17 -0.23)"/><path class="cls-31" d="M1688,212.41a3.13,3.13,0,1,0,.23-4.43A3.13,3.13,0,0,0,1688,212.41Z" transform="translate(-0.17 -0.23)"/><polygon class="cls-50" points="1686.68 172.97 1674.27 187.82 1673.2 186.93 1684.72 173.15 1673.09 163.41 1672.58 186.7 1671.19 186.67 1671.76 160.49 1686.68 172.97"/><path class="cls-51" d="M1676.41,189.5a3.14,3.14,0,1,1-.39-4.42A3.14,3.14,0,0,1,1676.41,189.5Z" transform="translate(-0.17 -0.23)"/><path class="cls-53" d="M1668.92,186.69a3.14,3.14,0,1,0,3.21-3.07A3.14,3.14,0,0,0,1668.92,186.69Z" transform="translate(-0.17 -0.23)"/><polygon class="cls-68" points="1856.93 78.36 1856.04 79.43 1815.65 45.65 1689.59 170.2 1855.82 81.59 1856.47 82.82 1681.82 175.92 1815.57 43.77 1856.93 78.36"/><path class="cls-53" d="M1854.7,79.74a3.14,3.14,0,1,1,3,5.54,3.14,3.14,0,0,1-3-5.54Z" transform="translate(-0.17 -0.23)"/><path class="cls-42" d="M1854.53,81.43a3.14,3.14,0,1,0-.4-4.42A3.14,3.14,0,0,0,1854.53,81.43Z" transform="translate(-0.17 -0.23)"/><polygon class="cls-4" points="1818.18 43.15 1688.31 171.46 1687.34 170.47 1813.04 46.27 1684.89 87.66 1686.35 170.07 1684.96 170.09 1683.48 86.65 1683.98 86.49 1818.18 43.15"/><path class="cls-70" d="M1689,170.1a3.14,3.14,0,1,1-3.2-3.09A3.14,3.14,0,0,1,1689,170.1Z" transform="translate(-0.17 -0.23)"/><path class="cls-66" d="M1685.9,168.85a3.14,3.14,0,1,0,4.44,0A3.14,3.14,0,0,0,1685.9,168.85Z" transform="translate(-0.17 -0.23)"/><polygon class="cls-33" points="1919.08 168.79 1911.51 167.97 1919.08 162.59 1919.08 160.89 1907.71 168.95 1919.08 170.19 1919.08 168.79"/><polygon class="cls-25" points="1919.08 160.89 1909.83 167.45 1860.28 82.02 1919.08 100.83 1919.08 99.37 1858.98 80.14 1857.27 79.59 1909.01 168.81 1909.39 169.47 1919.08 162.59 1919.08 160.89"/><polygon class="cls-43" points="1919.08 447.46 1862 376.42 1919.08 379.45 1919.08 378.06 1858.97 374.87 1919.08 449.67 1919.08 447.46"/><polygon class="cls-31" points="1673.13 161.44 1672.58 186.7 1671.19 186.67 1671.72 162.47 1642.86 153.81 1670.45 186.93 1669.38 187.82 1638.84 151.15 1673.13 161.44"/><path class="cls-4" d="M1675.2,186.82a3.14,3.14,0,1,1-3.07-3.2A3.15,3.15,0,0,1,1675.2,186.82Z" transform="translate(-0.17 -0.23)"/><path class="cls-21" d="M1667.57,189.49a3.14,3.14,0,1,0,.41-4.42A3.14,3.14,0,0,0,1667.57,189.49Z" transform="translate(-0.17 -0.23)"/><polygon class="cls-67" points="1685.37 84.11 1672.99 162.85 1643.5 154 1643.9 152.67 1671.86 161.06 1683.01 90.19 1643.08 150.38 1641.92 149.61 1685.37 84.11"/><path class="cls-56" d="M1643.12,156.61a3.14,3.14,0,1,1,3.91-2.1A3.12,3.12,0,0,1,1643.12,156.61Z" transform="translate(-0.17 -0.23)"/><path class="cls-69" d="M1640.14,148.36a3.14,3.14,0,1,0,4.35-.88A3.14,3.14,0,0,0,1640.14,148.36Z" transform="translate(-0.17 -0.23)"/><path class="cls-68" d="M1676.63,67.88l8.52,19.57-.21.32-41.69,62.84-.81-.54-.88-.38Zm6.94,19.43-6.93-15.92-32,74.54Z" transform="translate(-0.17 -0.23)"/><path class="cls-23" d="M1645.37,151.83a3.14,3.14,0,1,1-.88-4.35A3.15,3.15,0,0,1,1645.37,151.83Z" transform="translate(-0.17 -0.23)"/><path class="cls-42" d="M1639.37,148.59a3.14,3.14,0,1,0,4.12-1.65A3.15,3.15,0,0,0,1639.37,148.59Z" transform="translate(-0.17 -0.23)"/><polygon class="cls-55" points="1677.48 68.78 1642.66 150.01 1641.38 149.46 1675.44 70.03 1581.96 63.39 1639.77 149.62 1638.61 150.39 1579.22 61.8 1677.48 68.78"/><path class="cls-5" d="M1645.14,151.06a3.14,3.14,0,1,1-1.65-4.12A3.14,3.14,0,0,1,1645.14,151.06Z" transform="translate(-0.17 -0.23)"/><path class="cls-30" d="M1636.67,151.85a3.14,3.14,0,1,0,.86-4.36A3.14,3.14,0,0,0,1636.67,151.85Z" transform="translate(-0.17 -0.23)"/><polygon class="cls-12" points="1841.93 260.11 1842.96 344.25 1814.11 341.11 1814.26 339.72 1841.55 342.69 1840.63 267.22 1812.96 337.57 1811.67 337.06 1841.93 260.11"/><path class="cls-13" d="M1815.46,338.55a3.14,3.14,0,1,1-1.77-4.07A3.14,3.14,0,0,1,1815.46,338.55Z" transform="translate(-0.17 -0.23)"/><path class="cls-48" d="M1814.85,337.54a3.14,3.14,0,1,0,2.78,3.46A3.14,3.14,0,0,0,1814.85,337.54Z" transform="translate(-0.17 -0.23)"/><path class="cls-24" d="M1875.31,250.59l-31.26,90.52-1.14-.4-1.22,0-.94-77.32.46-.17Zm-32.24,89.11,30-86.78-30.88,11.46Z" transform="translate(-0.17 -0.23)"/><path class="cls-65" d="M1846.41,341.76a3.14,3.14,0,1,1-1.94-4A3.13,3.13,0,0,1,1846.41,341.76Z" transform="translate(-0.17 -0.23)"/><path class="cls-22" d="M1839.25,340.6a3.14,3.14,0,1,0,3.1-3.18A3.14,3.14,0,0,0,1839.25,340.6Z" transform="translate(-0.17 -0.23)"/><path class="cls-65" d="M1842.51,263.1l-29.38,74.7-1.18-.46h-1.27l-.41-71.37Zm-30.45,73.61,28.33-72-28.73,2.56Z" transform="translate(-0.17 -0.23)"/><path class="cls-69" d="M1814.51,337.16a3.14,3.14,0,1,1-3.15-3.12A3.14,3.14,0,0,1,1814.51,337.16Z" transform="translate(-0.17 -0.23)"/><path class="cls-16" d="M1809.62,336.25a3.14,3.14,0,1,0,4.07-1.77A3.14,3.14,0,0,0,1809.62,336.25Z" transform="translate(-0.17 -0.23)"/><polygon class="cls-31" points="1912.76 162.88 1875.81 249.06 1874.54 248.51 1906.46 174.04 1843.17 262.22 1870.96 251.91 1871.44 253.22 1839.39 265.11 1912.76 162.88"/><path class="cls-35" d="M1878.29,250.11a3.14,3.14,0,1,1-1.65-4.12A3.14,3.14,0,0,1,1878.29,250.11Z" transform="translate(-0.17 -0.23)"/><path class="cls-36" d="M1872.32,255.79a3.14,3.14,0,1,0-4-1.85A3.14,3.14,0,0,0,1872.32,255.79Z" transform="translate(-0.17 -0.23)"/><path class="cls-13" d="M1908.61,171.51l-66.78,93.05-32.73,2.92,1.38-1.36,96.7-95.83.66.67Zm-67.54,91.72L1904.38,175l-91.55,90.73Z" transform="translate(-0.17 -0.23)"/><path class="cls-60" d="M1905.34,168.67a3.14,3.14,0,1,1,0,4.43A3.14,3.14,0,0,1,1905.34,168.67Z" transform="translate(-0.17 -0.23)"/><path class="cls-36" d="M1910.5,173.07a3.14,3.14,0,1,0-4.38.72A3.14,3.14,0,0,0,1910.5,173.07Z" transform="translate(-0.17 -0.23)"/><polygon class="cls-56" points="1919.08 312.99 1919.08 311.35 1851.61 352.96 1852.34 354.15 1919.08 312.99"/><polygon class="cls-56" points="1919.08 376.38 1852.49 355.35 1852.07 356.68 1919.08 377.85 1919.08 376.38"/><path class="cls-14" d="M1851.65,359.29a3.14,3.14,0,1,1,3.94-2.05A3.13,3.13,0,0,1,1851.65,359.29Z" transform="translate(-0.17 -0.23)"/><path class="cls-33" d="M1850.63,351a3.14,3.14,0,1,0,4.32,1A3.14,3.14,0,0,0,1850.63,351Z" transform="translate(-0.17 -0.23)"/><polygon class="cls-72" points="1919.08 376.39 1852.49 355.35 1852.07 356.68 1919.08 377.84 1919.08 376.39"/><polygon class="cls-72" points="1919.08 378.06 1860.91 374.97 1851.46 357.42 1850.23 358.07 1860.06 376.32 1919.08 379.45 1919.08 378.06"/><path class="cls-29" d="M1851.65,359.29a3.14,3.14,0,1,1,3.94-2.05A3.13,3.13,0,0,1,1851.65,359.29Z" transform="translate(-0.17 -0.23)"/><path class="cls-15" d="M1853.86,356.63a3.14,3.14,0,1,0-1.28,4.25A3.14,3.14,0,0,0,1853.86,356.63Z" transform="translate(-0.17 -0.23)"/><polygon class="cls-35" points="1919.08 307.89 1919.08 306.35 1841.95 342.84 1841.25 343.17 1847.28 352.95 1848.46 352.22 1843.25 343.77 1919.08 307.89"/><polygon class="cls-35" points="1919.08 311.35 1851.61 352.96 1852.34 354.15 1919.08 312.99 1919.08 311.35"/><path class="cls-36" d="M1853.92,356.37a3.14,3.14,0,1,1,1-4.31A3.13,3.13,0,0,1,1853.92,356.37Z" transform="translate(-0.17 -0.23)"/><path class="cls-8" d="M1845.29,354.33a3.14,3.14,0,1,0,1-4.32A3.14,3.14,0,0,0,1845.29,354.33Z" transform="translate(-0.17 -0.23)"/><polygon class="cls-46" points="1686.04 0 1687.33 25.48 1688.71 25.4 1687.43 0 1686.04 0"/><polygon class="cls-46" points="1714.93 0 1689.75 25.8 1690.75 26.77 1716.88 0 1714.93 0"/><path class="cls-16" d="M1691.32,25.35a3.14,3.14,0,1,1-3.3-3A3.16,3.16,0,0,1,1691.32,25.35Z" transform="translate(-0.17 -0.23)"/><path class="cls-39" d="M1688.29,24.21a3.14,3.14,0,1,0,4.43-.06A3.14,3.14,0,0,0,1688.29,24.21Z" transform="translate(-0.17 -0.23)"/><polygon class="cls-3" points="1795.38 0 1814.4 43.68 1729.01 21.5 1754.55 0 1752.39 0 1726.05 22.17 1816.82 45.74 1796.9 0 1795.38 0"/><polygon class="cls-35" points="1812.9 43.28 1812.55 44.63 1727.83 22.63 1685.87 85.88 1812.56 44.96 1812.99 46.29 1682.51 88.43 1727.23 21.04 1812.9 43.28"/><path class="cls-29" d="M1811.83,42.92a3.14,3.14,0,1,1-2,3.95A3.13,3.13,0,0,1,1811.83,42.92Z" transform="translate(-0.17 -0.23)"/><path class="cls-68" d="M1812,47.19a3.14,3.14,0,1,0-2.24-3.83A3.15,3.15,0,0,0,1812,47.19Z" transform="translate(-0.17 -0.23)"/><polygon class="cls-32" points="1752.39 0 1728.23 20.34 1728.26 0 1726.87 0 1726.83 23.33 1754.55 0 1752.39 0"/><polygon class="cls-39" points="1731.37 17.31 1686.42 85.06 1685.26 84.29 1723.69 26.36 1677.3 69.58 1683.64 84.14 1682.36 84.7 1675.63 69.23 1731.37 17.31"/><path class="cls-27" d="M1686,83.26a3.14,3.14,0,1,1-4.13-1.63A3.13,3.13,0,0,1,1686,83.26Z" transform="translate(-0.17 -0.23)"/><path class="cls-68" d="M1683.48,83a3.14,3.14,0,1,0,4.35-.87A3.14,3.14,0,0,0,1683.48,83Z" transform="translate(-0.17 -0.23)"/><polygon class="cls-42" points="1729.7 20.77 1679.12 67.89 1678.17 66.87 1725.36 22.91 1688.72 29.03 1677.95 66.73 1676.61 66.35 1687.62 27.8 1688.06 27.73 1729.7 20.77"/><path class="cls-5" d="M1680.51,67.48a3.14,3.14,0,1,1-2.15-3.88A3.14,3.14,0,0,1,1680.51,67.48Z" transform="translate(-0.17 -0.23)"/><path class="cls-8" d="M1676.79,65.2a3.14,3.14,0,1,0,4.43.16A3.14,3.14,0,0,0,1676.79,65.2Z" transform="translate(-0.17 -0.23)"/><polygon class="cls-44" points="1726.87 0 1726.84 21.25 1690.15 27.38 1716.88 0 1714.93 0 1686.18 29.45 1728.22 22.43 1728.26 0 1726.87 0"/><polygon class="cls-39" points="1811.48 264.48 1811.49 266.38 1811.9 337.11 1810.51 337.11 1810.11 268.29 1740.35 351.7 1808.16 339.92 1808.4 341.29 1736.85 353.72 1811.48 264.48"/><path class="cls-41" d="M1814.51,337.16a3.14,3.14,0,1,1-3.15-3.12A3.14,3.14,0,0,1,1814.51,337.16Z" transform="translate(-0.17 -0.23)"/><path class="cls-43" d="M1808.84,344a3.14,3.14,0,1,0-3.63-2.56A3.14,3.14,0,0,0,1808.84,344Z" transform="translate(-0.17 -0.23)"/><polygon class="cls-71" points="1813.22 264.57 1741.04 350.87 1739.98 349.98 1808.37 268.2 1705.45 313.01 1737.19 350 1736.13 350.9 1703.16 312.49 1704.03 312.11 1813.22 264.57"/><path class="cls-43" d="M1743.19,352.55a3.14,3.14,0,1,1-.39-4.42A3.14,3.14,0,0,1,1743.19,352.55Z" transform="translate(-0.17 -0.23)"/><path class="cls-70" d="M1734.34,352.6a3.14,3.14,0,1,0,.34-4.42A3.14,3.14,0,0,0,1734.34,352.6Z" transform="translate(-0.17 -0.23)"/><path class="cls-70" d="M1851.21,15.39l-.5,1.61.08,1.69-74,3.42,49.5-14.52.27.09Zm-58.53,4.05,56.67-2.61-23.13-7.22Z" transform="translate(-0.17 -0.23)"/><path class="cls-29" d="M1850.32,13.4a4.35,4.35,0,1,1-4.14,4.54A4.35,4.35,0,0,1,1850.32,13.4Z" transform="translate(-0.17 -0.23)"/><path class="cls-62" d="M1849.42,20.4a4.35,4.35,0,1,0-2.85-5.45A4.36,4.36,0,0,0,1849.42,20.4Z" transform="translate(-0.17 -0.23)"/><polygon class="cls-26" points="1919.08 164.15 1907.94 152.91 1919.08 140.08 1919.08 137.14 1905.31 153 1919.08 166.89 1919.08 164.15"/><polygon class="cls-65" points="1919.08 137.14 1906.95 151.11 1856.45 19.2 1919.08 48.55 1919.08 46.42 1852.94 15.43 1905.72 153.3 1906.3 154.8 1919.08 140.08 1919.08 137.14"/><polygon class="cls-70" points="1854.86 15.04 1855.6 16.97 1906.05 148.75 1904.25 149.44 1854.54 19.59 1784.73 144.95 1902.55 151.76 1902.44 153.68 1781.55 146.69 1854.86 15.04"/><path class="cls-69" d="M1909.3,147.57a4.35,4.35,0,1,1-5.61-2.51A4.35,4.35,0,0,1,1909.3,147.57Z" transform="translate(-0.17 -0.23)"/><path class="cls-56" d="M1902.2,157.28a4.35,4.35,0,1,0-4.09-4.6A4.36,4.36,0,0,0,1902.2,157.28Z" transform="translate(-0.17 -0.23)"/><polygon class="cls-70" points="1850.53 16.54 1850.62 18.46 1785.5 21.47 1784.14 142.03 1851.85 20.45 1853.53 21.39 1782.13 149.61 1783.59 19.63 1784.5 19.58 1850.53 16.54"/><path class="cls-63" d="M1850.32,13.4a4.35,4.35,0,1,1-4.14,4.54A4.35,4.35,0,0,1,1850.32,13.4Z" transform="translate(-0.17 -0.23)"/><path class="cls-66" d="M1856.55,23.46a4.35,4.35,0,1,0-5.91,1.68A4.35,4.35,0,0,0,1856.55,23.46Z" transform="translate(-0.17 -0.23)"/><polygon class="cls-68" points="1453.63 35.97 1502.1 147.07 1481.12 140.52 1481.69 138.68 1498.64 143.97 1456.29 46.9 1477.42 134.13 1475.55 134.58 1451.81 36.59 1453.63 35.97"/><path class="cls-31" d="M1480.84,133.35a4.35,4.35,0,1,1-5.25-3.21A4.36,4.36,0,0,1,1480.84,133.35Z" transform="translate(-0.17 -0.23)"/><path class="cls-53" d="M1483.08,135.74a4.35,4.35,0,1,0,2.86,5.45A4.36,4.36,0,0,0,1483.08,135.74Z" transform="translate(-0.17 -0.23)"/><polygon class="cls-67" points="1908.69 152.11 1794.89 277.99 1793.45 276.69 1904.56 153.8 1784.16 146.85 1792.11 276.22 1790.18 276.34 1782.11 144.8 1783.19 144.86 1908.69 152.11"/><path class="cls-57" d="M1797.71,280.32a4.35,4.35,0,1,1-.31-6.14A4.34,4.34,0,0,1,1797.71,280.32Z" transform="translate(-0.17 -0.23)"/><path class="cls-71" d="M1787,276.56A4.35,4.35,0,1,0,1791,272,4.35,4.35,0,0,0,1787,276.56Z" transform="translate(-0.17 -0.23)"/><polygon class="cls-69" points="1919.08 279.07 1917.51 280.11 1907.79 155.5 1919.08 166.89 1919.08 164.15 1905.46 150.41 1915.84 283.52 1919.08 281.38 1919.08 279.07"/><polygon class="cls-62" points="1756.01 0 1783.37 20.86 1710.6 194.85 1682.98 0 1681.04 0 1709.67 202.06 1785.43 20.92 1785.72 20.23 1759.19 0 1756.01 0"/><polygon class="cls-8" points="1681.04 0 1708.97 197.17 1502.08 144.96 1621.06 0 1618.57 0 1498.66 146.09 1711.29 199.74 1682.98 0 1681.04 0"/><polygon class="cls-41" points="1712.92 197.58 1578.78 297.31 1530.64 196.55 1532.38 195.72 1579.51 294.37 1707.34 199.33 1533.83 193.51 1533.9 191.58 1712.92 197.58"/><path class="cls-37" d="M1534.1,197.13a4.35,4.35,0,1,1,4.5-4.2A4.36,4.36,0,0,1,1534.1,197.13Z" transform="translate(-0.17 -0.23)"/><path class="cls-63" d="M1535.7,194.68a4.35,4.35,0,1,0-2,5.8A4.36,4.36,0,0,0,1535.7,194.68Z" transform="translate(-0.17 -0.23)"/><polygon class="cls-28" points="1719.08 199.72 1533.83 193.51 1533.9 191.58 1701.18 197.19 1502.46 147.04 1528.36 188.39 1526.72 189.41 1498.28 144 1719.08 199.72"/><path class="cls-38" d="M1534.1,197.13a4.35,4.35,0,1,1,4.5-4.2A4.36,4.36,0,0,1,1534.1,197.13Z" transform="translate(-0.17 -0.23)"/><path class="cls-17" d="M1523.91,191.26a4.35,4.35,0,1,0,1.38-6A4.34,4.34,0,0,0,1523.91,191.26Z" transform="translate(-0.17 -0.23)"/><polygon class="cls-15" points="1266.67 0 1304 57.09 1305.62 56.03 1268.97 0 1266.67 0"/><polygon class="cls-15" points="1376.63 0 1309.61 56.61 1310.85 58.09 1379.62 0 1376.63 0"/><path class="cls-43" d="M1313.37,60.76a4.35,4.35,0,1,1,.52-6.13A4.35,4.35,0,0,1,1313.37,60.76Z" transform="translate(-0.17 -0.23)"/><path class="cls-32" d="M1301.22,59a4.35,4.35,0,1,0,1.26-6A4.34,4.34,0,0,0,1301.22,59Z" transform="translate(-0.17 -0.23)"/><polygon class="cls-16" points="1250.36 0 1264.77 43.87 1266.61 43.27 1252.38 0 1250.36 0"/><polygon class="cls-16" points="1266.67 0 1304.79 58.3 1271.21 47.81 1270.64 49.65 1309.35 61.74 1268.97 0 1266.67 0"/><path class="cls-56" d="M1269.93,42.23a4.35,4.35,0,1,1-5.49-2.77A4.35,4.35,0,0,1,1269.93,42.23Z" transform="translate(-0.17 -0.23)"/><path class="cls-58" d="M1272.6,44.87a4.35,4.35,0,1,0,2.86,5.45A4.35,4.35,0,0,0,1272.6,44.87Z" transform="translate(-0.17 -0.23)"/><polygon class="cls-17" points="1014.76 0 1023.67 31.31 1025.53 30.78 1016.77 0 1014.76 0"/><polygon class="cls-17" points="1065.69 0 1028.27 31.61 1029.51 33.09 1068.68 0 1065.69 0"/><path class="cls-18" d="M1028.9,29.87a4.35,4.35,0,1,1-5.38-3A4.37,4.37,0,0,1,1028.9,29.87Z" transform="translate(-0.17 -0.23)"/><path class="cls-19" d="M1026.42,29.12a4.35,4.35,0,1,0,6.13.51A4.35,4.35,0,0,0,1026.42,29.12Z" transform="translate(-0.17 -0.23)"/><polygon class="cls-22" points="1014.76 0 1024.03 32.56 980.07 0 976.83 0 1027.43 37.48 1016.77 0 1014.76 0"/><polygon class="cls-67" points="1430.38 0 1432.36 17.09 1311.54 57.5 1379.62 0 1376.63 0 1309.61 56.61 1310.74 57.95 1311.29 59.62 1434.46 18.42 1432.32 0 1430.38 0"/><path class="cls-4" d="M1312.75,63a4.35,4.35,0,1,1,2.74-5.5A4.36,4.36,0,0,1,1312.75,63Z" transform="translate(-0.17 -0.23)"/><path class="cls-29" d="M1307.76,54.11a4.35,4.35,0,1,0,6.13.52A4.35,4.35,0,0,0,1307.76,54.11Z" transform="translate(-0.17 -0.23)"/><polygon class="cls-31" points="1194.16 0 1173.54 26.48 1175.06 27.66 1196.6 0 1194.16 0"/><polygon class="cls-31" points="1213.87 0 1203.31 26.91 1175.82 29.05 1175.96 30.97 1204.66 28.74 1215.93 0 1213.87 0"/><path class="cls-45" d="M1178,29.8a4.35,4.35,0,1,1-.76-6.1A4.34,4.34,0,0,1,1178,29.8Z" transform="translate(-0.17 -0.23)"/><path class="cls-64" d="M1175.94,25.89a4.35,4.35,0,1,0,4.67,4A4.35,4.35,0,0,0,1175.94,25.89Z" transform="translate(-0.17 -0.23)"/><polygon class="cls-11" points="1194.16 0 1173.67 26.32 1179.63 0 1177.65 0 1171.74 26.09 1173.58 26.51 1175.06 27.66 1196.6 0 1194.16 0"/><path class="cls-64" d="M1178,29.8a4.35,4.35,0,1,1-.76-6.1A4.34,4.34,0,0,1,1178,29.8Z" transform="translate(-0.17 -0.23)"/><path class="cls-5" d="M1168.66,25.36a4.35,4.35,0,1,0,5.2-3.28A4.35,4.35,0,0,0,1168.66,25.36Z" transform="translate(-0.17 -0.23)"/><polygon class="cls-32" points="1028.47 33.97 1068.68 0 1065.69 0 1022.99 36.07 1167.67 31.43 1167.6 29.5 1028.47 33.97"/><polygon class="cls-32" points="1177.65 0 1171.74 26.09 1173.62 26.52 1179.63 0 1177.65 0"/><path class="cls-54" d="M1177.14,27.28a4.35,4.35,0,1,1-3.28-5.2A4.34,4.34,0,0,1,1177.14,27.28Z" transform="translate(-0.17 -0.23)"/><path class="cls-61" d="M1167.73,35.05a4.35,4.35,0,1,0-4.49-4.21A4.36,4.36,0,0,0,1167.73,35.05Z" transform="translate(-0.17 -0.23)"/><polygon class="cls-25" points="1231.87 0 1229.94 0 1227.67 29.83 1262.84 46.59 1263.66 44.85 1229.69 28.66 1231.87 0"/><polygon class="cls-25" points="1250.36 0 1264.77 43.87 1266.61 43.27 1252.38 0 1250.36 0"/><path class="cls-52" d="M1269.93,42.23a4.35,4.35,0,1,1-5.49-2.77A4.35,4.35,0,0,1,1269.93,42.23Z" transform="translate(-0.17 -0.23)"/><path class="cls-34" d="M1261.35,49.78a4.35,4.35,0,1,0-2-5.8A4.35,4.35,0,0,0,1261.35,49.78Z" transform="translate(-0.17 -0.23)"/><polygon class="cls-11" points="1229.93 0 1228.03 25.05 1229.95 25.2 1231.87 0 1229.93 0"/><polygon class="cls-11" points="1215.94 0 1213.87 0 1202.6 28.7 1224.5 29.97 1224.61 28.05 1205.36 26.94 1215.94 0"/><path class="cls-37" d="M1233.52,25.47a4.35,4.35,0,1,1-4-4.67A4.36,4.36,0,0,1,1233.52,25.47Z" transform="translate(-0.17 -0.23)"/><path class="cls-13" d="M1224.26,33.57a4.35,4.35,0,1,0-4.1-4.59A4.35,4.35,0,0,0,1224.26,33.57Z" transform="translate(-0.17 -0.23)"/><polygon class="cls-25" points="1919.08 282.3 1914.25 278.99 1919.08 289.09 1919.08 282.3"/><polygon class="cls-9" points="1709.55 197.68 1710.82 199.12 1602.04 312.14 1600.65 310.8 1701.36 206.18 1580.64 295.93 1596.17 310.89 1594.84 312.27 1577.66 295.74 1578.57 295.06 1709.55 197.68"/><path class="cls-53" d="M1604.8,314.56a4.35,4.35,0,1,1-.12-6.15A4.36,4.36,0,0,1,1604.8,314.56Z" transform="translate(-0.17 -0.23)"/><path class="cls-41" d="M1592.5,314.79a4.35,4.35,0,1,0-.12-6.15A4.35,4.35,0,0,0,1592.5,314.79Z" transform="translate(-0.17 -0.23)"/><polygon class="cls-5" points="1500.08 143.24 1528.36 188.39 1526.72 189.41 1500.67 147.81 1492.6 173.65 1526.41 189.76 1525.59 191.5 1490.26 174.67 1500.08 143.24"/><path class="cls-67" d="M1531.28,186.64a4.35,4.35,0,1,1-6-1.38A4.33,4.33,0,0,1,1531.28,186.64Z" transform="translate(-0.17 -0.23)"/><path class="cls-31" d="M1524.11,194.69a4.35,4.35,0,1,0-2.06-5.8A4.35,4.35,0,0,0,1524.11,194.69Z" transform="translate(-0.17 -0.23)"/><polygon class="cls-50" points="1501.58 144.89 1493.58 170.5 1491.74 169.93 1499.16 146.16 1479.09 139.89 1490.83 169.96 1489.03 170.66 1475.84 136.85 1501.58 144.89"/><path class="cls-51" d="M1497.05,171.53a4.35,4.35,0,1,1-2.86-5.45A4.36,4.36,0,0,1,1497.05,171.53Z" transform="translate(-0.17 -0.23)"/><path class="cls-53" d="M1486,171.92a4.35,4.35,0,1,0,2.47-5.64A4.35,4.35,0,0,0,1486,171.92Z" transform="translate(-0.17 -0.23)"/><polygon class="cls-68" points="1618.57 0 1503.82 139.8 1562.54 0 1560.45 0 1496.92 151.24 1621.06 0 1618.57 0"/><polygon class="cls-4" points="1560.45 0 1501.09 141.34 1502.86 142.08 1562.54 0 1560.45 0"/><polygon class="cls-4" points="1496.86 0 1493.89 0 1452.12 35.63 1451.58 36.09 1497.84 142.13 1499.6 141.35 1453.91 36.63 1496.86 0"/><path class="cls-70" d="M1502.79,140a4.35,4.35,0,1,1-5.73-2.24A4.35,4.35,0,0,1,1502.79,140Z" transform="translate(-0.17 -0.23)"/><path class="cls-66" d="M1498.22,140.06a4.35,4.35,0,1,0,5.69-2.33A4.35,4.35,0,0,0,1498.22,140.06Z" transform="translate(-0.17 -0.23)"/><polygon class="cls-9" points="1852.38 0 1853.63 15.97 1827.21 7.72 1829.07 0 1827.09 0 1825.13 8.14 1824.92 9.02 1855.77 18.66 1854.32 0 1852.38 0"/><polygon class="cls-33" points="1827.09 0 1825.26 7.6 1786.71 18.91 1798.57 0 1796.29 0 1782.38 22.19 1826.34 9.29 1826.87 9.14 1829.07 0 1827.09 0"/><polygon class="cls-25" points="1796.29 0 1784.29 19.14 1759.19 0 1756.01 0 1783.96 21.31 1784.8 21.95 1798.56 0 1796.29 0"/><polygon class="cls-43" points="1919.08 358.46 1834.21 312.08 1916.18 283.01 1919.08 289.09 1919.08 284.62 1917.17 280.61 1829.5 311.71 1919.08 360.65 1919.08 358.46"/><polygon class="cls-31" points="1478.1 137.34 1490.83 169.96 1489.03 170.66 1476.83 139.4 1435.29 143.66 1488.22 171.39 1487.32 173.1 1428.72 142.4 1478.1 137.34"/><path class="cls-4" d="M1494.07,168.75a4.35,4.35,0,1,1-5.63-2.47A4.36,4.36,0,0,1,1494.07,168.75Z" transform="translate(-0.17 -0.23)"/><path class="cls-21" d="M1485.73,176.22a4.35,4.35,0,1,0-1.84-5.87A4.34,4.34,0,0,0,1485.73,176.22Z" transform="translate(-0.17 -0.23)"/><polygon class="cls-67" points="1452.64 31.84 1478.66 139.22 1436.21 143.57 1436.02 141.65 1476.27 137.52 1452.85 40.88 1433.74 139.16 1431.85 138.79 1452.64 31.84"/><path class="cls-56" d="M1437,147.14a4.35,4.35,0,1,1,3.88-4.77A4.34,4.34,0,0,1,1437,147.14Z" transform="translate(-0.17 -0.23)"/><path class="cls-69" d="M1428.74,138.16a4.35,4.35,0,1,0,5.1-3.44A4.35,4.35,0,0,0,1428.74,138.16Z" transform="translate(-0.17 -0.23)"/><path class="cls-68" d="M1432.65,15.74,1454,36.26l-.1.51-19.95,102.62-1.32-.26-1.33,0Zm19.22,21.18-17.35-16.7-1.26,112.42Z" transform="translate(-0.17 -0.23)"/><path class="cls-23" d="M1437.28,139.82a4.35,4.35,0,1,1-3.44-5.1A4.35,4.35,0,0,1,1437.28,139.82Z" transform="translate(-0.17 -0.23)"/><path class="cls-42" d="M1427.88,138.86a4.35,4.35,0,1,0,4.4-4.3A4.35,4.35,0,0,0,1427.88,138.86Z" transform="translate(-0.17 -0.23)"/><polygon class="cls-55" points="1434.39 16.41 1433.02 138.91 1431.09 138.89 1432.43 19.1 1309.25 60.3 1429.1 139.94 1428.03 141.55 1304.89 59.73 1434.39 16.41"/><path class="cls-5" d="M1436.58,139a4.35,4.35,0,1,1-4.3-4.4A4.35,4.35,0,0,1,1436.58,139Z" transform="translate(-0.17 -0.23)"/><path class="cls-30" d="M1426.15,144.48a4.35,4.35,0,1,0-1.22-6A4.36,4.36,0,0,0,1426.15,144.48Z" transform="translate(-0.17 -0.23)"/><polygon class="cls-12" points="1746.65 173.86 1792.71 281.02 1754.12 292.35 1753.58 290.49 1790.08 279.78 1748.77 183.66 1750.76 288.43 1748.84 288.47 1746.65 173.86"/><path class="cls-13" d="M1754.32,288.38a4.35,4.35,0,1,1-4.43-4.27A4.35,4.35,0,0,1,1754.32,288.38Z" transform="translate(-0.17 -0.23)"/><path class="cls-48" d="M1753,287.41a4.35,4.35,0,1,0,5.4,2.95A4.36,4.36,0,0,0,1753,287.41Z" transform="translate(-0.17 -0.23)"/><path class="cls-24" d="M1784.15,144l8.13,132.49-1.67.1-1.56.67-42.32-98.47.5-.47Zm6.12,131.2-7.8-127L1749,179.23Z" transform="translate(-0.17 -0.23)"/><path class="cls-65" d="M1795.64,276A4.35,4.35,0,1,1,1791,272,4.34,4.34,0,0,1,1795.64,276Z" transform="translate(-0.17 -0.23)"/><path class="cls-22" d="M1785.86,278.35a4.35,4.35,0,1,0,2.27-5.71A4.34,4.34,0,0,0,1785.86,278.35Z" transform="translate(-0.17 -0.23)"/><path class="cls-65" d="M1748.82,177.41l2.12,111.25-1.76,0-1.63.69-38.48-91.14Zm.17,110.42-2-107.26-35.41,18.56Z" transform="translate(-0.17 -0.23)"/><path class="cls-69" d="M1752.37,287.11a4.35,4.35,0,1,1-5.7-2.31A4.36,4.36,0,0,1,1752.37,287.11Z" transform="translate(-0.17 -0.23)"/><path class="cls-16" d="M1745.62,288.54a4.35,4.35,0,1,0,4.27-4.43A4.35,4.35,0,0,0,1745.62,288.54Z" transform="translate(-0.17 -0.23)"/><polygon class="cls-31" points="1785.61 11.73 1784.15 141.7 1782.22 141.68 1783.48 29.37 1749.37 175.91 1779.45 147.93 1780.77 149.34 1746.06 181.62 1785.61 11.73"/><path class="cls-35" d="M1787.71,141.75a4.35,4.35,0,1,1-4.3-4.4A4.35,4.35,0,0,1,1787.71,141.75Z" transform="translate(-0.17 -0.23)"/><path class="cls-36" d="M1783.09,152.2a4.35,4.35,0,1,0-6.15-.22A4.37,4.37,0,0,0,1783.09,152.2Z" transform="translate(-0.17 -0.23)"/><path class="cls-13" d="M1784.72,25l-36,154.62-40.34,21.14,1-2.47,72.82-174.09,1.21.5ZM1747,178.34l34.13-146.59-69,164.84Z" transform="translate(-0.17 -0.23)"/><path class="cls-60" d="M1779,23.11a4.35,4.35,0,1,1,2.34,5.69A4.35,4.35,0,0,1,1779,23.11Z" transform="translate(-0.17 -0.23)"/><path class="cls-36" d="M1788,26a4.35,4.35,0,1,0-5.23,3.25A4.35,4.35,0,0,0,1788,26Z" transform="translate(-0.17 -0.23)"/><polygon class="cls-56" points="1907.38 150.26 1917.71 282.69 1916.76 282.77 1810.99 292.1 1810.82 290.17 1915.64 280.94 1905.87 155.66 1809.99 288.71 1808.42 287.58 1907.38 150.26"/><path class="cls-14" d="M1811.68,295.68a4.35,4.35,0,1,1,4-4.72A4.35,4.35,0,0,1,1811.68,295.68Z" transform="translate(-0.17 -0.23)"/><path class="cls-33" d="M1806,285.65a4.35,4.35,0,1,0,6.07-1A4.35,4.35,0,0,0,1806,285.65Z" transform="translate(-0.17 -0.23)"/><polygon class="cls-72" points="1919.08 280.63 1810.82 290.17 1810.99 292.1 1909.2 283.44 1832.04 310.8 1810.61 293.36 1809.38 294.85 1831.66 312.98 1919.08 281.98 1919.08 280.63"/><path class="cls-29" d="M1811.68,295.68a4.35,4.35,0,1,1,4-4.72A4.35,4.35,0,0,1,1811.68,295.68Z" transform="translate(-0.17 -0.23)"/><path class="cls-15" d="M1813.08,291.1a4.35,4.35,0,1,0,.63,6.12A4.34,4.34,0,0,0,1813.08,291.1Z" transform="translate(-0.17 -0.23)"/><polygon class="cls-35" points="1905.91 152.31 1907.41 153.52 1809.99 288.71 1808.42 287.58 1895.66 166.52 1792.83 280.25 1804 288.3 1802.88 289.86 1789.96 280.56 1790.68 279.76 1905.91 152.31"/><path class="cls-36" d="M1813,290.74a4.35,4.35,0,1,1-1-6.07A4.35,4.35,0,0,1,1813,290.74Z" transform="translate(-0.17 -0.23)"/><path class="cls-8" d="M1800.89,292.71a4.35,4.35,0,1,0-1-6.07A4.35,4.35,0,0,0,1800.89,292.71Z" transform="translate(-0.17 -0.23)"/><polygon class="cls-35" points="1493.89 0 1454.22 33.84 1460.8 0 1458.83 0 1451.27 38.88 1496.86 0 1493.89 0"/><polygon class="cls-39" points="1442.55 0 1440.43 0 1432.25 17.97 1449.1 34.19 1450.43 32.8 1434.57 17.53 1442.55 0"/><polygon class="cls-39" points="1458.84 0 1452.59 32.12 1454.48 32.49 1460.8 0 1458.84 0"/><path class="cls-27" d="M1452.8,30.44a4.35,4.35,0,1,1-6.15.12A4.36,4.36,0,0,1,1452.8,30.44Z" transform="translate(-0.17 -0.23)"/><path class="cls-68" d="M1449.48,31.49a4.35,4.35,0,1,0,5.1-3.44A4.35,4.35,0,0,0,1449.48,31.49Z" transform="translate(-0.17 -0.23)"/><polygon class="cls-42" points="1440.43 0 1434.24 13.59 1436 14.39 1442.55 0 1440.43 0"/><polygon class="cls-42" points="1430.38 0 1431.98 13.76 1433.9 13.54 1432.32 0 1430.38 0"/><path class="cls-5" d="M1437.4,13.16a4.35,4.35,0,1,1-4.82-3.82A4.34,4.34,0,0,1,1437.4,13.16Z" transform="translate(-0.17 -0.23)"/><path class="cls-8" d="M1431.43,12.22a4.35,4.35,0,1,0,5.76-2.16A4.34,4.34,0,0,0,1431.43,12.22Z" transform="translate(-0.17 -0.23)"/><polygon class="cls-39" points="1710 195.65 1711.02 198.08 1749.16 288.4 1747.38 289.15 1710.26 201.25 1665.33 345.14 1745.88 293.99 1746.91 295.61 1661.93 349.58 1710 195.65"/><path class="cls-41" d="M1752.37,287.11a4.35,4.35,0,1,1-5.7-2.31A4.36,4.36,0,0,1,1752.37,287.11Z" transform="translate(-0.17 -0.23)"/><path class="cls-43" d="M1748.71,298.82a4.35,4.35,0,1,0-6-1.35A4.35,4.35,0,0,0,1748.71,298.82Z" transform="translate(-0.17 -0.23)"/><polygon class="cls-71" points="1712.27 194.84 1665.78 343.71 1663.94 343.13 1707.99 202.07 1600.08 314.17 1660.38 344.64 1659.51 346.36 1596.88 314.72 1597.79 313.78 1712.27 194.84"/><path class="cls-43" d="M1669.25,344.74a4.35,4.35,0,1,1-2.86-5.45A4.35,4.35,0,0,1,1669.25,344.74Z" transform="translate(-0.17 -0.23)"/><path class="cls-70" d="M1658,349.51a4.35,4.35,0,1,0-1.92-5.84A4.33,4.33,0,0,0,1658,349.51Z" transform="translate(-0.17 -0.23)"/><polygon class="cls-5" points="1861.12 0 1859.1 0 1853.53 17.83 1919.08 48.55 1919.08 46.42 1855.87 16.8 1861.12 0"/><polygon class="cls-36" points="1859.1 0 1855.27 12.25 1854.32 0 1852.38 0 1854.13 22.38 1861.12 0 1859.1 0"/></g></g></svg>