<svg id="Layer_1" data-name="Layer 1" xmlns="http://www.w3.org/2000/svg" xmlns:xlink="http://www.w3.org/1999/xlink" viewBox="0 0 665.65 451"><defs><style>.cls-1{fill:none;}.cls-2{fill:#009A96;}.cls-3{clip-path:url(#clip-path);}.cls-4{fill:#b8b8b8;}</style><clipPath id="clip-path" transform="translate(24.4 29.78)"><rect class="cls-1" width="504" height="288"/></clipPath></defs><rect class="cls-1" x="24.4" y="29.78" width="504" height="288"/><path class="cls-2" d="M111,279.39a1.28,1.28,0,1,1-1.28-1.27A1.28,1.28,0,0,1,111,279.39Z" transform="translate(24.4 29.78)"/><g class="cls-3"><path class="cls-4" d="M-4.74,320.17l-.07,0a.13.13,0,0,1,0-.16l26.26-58.46a.13.13,0,0,1,.1-.08.13.13,0,0,1,.12.06h0s0,0,0,0l4.68,27.56a.15.15,0,0,1,0,.11l-30.94,30.9A.12.12,0,0,1-4.74,320.17ZM21.47,262-4.35,319.47,26.07,289.1Z" transform="translate(24.4 29.78)"/><path class="cls-4" d="M-4.74,320.17a.11.11,0,0,1-.08,0l-18.38-16a.11.11,0,0,1-.05-.09.15.15,0,0,1,0-.09l44.62-42.45a.17.17,0,0,1,.1-.06.13.13,0,0,1,.12.06h0a.12.12,0,0,1,0,.14L-4.63,320.09a.09.09,0,0,1-.08.07Zm-18.2-16.12,18.15,15.79,25.93-57.72Z" transform="translate(24.4 29.78)"/><path class="cls-4" d="M45.67,290.09h0l-19.47-.82a.11.11,0,0,1-.1-.06.11.11,0,0,1,0-.11l13.65-39.32a.13.13,0,0,1,0-.09.13.13,0,0,1,.12,0,.13.13,0,0,1,.08.12L45.8,290a.14.14,0,0,1,0,.1A.13.13,0,0,1,45.67,290.09ZM26.38,289l19.15.8-5.71-39.51Z" transform="translate(24.4 29.78)"/><path class="cls-4" d="M45.67,290.09a.11.11,0,0,1-.08,0,.13.13,0,0,1,0-.18l40.58-49a.14.14,0,0,1,.14-.06.14.14,0,0,1,.1.12.11.11,0,0,1,0,.08l-7.92,16,0,0-32.67,33A.11.11,0,0,1,45.67,290.09Zm40-48.23-38.12,46,30.67-31Z" transform="translate(24.4 29.78)"/><path class="cls-4" d="M45.67,290.09h0a.11.11,0,0,1-.09-.1l-5.81-40.17a.12.12,0,0,1,.1-.14l46.41-8.85a.1.1,0,0,1,.1,0,.12.12,0,0,1,.05.09.32.32,0,0,1,0,.09l-40.6,49A.14.14,0,0,1,45.67,290.09ZM40,249.89l5.75,39.78L86,241.13Z" transform="translate(24.4 29.78)"/><path class="cls-4" d="M121.93,238.76a.14.14,0,0,1-.1,0,.16.16,0,0,1,0-.12l13.71-38.9a.12.12,0,0,1,.08-.09.11.11,0,0,1,.13,0l31,33.63a.11.11,0,0,1,0,.12.12.12,0,0,1-.1.09L122,238.76ZM135.69,200l-13.57,38.53,44.26-5.23Z" transform="translate(24.4 29.78)"/><path class="cls-4" d="M166.64,233.47h0a.13.13,0,0,1-.09-.13l7-60.31a.13.13,0,0,1,.07-.12.13.13,0,0,1,.16,0s0,0,0,0l12.86,27.9a.17.17,0,0,1,0,.12l-19.84,32.43A.13.13,0,0,1,166.64,233.47Zm7.05-60-6.86,59.32,19.5-31.88Z" transform="translate(24.4 29.78)"/><path class="cls-4" d="M166.64,233.47a.18.18,0,0,1-.1,0l-31-33.63a.12.12,0,0,1,0-.1.11.11,0,0,1,0-.09l38-26.7a.1.1,0,0,1,.09,0,.1.1,0,0,1,.08.05.1.1,0,0,1,0,.09l-7,60.33a.15.15,0,0,1-.09.1Zm-30.81-33.74,30.71,33.33,6.92-59.79Z" transform="translate(24.4 29.78)"/><path class="cls-4" d="M221.19,183.38a.15.15,0,0,1-.09,0,.11.11,0,0,1,0-.11l11-52.64a.12.12,0,0,1,.22-.08l0,0,35.47,46.28a.13.13,0,0,1,0,.12.16.16,0,0,1-.1.08l-46.47,6.37Zm11.05-52.5L221.35,183.1l46.08-6.31Z" transform="translate(24.4 29.78)"/><path class="cls-4" d="M267.66,177h0a.14.14,0,0,1-.11-.09l-13.7-49.42a.18.18,0,0,1,0-.1.1.1,0,0,1,.08-.05h0a.19.19,0,0,1,.1,0l26.7,21.69a.12.12,0,0,1,0,.15l-13,27.73A.15.15,0,0,1,267.66,177Zm-13.47-49.2,13.5,48.71,12.83-27.33Z" transform="translate(24.4 29.78)"/><path class="cls-4" d="M267.66,177a.14.14,0,0,1-.1,0l-35.49-46.3a.13.13,0,0,1,0-.12.12.12,0,0,1,.1-.08L254,127.34a.14.14,0,0,1,.14.11h0l13.69,49.39a.11.11,0,0,1-.06.14ZM232.4,130.68l35,45.62-13.5-48.69Z" transform="translate(24.4 29.78)"/><path class="cls-4" d="M280.67,149.28a.11.11,0,0,1-.09,0,.11.11,0,0,1,0-.11L292,101.93a.14.14,0,0,1,.15-.1.11.11,0,0,1,.09.08l23.19,42.33a.13.13,0,0,1-.09.19l-34.67,4.85Zm11.52-47L280.84,149l34.3-4.8Z" transform="translate(24.4 29.78)"/><path class="cls-4" d="M315.34,144.43a.11.11,0,0,1-.08,0,.11.11,0,0,1,0-.15l25.54-49.62a.13.13,0,0,1,.06-.07.12.12,0,0,1,.14,0l17.62,15.6a.13.13,0,0,1,0,.1.11.11,0,0,1-.05.09l-43.16,34A.13.13,0,0,1,315.34,144.43Zm25.59-49.56-25.22,49,42.6-33.58Z" transform="translate(24.4 29.78)"/><path class="cls-4" d="M315.34,144.43a.12.12,0,0,1-.11-.07L292,102a.17.17,0,0,1,0-.12.14.14,0,0,1,.1-.07l48.74-7.28a.1.1,0,0,1,.09,0,.1.1,0,0,1,.05.08.11.11,0,0,1,0,.08l-25.55,49.63a.12.12,0,0,1-.11.07Zm-23-42.38,23,42,25.33-49.21Z" transform="translate(24.4 29.78)"/><path class="cls-4" d="M358.51,110.4a.13.13,0,0,1-.13-.11l-4.49-46.38a.15.15,0,0,1,.05-.12.12.12,0,0,1,.17,0v0l30.53,44.35a.2.2,0,0,1,0,.13.12.12,0,0,1-.11.07l-26,2Zm-4.32-46,4.43,45.78,25.7-2Z" transform="translate(24.4 29.78)"/><path class="cls-4" d="M358.51,110.4a.16.16,0,0,1-.09,0L340.81,94.76a.12.12,0,0,1,0-.14L353.9,63.84a.14.14,0,0,1,.09-.08.16.16,0,0,1,.12,0,.11.11,0,0,1,0,.08l4.49,46.38a.13.13,0,0,1-.07.13ZM341,94.64,358.35,110l-4.41-45.58Z" transform="translate(24.4 29.78)"/><path class="cls-4" d="M384.54,108.37h0a.11.11,0,0,1-.09-.11l.35-61.64a.18.18,0,0,1,0-.1.17.17,0,0,1,.1,0h0a.21.21,0,0,1,.1.06l20.53,31.07a.14.14,0,0,1,0,.14l-20.88,30.57A.16.16,0,0,1,384.54,108.37ZM385,47l-.35,60.83,20.61-30.16Z" transform="translate(24.4 29.78)"/><path class="cls-4" d="M384.54,108.37a.12.12,0,0,1-.1-.05L353.91,64a.12.12,0,0,1,0-.1s0-.06.06-.08l30.85-17.27a.17.17,0,0,1,.1,0h0a.13.13,0,0,1,.11.1.06.06,0,0,1,0,.06l-.35,61.61a.14.14,0,0,1-.09.12ZM354.2,63.93l30.22,43.92.35-61Z" transform="translate(24.4 29.78)"/><path class="cls-4" d="M430.3,62.19a.13.13,0,0,1-.1-.2L467.29,4.44a.13.13,0,0,1,.17,0,.14.14,0,0,1,.06.12l4,39a.15.15,0,0,1-.07.13l-41.1,18.51Zm37-57.31L430.64,61.77l40.62-18.3Z" transform="translate(24.4 29.78)"/><path class="cls-4" d="M471.39,43.68l-.06,0a.14.14,0,0,1-.06-.12L475.68-8a.13.13,0,0,1,.11-.11.12.12,0,0,1,.14.09h0L491.7,32.09a.13.13,0,0,1-.05.16L471.46,43.66Zm4.5-51.15-4.35,50.8,19.89-11.24Z" transform="translate(24.4 29.78)"/><path class="cls-4" d="M471.39,43.68a.13.13,0,0,1-.12-.12l-4-39a.09.09,0,0,1,0-.08l8.4-12.5a.13.13,0,0,1,.1-.08.12.12,0,0,1,.14.09h0V-8l-4.41,51.54a.13.13,0,0,1-.12.12ZM467.52,4.54l3.86,37.68,4.26-49.76Z" transform="translate(24.4 29.78)"/><path class="cls-4" d="M491.59,32.27a.13.13,0,0,1-.08,0,.11.11,0,0,1,0-.12L501.72-19.6a.15.15,0,0,1,.09-.1.11.11,0,0,1,.12,0h0l24.42,34.24a.18.18,0,0,1,0,.1.11.11,0,0,1-.07.08L491.64,32.25Zm10.32-51.54L491.76,31.91l34.31-17.3Z" transform="translate(24.4 29.78)"/><path class="cls-4" d="M491.59,32.27a.15.15,0,0,1-.12-.08L475.69-8a.14.14,0,0,1,.07-.16l26-11.54,0,0a.11.11,0,0,1,.12,0h0a.11.11,0,0,1,0,.11,0,0,0,0,1,0,0L491.71,32.17a.14.14,0,0,1-.11.1ZM476-7.95,491.55,31.7l10.13-51.06Z" transform="translate(24.4 29.78)"/><path class="cls-4" d="M526.25,14.78a.09.09,0,0,1-.08,0,.12.12,0,0,1,0-.16l28.21-42.46a.14.14,0,0,1,.11-.05h0l23.3,2.55a.11.11,0,0,1,.11.09.12.12,0,0,1,0,.13L526.33,14.75A.11.11,0,0,1,526.25,14.78Zm28.28-42.45L526.78,14.09l50.69-39.26Z" transform="translate(24.4 29.78)"/><path class="cls-4" d="M526.25,14.78a.12.12,0,0,1-.1-.06L501.75-19.5a.13.13,0,0,1,0-.12.16.16,0,0,1,.1-.08l52.59-8.22h.05a.14.14,0,0,1,.1.05h0a.13.13,0,0,1,0,.12.05.05,0,0,1,0,0l-28.2,42.44a.11.11,0,0,1-.1.06ZM502.07-19.48l24.18,33.91,28-42.07Z" transform="translate(24.4 29.78)"/><path class="cls-4" d="M35.59,330.32a.11.11,0,0,1-.08,0,.14.14,0,0,1,0-.12l10.08-40.23a.08.08,0,0,1,0-.05h0a.14.14,0,0,1,.16,0L90,312.08a.14.14,0,0,1,.07.12.14.14,0,0,1-.09.11l-54.34,18Zm10.16-40.17L35.77,330l53.84-17.84Z" transform="translate(24.4 29.78)"/><path class="cls-4" d="M35.59,330.32h0a.13.13,0,0,1-.12-.09l-9.39-41.06a.11.11,0,0,1,0-.11.12.12,0,0,1,.1,0l19.47.82a.12.12,0,0,1,.1.07.12.12,0,0,1,0,.1L35.71,330.23A.11.11,0,0,1,35.59,330.32Zm-9.23-41,9.24,40.38,9.91-39.58Z" transform="translate(24.4 29.78)"/><path class="cls-4" d="M89.93,312.32h0a.12.12,0,0,1-.09-.09L78.21,257a.12.12,0,0,1,.08-.14.13.13,0,0,1,.13,0L118.8,285.7a.12.12,0,0,1,0,.09.12.12,0,0,1,0,.1L90,312.28A.12.12,0,0,1,89.93,312.32ZM78.52,257.27,90,312l28.52-26.14Z" transform="translate(24.4 29.78)"/><path class="cls-4" d="M89.93,312.32l-.05,0L45.62,290.08a.12.12,0,0,1-.07-.1.09.09,0,0,1,0-.1l32.65-33,.06,0a.11.11,0,0,1,.15,0h0a.14.14,0,0,1,0,.06l11.6,55.2a.12.12,0,0,1,0,.12A.11.11,0,0,1,89.93,312.32ZM45.88,289.93l43.88,22-11.5-54.72Z" transform="translate(24.4 29.78)"/><path class="cls-4" d="M118.73,285.93a.11.11,0,0,1-.08,0,.14.14,0,0,1-.05-.11l3.21-47.17a.1.1,0,0,1,.08-.1.13.13,0,0,1,.13,0h0l30.42,34.73a.14.14,0,0,1,0,.11.12.12,0,0,1-.08.09l-33.61,12.45Zm3.31-47-3.18,46.68,33.27-12.32Z" transform="translate(24.4 29.78)"/><path class="cls-4" d="M118.73,285.93a.11.11,0,0,1-.08,0L78.26,257.08a.14.14,0,0,1-.05-.11.12.12,0,0,1,.08-.1l43.58-18.35h0a.13.13,0,0,1,.13,0h0a.11.11,0,0,1,0,.11l-3.2,47.16a.11.11,0,0,1-.07.1ZM78.59,257l40,28.56,3.17-46.74Z" transform="translate(24.4 29.78)"/><path class="cls-4" d="M152.34,273.48a.15.15,0,0,1-.09,0,.16.16,0,0,1,0-.13l14.29-40a.12.12,0,0,1,.11-.08h0a.12.12,0,0,1,.14.1L172,269.38a.12.12,0,0,1-.09.14l-19.53,4Zm14.24-39.63-14.05,39.34,19.2-3.89Z" transform="translate(24.4 29.78)"/><path class="cls-4" d="M152.34,273.48a.15.15,0,0,1-.09,0l-30.41-34.72a.16.16,0,0,1,0-.13.12.12,0,0,1,.11-.08l44.69-5.29h0a.12.12,0,0,1,.14.11.11.11,0,0,1,0,.08l-14.28,40a.14.14,0,0,1-.1.08Zm-30.16-34.75,30.12,34.38,14.15-39.62Z" transform="translate(24.4 29.78)"/><path class="cls-4" d="M171.87,269.53a.11.11,0,0,1-.07,0,.13.13,0,0,1-.05-.13l14.6-68.47a.06.06,0,0,1,0,0,.13.13,0,0,1,.24,0l12.44,51a.11.11,0,0,1,0,.13l-27.05,17.5Zm14.61-68-14.42,67.65,26.72-17.28Z" transform="translate(24.4 29.78)"/><path class="cls-4" d="M171.87,269.53h0a.14.14,0,0,1-.12-.11l-5.24-36.06a.11.11,0,0,1,0-.08l19.84-32.43a.11.11,0,0,1,.15,0,.11.11,0,0,1,.07.14L172,269.43A.13.13,0,0,1,171.87,269.53Zm-5.1-36.16,5.12,35.32L186.2,201.6Z" transform="translate(24.4 29.78)"/><path class="cls-4" d="M198.92,252a.1.1,0,0,1-.07,0,.13.13,0,0,1,0-.14l22.27-68.66a.12.12,0,0,1,.12-.08.12.12,0,0,1,.12.09h0l16.09,42.5a.13.13,0,0,1,0,.15L199,252A.08.08,0,0,1,198.92,252Zm22.28-68.4-22,68,38-25.89Z" transform="translate(24.4 29.78)"/><path class="cls-4" d="M198.92,252h0a.12.12,0,0,1-.12-.09l-12.45-51a.13.13,0,0,1,.07-.14l34.69-17.65a.13.13,0,0,1,.08,0,.12.12,0,0,1,.12.09h0a.1.1,0,0,1,0,.09L199,252A.12.12,0,0,1,198.92,252ZM186.62,201l12.32,50.47,22-67.95Z" transform="translate(24.4 29.78)"/><path class="cls-4" d="M237.29,225.89a.13.13,0,0,1-.08,0,.12.12,0,0,1,0-.16l30.37-48.89a.13.13,0,0,1,.16,0h0a.12.12,0,0,1,.06.14l-3.46,17.16a.08.08,0,0,1,0,.05l-26.92,31.72A.12.12,0,0,1,237.29,225.89Zm30.11-48.37-29.11,46.87L264.08,194Z" transform="translate(24.4 29.78)"/><path class="cls-4" d="M237.29,225.89h0a.15.15,0,0,1-.11-.08l-16.1-42.51a.14.14,0,0,1,0-.11.13.13,0,0,1,.09-.06l46.45-6.37a.1.1,0,0,1,.09,0h0a.14.14,0,0,1,.07.13s0,.06,0,.07l-30.36,48.86A.11.11,0,0,1,237.29,225.89Zm-15.93-42.54,15.95,42.13L267.41,177Z" transform="translate(24.4 29.78)"/><path class="cls-4" d="M264.2,194.17a.11.11,0,0,1-.08,0,.15.15,0,0,1,0-.14l16.47-44.87a.13.13,0,0,1,.07-.09.14.14,0,0,1,.14,0,.15.15,0,0,1,0,.11l.62,35.6a.12.12,0,0,1-.07.11l-17.09,9.27Zm16.36-44.34-16.13,43.94,16.74-9.08Z" transform="translate(24.4 29.78)"/><path class="cls-4" d="M264.2,194.17h0a.12.12,0,0,1-.09-.14l3.46-17.16,13-27.76a.17.17,0,0,1,.06-.06.14.14,0,0,1,.14,0,.12.12,0,0,1,0,.14l-16.47,44.88A.14.14,0,0,1,264.2,194.17Zm15.37-42.37-11.79,25.14-3.13,15.53Z" transform="translate(24.4 29.78)"/><path class="cls-4" d="M281.3,184.89a.13.13,0,0,1-.11,0,.12.12,0,0,1,0-.15l34-40.44,0,0a.12.12,0,0,1,.15,0l23.87,15.57a.14.14,0,0,1,.06.12.16.16,0,0,1-.08.1l-57.92,24.89Zm34.07-40.42-33.64,40L339,159.85Z" transform="translate(24.4 29.78)"/><path class="cls-4" d="M281.3,184.89h-.05a.13.13,0,0,1-.08-.12l-.62-35.61a.12.12,0,0,1,.11-.13l34.66-4.85a.15.15,0,0,1,.14.09.17.17,0,0,1,0,.12l-34.05,40.46A.11.11,0,0,1,281.3,184.89Zm-.5-35.63.61,35.17,33.63-40Z" transform="translate(24.4 29.78)"/><path class="cls-4" d="M339.21,160a.13.13,0,0,1-.08,0,.12.12,0,0,1,0-.14l19.29-49.6,0,0h0a.17.17,0,0,1,.12,0,.2.2,0,0,1,.09.09l9.51,31.88a.11.11,0,0,1-.05.14L339.28,160A.08.08,0,0,1,339.21,160Zm19.28-49.34-19,48.92,28.42-17.48Z" transform="translate(24.4 29.78)"/><path class="cls-4" d="M339.21,160a.1.1,0,0,1-.07,0l-23.87-15.57a.17.17,0,0,1-.06-.1.12.12,0,0,1,.05-.1l43.17-34a.12.12,0,0,1,.17,0,.14.14,0,0,1,0,.14l-19.29,49.59s0,.06-.08.08Zm-23.66-15.71,23.6,15.4,19.07-49Z" transform="translate(24.4 29.78)"/><path class="cls-4" d="M368,142.28a.13.13,0,0,1-.08,0,.14.14,0,0,1,0-.15l16.52-33.91a.13.13,0,0,1,.23,0l9.12,15.86a.13.13,0,0,1,0,.16l-25.64,18A.12.12,0,0,1,368,142.28Zm16.53-33.77-16.2,33.27,25.15-17.7Z" transform="translate(24.4 29.78)"/><path class="cls-4" d="M368,142.28h0a.13.13,0,0,1-.11-.09l-9.51-31.88a.14.14,0,0,1,0-.11.12.12,0,0,1,.1,0l26-2a.08.08,0,0,1,.08,0,.11.11,0,0,1,.07.15h0s0,0,0,0l-16.51,33.9A.13.13,0,0,1,368,142.28Zm-9.35-31.89,9.38,31.42,16.28-33.42Z" transform="translate(24.4 29.78)"/><path class="cls-4" d="M393.67,124.25a.19.19,0,0,1-.08,0,.12.12,0,0,1,0-.13l11.76-46.44a.13.13,0,0,1,.13-.1h0a.14.14,0,0,1,.12.11L409.87,117a.11.11,0,0,1-.07.12l-16.08,7.13Zm11.71-45.89L393.85,123.9l15.76-7Z" transform="translate(24.4 29.78)"/><path class="cls-4" d="M393.67,124.25a.12.12,0,0,1-.11-.07l-9.13-15.87a.12.12,0,0,1,0-.13l20.87-30.54a.12.12,0,0,1,.13-.09h0a.14.14,0,0,1,.11.07.16.16,0,0,1,0,.12l-11.75,46.41a.11.11,0,0,1-.1.09Zm-9-16,8.93,15.54,11.51-45.45Z" transform="translate(24.4 29.78)"/><path class="cls-4" d="M409.75,117.11a.11.11,0,0,1-.08,0,.13.13,0,0,1,0-.14L430.18,62s0-.06.08-.08h0a.13.13,0,0,1,.15.06l17.27,31.29a.13.13,0,0,1,0,.17L409.81,117.1Zm20.57-54.75L410,116.69l37.42-23.38Z" transform="translate(24.4 29.78)"/><path class="cls-4" d="M409.75,117.11h0a.12.12,0,0,1-.11-.11l-4.31-39.31a.11.11,0,0,1,.06-.12L430.22,62l0,0h0a.12.12,0,0,1,.15.07.1.1,0,0,1,0,.12L409.86,117A.12.12,0,0,1,409.75,117.11Zm-4.19-39.37,4.25,38.71,20.24-54.08Z" transform="translate(24.4 29.78)"/><path class="cls-4" d="M447.57,93.47a.11.11,0,0,1-.09,0,.13.13,0,0,1,0-.13l23.82-49.79a.11.11,0,0,1,.08-.08.13.13,0,0,1,.12,0l34.31,33.12a.12.12,0,0,1,0,.12.14.14,0,0,1-.08.09L447.61,93.47Zm23.86-49.71L447.81,93.15l57.65-16.54Z" transform="translate(24.4 29.78)"/><path class="cls-4" d="M447.57,93.47a.14.14,0,0,1-.11-.06L430.19,62.12a.11.11,0,0,1,0-.1.12.12,0,0,1,.07-.07l41.09-18.51a.12.12,0,0,1,.18.13v0L447.69,93.4a.12.12,0,0,1-.11.07ZM430.48,62.12l17.09,31,23.57-49.27Z" transform="translate(24.4 29.78)"/><path class="cls-4" d="M505.7,76.79h0a.13.13,0,0,1-.09-.09L491.47,32.18a.1.1,0,0,1,0-.12.11.11,0,0,1,.12,0h0L532.51,48a.11.11,0,0,1,.08.09.11.11,0,0,1,0,.11L505.79,76.75A.1.1,0,0,1,505.7,76.79ZM491.78,32.35l14,44.07,26.49-28.3Z" transform="translate(24.4 29.78)"/><path class="cls-4" d="M505.7,76.79a.11.11,0,0,1-.08,0L471.31,43.64a.14.14,0,0,1,0-.1.17.17,0,0,1,.06-.1L491.5,32.05a.11.11,0,0,1,.11,0h0a.12.12,0,0,1,.09.1h0l14.11,44.5a.11.11,0,0,1-.05.14ZM471.6,43.58l33.83,32.65-13.92-43.9Z" transform="translate(24.4 29.78)"/><path class="cls-4" d="M532.47,48.2l-.06,0a.1.1,0,0,1-.06-.08l-6.22-33.41a.17.17,0,0,1,0-.1.13.13,0,0,1,.16-.05l42.11,17.93a.12.12,0,0,1,.08.11.13.13,0,0,1-.08.12L532.52,48.19Zm-6.05-33.34,6.14,33L568,32.59Z" transform="translate(24.4 29.78)"/><path class="cls-4" d="M532.47,48.2h-.05L491.54,32.26a.15.15,0,0,1-.08-.11.14.14,0,0,1,.07-.12L526.2,14.54a.1.1,0,0,1,.12,0,.16.16,0,0,1,.06.08l6.21,33.42a.13.13,0,0,1,0,.12A.11.11,0,0,1,532.47,48.2ZM491.9,32.13l40.41,15.75-6.15-33Z" transform="translate(24.4 29.78)"/><path class="cls-4" d="M568.36,32.71h0a.13.13,0,0,1-.09-.15l9.43-57.84a.12.12,0,0,1,.14-.1.14.14,0,0,1,.11.13l-3.59,43.7a0,0,0,0,1,0,0l-5.84,14.15A.13.13,0,0,1,568.36,32.71Zm9-54.85-8.75,53.68,5.42-13.13Z" transform="translate(24.4 29.78)"/><path class="cls-4" d="M568.36,32.71h-.05L526.2,14.77a.14.14,0,0,1-.07-.1.11.11,0,0,1,0-.12l51.53-39.91a.14.14,0,0,1,.14,0,.12.12,0,0,1,.06.13L568.49,32.6a.11.11,0,0,1-.07.09ZM526.5,14.62l41.76,17.79L577.62-25Z" transform="translate(24.4 29.78)"/><path class="cls-4" d="M66.26,371.83l-.07,0a.13.13,0,0,1,0-.15l23.67-59.49a.13.13,0,0,1,0-.07.12.12,0,0,1,.14,0,.18.18,0,0,1,.07.08l11.88,28.34a.12.12,0,0,1,0,.14L66.34,371.8A.11.11,0,0,1,66.26,371.83Zm23.68-59.3L66.57,371.27l35.11-30.76Z" transform="translate(24.4 29.78)"/><path class="cls-4" d="M66.26,371.83a.12.12,0,0,1-.1-.05L35.49,330.27a.14.14,0,0,1,0-.11.15.15,0,0,1,.08-.08l54.34-18a.11.11,0,0,1,.1,0,.12.12,0,0,1,.06.16L66.38,371.75a.11.11,0,0,1-.1.08ZM35.8,330.26l30.43,41.19,23.49-59.06Z" transform="translate(24.4 29.78)"/><path class="cls-4" d="M101.83,340.67l-.08,0a.13.13,0,0,1,0-.14l16.9-54.75a.12.12,0,0,1,.15-.08.12.12,0,0,1,.09.09L138,320.57a.13.13,0,0,1-.05.17l-36,19.92Zm16.93-54.55L102,340.29l35.65-19.71Z" transform="translate(24.4 29.78)"/><path class="cls-4" d="M101.83,340.67a.14.14,0,0,1-.12-.07L89.82,312.24a.12.12,0,0,1,0-.14l28.77-26.38a.13.13,0,0,1,.23.11h0L102,340.58a.13.13,0,0,1-.12.09ZM90.08,312.22l11.73,28,16.66-54Z" transform="translate(24.4 29.78)"/><path class="cls-4" d="M137.86,320.75h-.06a.13.13,0,0,1-.06-.15l14.48-47.27a.12.12,0,0,1,.13-.09.13.13,0,0,1,.12.11l3.15,25.13a.1.1,0,0,1,0,.09L138,320.71A.13.13,0,0,1,137.86,320.75ZM152.29,274,138.17,320l17.2-21.6Z" transform="translate(24.4 29.78)"/><path class="cls-4" d="M137.86,320.75a.11.11,0,0,1-.11-.06l-19.13-34.83a.12.12,0,0,1,0-.1.14.14,0,0,1,.07-.08l33.62-12.44a.13.13,0,0,1,.13,0,.15.15,0,0,1,0,.13L138,320.66a.13.13,0,0,1-.11.09Zm-19-34.88,18.93,34.44,14.32-46.75Z" transform="translate(24.4 29.78)"/><path class="cls-4" d="M155.5,298.61a.09.09,0,0,1-.08,0,.11.11,0,0,1,0-.15l16.37-29.08a.14.14,0,0,1,.1-.07h0l20.94,1.41a.13.13,0,0,1,.11.09.12.12,0,0,1,0,.14l-37.34,27.66A.09.09,0,0,1,155.5,298.61Zm16.44-29.08-16,28.5,36.58-27.11Z" transform="translate(24.4 29.78)"/><path class="cls-4" d="M155.5,298.61h0a.11.11,0,0,1-.1-.1l-3.16-25.13a.12.12,0,0,1,.1-.14l19.5-4h.05a.14.14,0,0,1,.1.05h0a.13.13,0,0,1,0,.12l0,0-16.35,29.06A.14.14,0,0,1,155.5,298.61Zm-3-25.16,3.1,24.64,16-28.51Z" transform="translate(24.4 29.78)"/><path class="cls-4" d="M239.18,272.11h0l-46.35-1.17a.12.12,0,0,1-.1-.05.14.14,0,0,1,0-.11l6.09-18.91a.14.14,0,0,1,.12-.09h0a.11.11,0,0,1,.08,0l40.24,20.07a.12.12,0,0,1-.06.23ZM193,270.7l45.62,1.15L199,252.09Z" transform="translate(24.4 29.78)"/><path class="cls-4" d="M192.83,270.94h0l-21-1.42a.12.12,0,0,1-.11-.09.12.12,0,0,1,.05-.13l27-17.48a.15.15,0,0,1,.09,0h0a.14.14,0,0,1,.12.09h0a.12.12,0,0,1,0,.1L193,270.85A.12.12,0,0,1,192.83,270.94Zm-20.57-1.64,20.48,1.39,5.95-18.48Z" transform="translate(24.4 29.78)"/><path class="cls-4" d="M239.18,272.11h0a.12.12,0,0,1-.08-.12l-1.89-46.19a.14.14,0,0,1,0-.09.13.13,0,0,1,.14-.07l.07,0,24.17,18.18a.12.12,0,0,1,0,.08.12.12,0,0,1,0,.1l-22.29,28A.12.12,0,0,1,239.18,272.11ZM237.43,226l1.86,45.62,22-27.68Z" transform="translate(24.4 29.78)"/><path class="cls-4" d="M239.18,272.11h-.05L198.87,252a.12.12,0,0,1-.07-.1.11.11,0,0,1,0-.11l38.37-26.15a.1.1,0,0,1,.09,0,.13.13,0,0,1,.11.12L239.31,272a.11.11,0,0,1-.06.11A.08.08,0,0,1,239.18,272.11Zm-40-20.22,39.88,19.89L237.18,226Z" transform="translate(24.4 29.78)"/><path class="cls-4" d="M261.47,244.07a.08.08,0,0,1-.07,0,.11.11,0,0,1,0-.11l2.72-49.9a.11.11,0,0,1,.11-.12h0a.12.12,0,0,1,.1,0l36,36.08a.11.11,0,0,1,0,.11.11.11,0,0,1-.08.09l-38.78,13.84Zm2.84-49.75-2.7,49.45L300,230.06Z" transform="translate(24.4 29.78)"/><path class="cls-4" d="M261.47,244.07a.08.08,0,0,1-.07,0l-24.19-18.19a.14.14,0,0,1-.05-.08.17.17,0,0,1,0-.1L264.08,194a.12.12,0,0,1,.1-.07h0a.11.11,0,0,1,.12.06.12.12,0,0,1,0,.1L261.6,244a.13.13,0,0,1-.08.1Zm-24-18.33,23.89,18,2.69-49.3Z" transform="translate(24.4 29.78)"/><path class="cls-4" d="M300.25,230.24h0a.12.12,0,0,1-.11-.08l-18.95-45.34a.17.17,0,0,1,0-.1h0a.1.1,0,0,1,.09-.07.11.11,0,0,1,.12,0L309.11,216a.12.12,0,0,1,0,.15l-8.76,14A.14.14,0,0,1,300.25,230.24ZM281.7,185.41l18.57,44.43,8.59-13.7Z" transform="translate(24.4 29.78)"/><path class="cls-4" d="M300.25,230.24a.12.12,0,0,1-.09,0l-36.05-36.07a.11.11,0,0,1,0-.11.11.11,0,0,1,.06-.09l17.1-9.27a.11.11,0,0,1,.14,0s0,0,0,.06l18.95,45.33a.13.13,0,0,1-.05.15Zm-35.84-36.17,35.48,35.51L281.23,185Z" transform="translate(24.4 29.78)"/><path class="cls-4" d="M309,216.25a.13.13,0,0,1-.1,0,.12.12,0,0,1,0-.14l30.18-56.22s0,0,0-.06a.11.11,0,0,1,.14,0,.11.11,0,0,1,.06.07h0l16.42,38.09a.17.17,0,0,1,0,.1.11.11,0,0,1-.07.06l-46.63,18.14Zm30.18-56.08-29.91,55.72,46.19-18Z" transform="translate(24.4 29.78)"/><path class="cls-4" d="M309,216.25a.13.13,0,0,1-.1,0L281.2,184.85a.11.11,0,0,1,0-.11.14.14,0,0,1,.08-.09l57.91-24.89a.14.14,0,0,1,.11,0,.11.11,0,0,1,.06.07.17.17,0,0,1,0,.1l-30.2,56.25a.13.13,0,0,1-.1.06ZM281.5,184.81,309,215.91l29.95-55.78Z" transform="translate(24.4 29.78)"/><path class="cls-4" d="M355.64,198.11l-.07,0a.13.13,0,0,1-.05-.13l12.38-55.83s0-.06.06-.08a.1.1,0,0,1,.09,0h0a.11.11,0,0,1,.07.06l20.53,36.33a.13.13,0,0,1-.05.17l-32.9,19.49A.08.08,0,0,1,355.64,198.11Zm12.43-55.61-12.24,55.23,32.55-19.28Z" transform="translate(24.4 29.78)"/><path class="cls-4" d="M355.64,198.11a.12.12,0,0,1-.11-.07L339.1,159.93a.12.12,0,0,1,0-.16l28.78-17.7,0,0a.1.1,0,0,1,.09,0h0a.12.12,0,0,1,.09.1.11.11,0,0,1,0,.08L355.77,198a.13.13,0,0,1-.11.1Zm-16.27-38.18,16.24,37.65,12.22-55.16Z" transform="translate(24.4 29.78)"/><path class="cls-4" d="M388.55,178.62l-.07,0a.11.11,0,0,1-.05-.12l5.11-54.36a.13.13,0,0,1,.23-.07l25.35,40.2a.15.15,0,0,1,0,.11.18.18,0,0,1-.07.08L388.6,178.61Zm5.21-54.12-5.06,53.79,30.14-14Z" transform="translate(24.4 29.78)"/><path class="cls-4" d="M388.55,178.62a.13.13,0,0,1-.11-.06l-20.53-36.34a.12.12,0,0,1,0-.16l25.65-18a.12.12,0,0,1,.13,0,.11.11,0,0,1,.06.11v0l-5.12,54.37a.13.13,0,0,1-.09.11Zm-20.36-36.43,20.27,35.9,5.06-53.71Z" transform="translate(24.4 29.78)"/><path class="cls-4" d="M419,164.45h0a.13.13,0,0,1-.1-.09L409.63,117a.13.13,0,0,1,0-.06c0-.07.08-.12.14-.1l40.58,6.21a.14.14,0,0,1,.1.08.11.11,0,0,1,0,.12l-31.3,41.12A.14.14,0,0,1,419,164.45Zm-9.12-47.31L419.09,164l31-40.72Z" transform="translate(24.4 29.78)"/><path class="cls-4" d="M419,164.45a.11.11,0,0,1-.11-.06l-25.35-40.2a.14.14,0,0,1,0-.11.1.1,0,0,1,.07-.07l16.07-7.13a.1.1,0,0,1,.09,0,.13.13,0,0,1,.09.1l9.27,47.33a.12.12,0,0,1-.08.14Zm-25.17-40.27,24.92,39.51-9.12-46.52Z" transform="translate(24.4 29.78)"/><path class="cls-4" d="M450.32,123.33a.13.13,0,0,1-.12-.11l-2.76-29.86a.14.14,0,0,1,.07-.12h0a.1.1,0,0,1,.12,0l41.18,28.67a.11.11,0,0,1,0,.13.12.12,0,0,1-.11.09l-38.42,1.19Zm-2.6-29.73,2.72,29.48,37.92-1.18Z" transform="translate(24.4 29.78)"/><path class="cls-4" d="M450.32,123.33h0l-40.58-6.22a.11.11,0,0,1-.11-.09.14.14,0,0,1,.06-.14l37.81-23.63h0a.12.12,0,0,1,.16.05.11.11,0,0,1,0,.08l2.75,29.82a.15.15,0,0,1,0,.11A.12.12,0,0,1,450.32,123.33Zm-40.22-6.41,40.09,6.14-2.73-29.49Z" transform="translate(24.4 29.78)"/><path class="cls-4" d="M488.74,122.14l-.07,0a.14.14,0,0,1,0-.15l16.95-45.34,0,0a.13.13,0,0,1,.16,0,.13.13,0,0,1,.06.15l-5.73,36.93a.1.1,0,0,1,0,.08l-11.22,8.41Zm16.65-44.28L489,121.66l10.84-8.12Z" transform="translate(24.4 29.78)"/><path class="cls-4" d="M488.74,122.14l-.07,0L447.5,93.45a.11.11,0,0,1-.05-.12.12.12,0,0,1,.09-.1l58.12-16.68h.1a.13.13,0,0,1,.06.16l-17,45.35a.11.11,0,0,1-.08.08ZM447.86,93.4l40.82,28.42,16.82-45Z" transform="translate(24.4 29.78)"/><path class="cls-4" d="M500,113.74a.13.13,0,0,1-.09,0,.11.11,0,0,1,0-.14L532.36,48a.12.12,0,0,1,.11-.07h0a.12.12,0,0,1,.12.1l9.2,46.2a.12.12,0,0,1-.07.13L500,113.73Zm32.45-65.29-32.18,64.9L541.53,94.2Z" transform="translate(24.4 29.78)"/><path class="cls-4" d="M500,113.74h0a.13.13,0,0,1-.09-.14l5.74-36.94a.09.09,0,0,1,0-.07L532.36,48a.16.16,0,0,1,.11,0h0a.13.13,0,0,1,.1.2l-32.49,65.52A.14.14,0,0,1,500,113.74Zm5.85-37-5.6,36.11,31.76-64Z" transform="translate(24.4 29.78)"/><path class="cls-4" d="M541.67,94.4a.11.11,0,0,1-.08,0,.13.13,0,0,1,0-.15l26.7-61.69a.12.12,0,0,1,.15-.07.13.13,0,0,1,.09.12l6.32,39.08a.11.11,0,0,1,0,.12l-33,22.59A.11.11,0,0,1,541.67,94.4ZM568.31,33,542,93.92l32.6-22.3Z" transform="translate(24.4 29.78)"/><path class="cls-4" d="M541.67,94.4h0a.14.14,0,0,1-.11-.1l-9.19-46.2a.13.13,0,0,1,.07-.14l35.87-15.48a.14.14,0,0,1,.11,0,.12.12,0,0,1,.08.15h0a0,0,0,0,1,0,0L541.78,94.32A.12.12,0,0,1,541.67,94.4Zm-9.06-46.25,9.1,45.7,26.41-61Z" transform="translate(24.4 29.78)"/><path class="cls-4" d="M574.69,71.8h0a.14.14,0,0,1-.09-.12l-.48-53.23v0a.13.13,0,0,1,.14-.1.14.14,0,0,1,.11.1l14,37.26a.11.11,0,0,1,0,.12l-13.55,16A.1.1,0,0,1,574.69,71.8Zm-.35-52.66.47,52.2,13.28-15.65Z" transform="translate(24.4 29.78)"/><path class="cls-4" d="M574.69,71.8a.12.12,0,0,1-.12-.1l-6.33-39.1a.13.13,0,0,1,0-.06l5.84-14.15a.12.12,0,0,1,.13-.09.14.14,0,0,1,.11.13l.48,53.25a.12.12,0,0,1-.11.12Zm-6.2-39.2L574.55,70l-.46-51Z" transform="translate(24.4 29.78)"/><path class="cls-4" d="M65.81,395.17a.16.16,0,0,1-.09,0,.14.14,0,0,1,0-.16l36-54.5h0a.13.13,0,0,1,.18,0,.15.15,0,0,1,0,.14l-4.52,31.08a.1.1,0,0,1-.05.08l-31.5,23.41Zm35.81-54.09L66.31,394.52l30.88-22.95Z" transform="translate(24.4 29.78)"/><path class="cls-4" d="M65.81,395.17h0a.12.12,0,0,1-.09-.12l.46-23.33a.13.13,0,0,1,0-.1l35.56-31.15a.14.14,0,0,1,.16,0,.13.13,0,0,1,0,.17l-36,54.5A.11.11,0,0,1,65.81,395.17Zm.57-23.4-.44,22.85,35.27-53.37Z" transform="translate(24.4 29.78)"/><path class="cls-4" d="M97.31,371.77a.17.17,0,0,1-.11-.06.16.16,0,0,1,0-.15l40.55-51a.12.12,0,0,1,.14,0,.12.12,0,0,1,.08.12h0l7.75,41.82a.12.12,0,0,1-.1.15l-48.3,9.17Zm40.48-50.85L97.62,371.46l47.85-9.08Z" transform="translate(24.4 29.78)"/><path class="cls-4" d="M97.31,371.77h0a.13.13,0,0,1-.07-.14l4.51-31.09a.13.13,0,0,1,.07-.09l36-19.91a.11.11,0,0,1,.12,0,.12.12,0,0,1,.08.12h0a.11.11,0,0,1,0,.09l-40.53,51A.14.14,0,0,1,97.31,371.77Zm4.63-31.14L97.5,371.2,137.37,321Z" transform="translate(24.4 29.78)"/><path class="cls-4" d="M145.61,362.6h-.06a.14.14,0,0,1-.06-.13l9.89-64a.12.12,0,0,1,.12-.11.14.14,0,0,1,.12.11h0l14.6,41.19a.11.11,0,0,1,0,.13L145.7,362.57ZM155.55,299l-9.76,63.15L170,339.67Z" transform="translate(24.4 29.78)"/><path class="cls-4" d="M145.61,362.6a.12.12,0,0,1-.12-.1l-7.75-41.85a.12.12,0,0,1,0-.1l17.63-22.13a.12.12,0,0,1,.11-.07.14.14,0,0,1,.12.11h0s0,0,0,0l-9.88,64a.13.13,0,0,1-.13.1ZM138,320.66l7.61,41.07,9.7-62.8Z" transform="translate(24.4 29.78)"/><path class="cls-4" d="M170.11,339.83a.13.13,0,0,1-.09,0,.11.11,0,0,1,0-.13l22.72-68.88a.13.13,0,0,1,.13-.09h0a.12.12,0,0,1,.11.09L208.83,328a.12.12,0,0,1-.09.15l-38.6,11.72Zm22.71-68.59L170.3,339.51l38.25-11.61Z" transform="translate(24.4 29.78)"/><path class="cls-4" d="M170.11,339.83a.13.13,0,0,1-.12-.09l-14.61-41.22a.12.12,0,0,1,0-.14l37.31-27.65a.15.15,0,0,1,.11,0h0a.12.12,0,0,1,.11.09.2.2,0,0,1,0,.11l-22.72,68.85a.12.12,0,0,1-.11.09Zm-14.46-41.3,14.45,40.79,22.48-68.16Z" transform="translate(24.4 29.78)"/><path class="cls-4" d="M208.71,328.11a.13.13,0,0,1-.08,0,.12.12,0,0,1,0-.16l30.46-56a.12.12,0,0,1,.05-.07.12.12,0,0,1,.15,0l0,.06,7.79,17.27a.14.14,0,0,1,0,.14L208.8,328.07A.18.18,0,0,1,208.71,328.11Zm30.46-55.84-29.93,55,37.59-38Z" transform="translate(24.4 29.78)"/><path class="cls-4" d="M208.71,328.11h0a.11.11,0,0,1-.1-.09l-15.88-57.16a.14.14,0,0,1,0-.11.16.16,0,0,1,.1-.05l46.35,1.17.08,0a.12.12,0,0,1,0,.16l-30.47,56A.14.14,0,0,1,208.71,328.11ZM193,271l15.75,56.7L239,272.11Z" transform="translate(24.4 29.78)"/><path class="cls-4" d="M247,289.4a.12.12,0,0,1-.1,0,.11.11,0,0,1,0-.11l14.49-45.32a.11.11,0,0,1,.07-.08.12.12,0,0,1,.16,0h0l21.68,44a.13.13,0,0,1,0,.12.14.14,0,0,1-.11.06L247,289.4Zm14.52-45.12-14.35,44.86,35.8-1.32Z" transform="translate(24.4 29.78)"/><path class="cls-4" d="M247,289.4a.14.14,0,0,1-.12-.07L239.07,272a.12.12,0,0,1,0-.13l22.29-28a.16.16,0,0,1,.11-.05.13.13,0,0,1,.1.07.12.12,0,0,1,0,.1L247.1,289.31a.13.13,0,0,1-.12.09ZM239.33,272,247,288.93l14.19-44.37Z" transform="translate(24.4 29.78)"/><path class="cls-4" d="M283.15,288.06h-.06a.13.13,0,0,1-.06-.15l17.1-57.82a.12.12,0,0,1,.12-.09h0a.12.12,0,0,1,.12.09h0l3.6,26.53a.1.1,0,0,1,0,.09L283.25,288A.11.11,0,0,1,283.15,288.06Zm17.05-57.35-16.7,56.46,20.22-30.57Z" transform="translate(24.4 29.78)"/><path class="cls-4" d="M283.15,288.06A.12.12,0,0,1,283,288l-21.68-44a.09.09,0,0,1,0-.1.12.12,0,0,1,.07-.07L300.18,230a.08.08,0,0,1,.07,0h0a.12.12,0,0,1,.12.09h0a.1.1,0,0,1,0,.09L283.27,288a.14.14,0,0,1-.11.09Zm-21.5-44,21.47,43.57,16.94-57.27Z" transform="translate(24.4 29.78)"/><path class="cls-4" d="M324.08,258h0l-20.23-1.27a.15.15,0,0,1-.09,0,.17.17,0,0,1,0-.1l5.17-40.5a.14.14,0,0,1,.1-.11h0a.14.14,0,0,1,.13.08l15.07,41.78a.13.13,0,0,1,0,.12A.12.12,0,0,1,324.08,258ZM304,256.51l19.91,1.25-14.83-41.11Z" transform="translate(24.4 29.78)"/><path class="cls-4" d="M303.85,256.75a.13.13,0,0,1-.13-.11l-3.59-26.51a.11.11,0,0,1,0-.08l8.76-14A.12.12,0,0,1,309,216h0a.14.14,0,0,1,.12.06.11.11,0,0,1,0,.11L304,256.64a.11.11,0,0,1-.12.11Zm-3.47-26.61,3.46,25.53,5-39Z" transform="translate(24.4 29.78)"/><path class="cls-4" d="M324.08,258a.11.11,0,0,1-.08,0,.14.14,0,0,1,0-.16l31.56-59.92a.14.14,0,0,1,.16-.06.13.13,0,0,1,.08.12l4.71,30.66a.13.13,0,0,1-.05.11L324.16,258A.11.11,0,0,1,324.08,258Zm31.5-59.65-31.11,59,35.75-28.82Z" transform="translate(24.4 29.78)"/><path class="cls-4" d="M324.08,258h0a.12.12,0,0,1-.11-.08L308.9,216.17A.14.14,0,0,1,309,216l46.6-18.13a.16.16,0,0,1,.12,0,.13.13,0,0,1,.08.15h0s0,0,0,.05L324.19,258A.12.12,0,0,1,324.08,258Zm-14.9-41.83,14.92,41.39,31.28-59.36Z" transform="translate(24.4 29.78)"/><path class="cls-4" d="M360.35,228.78l-.08,0a.15.15,0,0,1,0-.16l28.2-50.16a.13.13,0,0,1,.15-.06h0a.11.11,0,0,1,.08.13l-4.74,30.64a.12.12,0,0,1,0,.08l-23.46,19.52A.11.11,0,0,1,360.35,228.78Zm28-49.64-27.53,49,22.9-19.05Z" transform="translate(24.4 29.78)"/><path class="cls-4" d="M360.35,228.78h0a.13.13,0,0,1-.1-.11L355.52,198a.14.14,0,0,1,.06-.13l32.88-19.48a.14.14,0,0,1,.13,0h0a.1.1,0,0,1,.08.1.09.09,0,0,1,0,.1l-28.18,50.14A.11.11,0,0,1,360.35,228.78Zm-4.57-30.73,4.64,30.23,27.79-49.44Z" transform="translate(24.4 29.78)"/><path class="cls-4" d="M383.81,209.26a.14.14,0,0,1-.11-.06.14.14,0,0,1,0-.14l35.21-44.82a.13.13,0,0,1,.09-.05.11.11,0,0,1,.09,0h0s0,0,0,0l17.26,33.68a.11.11,0,0,1,0,.11.1.1,0,0,1-.08.07l-52.47,11.14ZM419,164.55l-34.87,44.39,52-11Z" transform="translate(24.4 29.78)"/><path class="cls-4" d="M383.81,209.26h-.05a.13.13,0,0,1-.07-.14l4.74-30.63a.11.11,0,0,1,.07-.1l30.43-14.16.08,0a.11.11,0,0,1,.09,0h0a.14.14,0,0,1,0,.11.11.11,0,0,1-.05.08l-35.18,44.79A.14.14,0,0,1,383.81,209.26Zm4.85-30.68L384,208.68l34.58-44Z" transform="translate(24.4 29.78)"/><path class="cls-4" d="M436.28,198.12h0a.12.12,0,0,1-.07-.13l14-74.78a.19.19,0,0,1,0-.07.13.13,0,0,1,.2,0l0,0L465,160.51a.11.11,0,0,1,0,.12l-28.57,37.44A.1.1,0,0,1,436.28,198.12Zm14.09-74.46L436.5,197.5l28.21-37Z" transform="translate(24.4 29.78)"/><path class="cls-4" d="M436.28,198.12a.13.13,0,0,1-.11-.06l-17.26-33.68a.1.1,0,0,1,0-.13l31.3-41.12a.13.13,0,0,1,.2,0,.11.11,0,0,1,0,.1L436.4,198a.13.13,0,0,1-.1.1Zm-17.12-33.79,17.07,33.29,13.88-73.92Z" transform="translate(24.4 29.78)"/><path class="cls-4" d="M496.26,165h0l-31.41-4.3a.12.12,0,0,1-.1-.07.13.13,0,0,1,0-.12L488.63,122s0,0,.05-.07a.12.12,0,0,1,.14,0,.14.14,0,0,1,.05.1l7.52,42.81a.15.15,0,0,1,0,.11A.1.1,0,0,1,496.26,165Zm-31.2-4.52,31.05,4.25-7.43-42.34Z" transform="translate(24.4 29.78)"/><path class="cls-4" d="M464.85,160.68h0a.11.11,0,0,1-.1-.08l-14.53-37.35a.11.11,0,0,1,0-.11.11.11,0,0,1,.1-.06l38.42-1.19a.11.11,0,0,1,.08,0,.13.13,0,0,1,0,.17L465,160.62A.11.11,0,0,1,464.85,160.68Zm-14.34-37.36,14.37,37,23.64-38.13Z" transform="translate(24.4 29.78)"/><path class="cls-4" d="M496.26,165a.07.07,0,0,1-.06,0,.13.13,0,0,1-.06-.11l3.7-51.25a.12.12,0,0,1,0-.08h0a.11.11,0,0,1,.11,0,.11.11,0,0,1,.09.07l16.73,39.22a.14.14,0,0,1,0,.16l-20.43,12A.08.08,0,0,1,496.26,165Zm3.79-50.85-3.64,50.5,20.12-11.85Z" transform="translate(24.4 29.78)"/><path class="cls-4" d="M496.26,165a.12.12,0,0,1-.12-.1L488.62,122a.11.11,0,0,1,.05-.12l11.22-8.41a.12.12,0,0,1,.17,0,.1.1,0,0,1,0,.1l-3.7,51.24a.13.13,0,0,1-.12.11Zm-7.38-42.91,7.33,41.77,3.61-50Z" transform="translate(24.4 29.78)"/><path class="cls-4" d="M516.69,153l-.08,0a.14.14,0,0,1,0-.15l25-58.55s0,0,0,0h0a.14.14,0,0,1,.12,0,.16.16,0,0,1,.1.08l10.71,34.16a.15.15,0,0,1,0,.14l-35.69,24.4A.08.08,0,0,1,516.69,153Zm25-58.32L517,152.48l35.25-24.11Z" transform="translate(24.4 29.78)"/><path class="cls-4" d="M516.69,153a.12.12,0,0,1-.11-.07l-16.73-39.22a.13.13,0,0,1,.06-.16l41.7-19.34a.12.12,0,0,1,.15,0,.12.12,0,0,1,0,.15l-25,58.54A.14.14,0,0,1,516.69,153Zm-16.56-39.28,16.56,38.84,24.73-58Z" transform="translate(24.4 29.78)"/><path class="cls-4" d="M552.38,128.55l-.07,0a.13.13,0,0,1,0-.15l22.31-56.73a.09.09,0,0,1,0-.06.14.14,0,0,1,.16,0l0,0,21.52,19a.15.15,0,0,1,0,.09.12.12,0,0,1-.05.1l-43.84,37.69A.11.11,0,0,1,552.38,128.55Zm22.36-56.66L552.68,128,596,90.73Z" transform="translate(24.4 29.78)"/><path class="cls-4" d="M552.38,128.55h0a.13.13,0,0,1-.11-.09L541.55,94.31a.11.11,0,0,1,.05-.14l33-22.59a.1.1,0,0,1,.15,0,.12.12,0,0,1,0,.15l-22.32,56.75A.11.11,0,0,1,552.38,128.55ZM541.81,94.32l10.58,33.73,22-56Z" transform="translate(24.4 29.78)"/><path class="cls-4" d="M596.22,90.86a.12.12,0,0,1-.12-.1l-8-35a.13.13,0,0,1,0-.14.14.14,0,0,1,.16,0L625.68,90a.14.14,0,0,1,0,.14.12.12,0,0,1-.12.08l-29.37.62Zm-7.78-34.78,7.88,34.53,29-.61Z" transform="translate(24.4 29.78)"/><path class="cls-4" d="M596.22,90.86a.11.11,0,0,1-.08,0L574.61,71.77a.12.12,0,0,1,0-.17l13.55-16a.11.11,0,0,1,.11,0,.1.1,0,0,1,.09.07l0,0,8,35a.11.11,0,0,1-.05.13ZM574.86,71.67,596,90.38,588.17,56Z" transform="translate(24.4 29.78)"/><path class="cls-4" d="M94.12,419.71l-.07,0a.13.13,0,0,1,0-.12l3.19-47.9a.06.06,0,0,1,0-.06.12.12,0,0,1,.08-.09.16.16,0,0,1,.12,0l0,0L124.69,404a.11.11,0,0,1,0,.1.15.15,0,0,1-.06.09L94.18,419.69ZM97.42,372l-3.16,47.4L124.39,404Z" transform="translate(24.4 29.78)"/><path class="cls-4" d="M94.12,419.71a.09.09,0,0,1-.08,0L65.73,395.14a.14.14,0,0,1,0-.1.19.19,0,0,1,0-.1l31.51-23.4,0,0a.16.16,0,0,1,.12,0,.16.16,0,0,1,0,.11l-3.19,47.94a.15.15,0,0,1-.08.11ZM66,395.05l28,24.27,3.16-47.42Z" transform="translate(24.4 29.78)"/><path class="cls-4" d="M124.59,404.18a.1.1,0,0,1-.09,0,.12.12,0,0,1,0-.14l21-41.56a.21.21,0,0,1,0-.06.12.12,0,0,1,.17,0l0,0,18.68,27.93a.11.11,0,0,1,0,.11.12.12,0,0,1-.07.07l-39.71,13.65Zm21-41.45-20.79,41.11,39.26-13.5Z" transform="translate(24.4 29.78)"/><path class="cls-4" d="M124.59,404.18a.13.13,0,0,1-.1,0L97.21,371.72a.16.16,0,0,1,0-.12.14.14,0,0,1,.1-.08l48.3-9.17a.15.15,0,0,1,.11,0,.11.11,0,0,1,0,.14l-21,41.58a.11.11,0,0,1-.1.07Zm-27-32.45,27,32.1,20.83-41.18Z" transform="translate(24.4 29.78)"/><path class="cls-4" d="M164.3,390.53h0a.14.14,0,0,1-.09-.14l5.81-50.7,0-.05h0a.11.11,0,0,1,.13-.06.12.12,0,0,1,.1.09l6.44,27.47a.08.08,0,0,1,0,.08l-12.25,23.24A.13.13,0,0,1,164.3,390.53Zm5.85-50.11-5.65,49.34,11.92-22.61Z" transform="translate(24.4 29.78)"/><path class="cls-4" d="M164.3,390.53a.16.16,0,0,1-.11,0l-18.68-27.93a.11.11,0,0,1,0-.16L170,339.61a.14.14,0,0,1,.16,0,.13.13,0,0,1,0,.14l-5.81,50.68a.13.13,0,0,1-.09.11Zm-18.53-28,18.44,27.55,5.73-50Z" transform="translate(24.4 29.78)"/><path class="cls-4" d="M176.55,367.29a.13.13,0,0,1-.11-.06.12.12,0,0,1,0-.14l32.14-39.16a.1.1,0,0,1,0-.05.12.12,0,0,1,.16,0l0,.06L221,361.5a.14.14,0,0,1-.11.17l-44.32,5.62Zm32.12-39.06L176.85,367l43.86-5.56Z" transform="translate(24.4 29.78)"/><path class="cls-4" d="M176.55,367.29h0a.14.14,0,0,1-.09-.09L170,339.73a.14.14,0,0,1,.09-.15l38.6-11.72a.16.16,0,0,1,.13,0,.14.14,0,0,1,0,.17l-32.16,39.19A.15.15,0,0,1,176.55,367.29Zm-6.3-27.5,6.37,27.1,31.74-38.67Z" transform="translate(24.4 29.78)"/><path class="cls-4" d="M220.88,361.67l-.07,0a.12.12,0,0,1-.05-.15l26.1-72.27a.13.13,0,0,1,.16-.08.11.11,0,0,1,.08.08l16.52,26.39a.12.12,0,0,1,0,.15L221,361.63A.15.15,0,0,1,220.88,361.67ZM247,289.56,221.2,361l42.16-45.34Z" transform="translate(24.4 29.78)"/><path class="cls-4" d="M220.88,361.67a.14.14,0,0,1-.12-.09L208.59,328a.13.13,0,0,1,0-.13l38.25-38.69a.12.12,0,0,1,.15-.05.13.13,0,0,1,.08.16h0L221,361.58A.14.14,0,0,1,220.88,361.67Zm-12-33.66,12,33.16,25.79-71.4Z" transform="translate(24.4 29.78)"/><path class="cls-4" d="M263.51,315.81a.14.14,0,0,1-.1-.05.14.14,0,0,1,0-.15L283,287.87h0a.13.13,0,0,1,.17,0l0,0,14.06,15.57a.13.13,0,0,1,0,.12.11.11,0,0,1-.08.08L263.55,315.8Zm19.65-27.68-19.32,27.3,33.16-12Z" transform="translate(24.4 29.78)"/><path class="cls-4" d="M263.51,315.81h0a.11.11,0,0,1-.1-.06l-16.54-26.41a.13.13,0,0,1,0-.12.12.12,0,0,1,.1-.07l36.16-1.34a.1.1,0,0,1,.09,0,.12.12,0,0,1,0,.17l-19.64,27.76A.12.12,0,0,1,263.51,315.81ZM247.2,289.39l16.32,26.07,19.38-27.39Z" transform="translate(24.4 29.78)"/><path class="cls-4" d="M297.22,303.64h-.05a.13.13,0,0,1-.08-.13l6.63-46.87a.13.13,0,0,1,.22-.09h0l17,19.54a.12.12,0,0,1,0,.17L297.31,303.6A.11.11,0,0,1,297.22,303.64Zm6.72-46.72-6.54,46.19,23.32-26.94Z" transform="translate(24.4 29.78)"/><path class="cls-4" d="M297.22,303.64a.13.13,0,0,1-.1,0L283.05,288a.14.14,0,0,1,0-.15l20.7-31.31a.21.21,0,0,1,.1-.06.14.14,0,0,1,.1,0,.11.11,0,0,1,0,.11l-6.63,46.88a.14.14,0,0,1-.09.11Zm-13.91-15.72,13.82,15.31,6.52-46.07Z" transform="translate(24.4 29.78)"/><path class="cls-4" d="M320.88,276.3a.12.12,0,0,1-.09,0,.11.11,0,0,1,0-.11l3.2-18.24h0a.1.1,0,0,1,.07-.12.11.11,0,0,1,.11,0l36,12.18a.12.12,0,0,1,.08.13.11.11,0,0,1-.1.11l-39.2,6.09Zm3.3-18.23L321,276l38.53-6Z" transform="translate(24.4 29.78)"/><path class="cls-4" d="M320.88,276.3a.13.13,0,0,1-.09,0l-17-19.55a.12.12,0,0,1,0-.14.14.14,0,0,1,.12-.07l20.22,1.27a.11.11,0,0,1,.08,0,.11.11,0,0,1,0,.12L321,276.19a.11.11,0,0,1-.09.1Zm-16.74-19.53,16.66,19.12L323.94,258Z" transform="translate(24.4 29.78)"/><path class="cls-4" d="M360.08,270.21H360a.12.12,0,0,1-.08-.11l.28-41.44a.11.11,0,0,1,.08-.11h0a.1.1,0,0,1,.12,0l24.89,19.89a.12.12,0,0,1,.05.09.12.12,0,0,1-.05.1l-25.16,21.54A.11.11,0,0,1,360.08,270.21Zm.39-41.3-.26,40.91,24.84-21.27Z" transform="translate(24.4 29.78)"/><path class="cls-4" d="M360.08,270.21h0L324,258a.13.13,0,0,1,0-.22l36.26-29.23a.05.05,0,0,1,.05,0h0a.12.12,0,0,1,.15.05.15.15,0,0,1,0,.09l-.28,41.41a.12.12,0,0,1-.05.1A.08.08,0,0,1,360.08,270.21Zm-35.74-12.36L360,269.92l.26-41Z" transform="translate(24.4 29.78)"/><path class="cls-4" d="M385.24,248.67h-.05a.12.12,0,0,1-.07-.11l-1.43-39.4a.11.11,0,0,1,.07-.13.12.12,0,0,1,.15,0l18.26,24.77a.13.13,0,0,1,0,.17l-16.83,14.64A.16.16,0,0,1,385.24,248.67ZM384,209.53l1.41,38.75,16.54-14.39Z" transform="translate(24.4 29.78)"/><path class="cls-4" d="M385.24,248.67a.11.11,0,0,1-.07,0l-24.89-19.89a.12.12,0,0,1,0-.09.12.12,0,0,1,0-.1L383.73,209a.12.12,0,0,1,.13,0,.11.11,0,0,1,.07.1h0l1.44,39.41a.14.14,0,0,1-.07.12Zm-24.69-20,24.56,19.63-1.42-38.89Z" transform="translate(24.4 29.78)"/><path class="cls-4" d="M402.07,234a.12.12,0,0,1-.1-.05.13.13,0,0,1,0-.16l34.19-35.88a.14.14,0,0,1,.12-.07.13.13,0,0,1,.09,0l16.55,15.44a.11.11,0,0,1,0,.11.12.12,0,0,1-.08.09L402.12,234Zm34.22-35.85-33.73,35.4,50.06-20.18Z" transform="translate(24.4 29.78)"/><path class="cls-4" d="M402.07,234h0a.12.12,0,0,1-.1-.05l-18.26-24.77a.13.13,0,0,1,0-.12.14.14,0,0,1,.09-.08l52.48-11.13h0a.15.15,0,0,1,.11.08.12.12,0,0,1,0,.13L402.16,234A.1.1,0,0,1,402.07,234Zm-18-24.81,18.06,24.49,33.83-35.51Z" transform="translate(24.4 29.78)"/><path class="cls-4" d="M452.85,213.57a.11.11,0,0,1-.08,0,.11.11,0,0,1,0-.12l12-52.89a.11.11,0,0,1,.13-.1.12.12,0,0,1,.12.1h0l-.36,47.84a.13.13,0,0,1-.08.12l-11.64,5.06Zm11.87-51.86L453,213.23l11.35-4.93Z" transform="translate(24.4 29.78)"/><path class="cls-4" d="M452.85,213.57a.16.16,0,0,1-.09,0L436.2,198.09a.12.12,0,0,1,0-.17l28.56-37.42a.14.14,0,0,1,.12-.07.12.12,0,0,1,.12.1h0a.13.13,0,0,1,0,.06l-12,52.88a.13.13,0,0,1-.09.09ZM436.45,198l16.32,15.23,11.83-52.12Z" transform="translate(24.4 29.78)"/><path class="cls-4" d="M464.49,208.51a.12.12,0,0,1-.09,0,.13.13,0,0,1,0-.16l31.76-43.51a.12.12,0,0,1,.13-.07.14.14,0,0,1,.11.12l1.68,19a.11.11,0,0,1-.05.11l-33.45,24.54A.13.13,0,0,1,464.49,208.51Zm31.68-43.31-31.1,42.61,32.75-24Z" transform="translate(24.4 29.78)"/><path class="cls-4" d="M464.49,208.51h0a.12.12,0,0,1-.08-.12l.36-47.82a.18.18,0,0,1,0-.1.19.19,0,0,1,.1,0l31.41,4.3a.15.15,0,0,1,.09.06.09.09,0,0,1,0,.1s0,0,0,.05l-31.77,43.52A.12.12,0,0,1,464.49,208.51ZM465,160.7l-.36,47.3L496,165Z" transform="translate(24.4 29.78)"/><path class="cls-4" d="M498,184a.1.1,0,0,1-.1-.05.12.12,0,0,1,0-.14l18.74-31,0,0h0l.1,0a.16.16,0,0,1,.09.05l18.12,21.48a.16.16,0,0,1,0,.12.12.12,0,0,1-.09.08L498,184ZM516.71,153l-18.5,30.6,36.38-9.4Z" transform="translate(24.4 29.78)"/><path class="cls-4" d="M498,184h0a.14.14,0,0,1-.1-.11l-1.68-19a.13.13,0,0,1,.06-.12l20.43-12a.12.12,0,0,1,.16,0,.12.12,0,0,1,0,.16l-18.74,31A.11.11,0,0,1,498,184Zm-1.55-19L498,183.45l18.29-30.26Z" transform="translate(24.4 29.78)"/><path class="cls-4" d="M534.81,174.44l-.07,0a.13.13,0,0,1,0-.15l17.57-45.89a.1.1,0,0,1,.07-.07.08.08,0,0,1,.09,0h0l17.88,12.63a.11.11,0,0,1,.05.09.13.13,0,0,1,0,.1L534.9,174.4A.12.12,0,0,1,534.81,174.44Zm17.62-45.82-17.31,45.23L570,141.05Z" transform="translate(24.4 29.78)"/><path class="cls-4" d="M534.81,174.44a.11.11,0,0,1-.09-.05L516.6,152.91a.1.1,0,0,1,0-.1.1.1,0,0,1,0-.08l35.66-24.39a.09.09,0,0,1,.05,0,.08.08,0,0,1,.09,0h0a.12.12,0,0,1,.07.1.1.1,0,0,1,0,.09l-17.55,45.86a.14.14,0,0,1-.1.08Zm-17.93-21.59,17.89,21.22,17.34-45.31Z" transform="translate(24.4 29.78)"/><path class="cls-4" d="M570.23,141.16a.11.11,0,0,1-.09,0,.14.14,0,0,1,0-.14l26-50.31a.11.11,0,0,1,.15,0h0a.1.1,0,0,1,.06,0l19.3,36a.14.14,0,0,1,0,.11.18.18,0,0,1-.08.07l-45.29,14.29Zm26-50.16-25.74,49.83,44.86-14.15Z" transform="translate(24.4 29.78)"/><path class="cls-4" d="M570.23,141.16l-.07,0-17.85-12.61a.21.21,0,0,1-.06-.1.12.12,0,0,1,0-.1l43.81-37.67a.12.12,0,0,1,.15,0h0a.12.12,0,0,1,.08.09.15.15,0,0,1,0,.11l-26,50.27a.1.1,0,0,1-.08.07Zm-17.65-12.74,17.61,12.43,25.62-49.59Z" transform="translate(24.4 29.78)"/><path class="cls-4" d="M615.52,126.88a.13.13,0,0,1-.08,0,.12.12,0,0,1,0-.13l10.07-36.64a.14.14,0,0,1,.08-.09.17.17,0,0,1,.12,0h0s0,0,0,0l14.58,22.35a.12.12,0,0,1,0,.1.11.11,0,0,1-.06.07l-24.66,14.29Zm10.12-36.47-9.92,36.08L640,112.42Z" transform="translate(24.4 29.78)"/><path class="cls-4" d="M615.52,126.88a.12.12,0,0,1-.11-.07l-19.3-36a.13.13,0,0,1,0-.12.14.14,0,0,1,.11-.06L625.56,90a.14.14,0,0,1,.11,0h0a.11.11,0,0,1,0,.13v0l-10.06,36.61a.13.13,0,0,1-.11.1Zm-19.09-36,19.05,35.57,9.94-36.18Z" transform="translate(24.4 29.78)"/><path class="cls-4" d="M163.81,406.51a.12.12,0,0,1-.09,0,.13.13,0,0,1,0-.12l12.74-39.22,0,0h0a.16.16,0,0,1,.08-.06.17.17,0,0,1,.1,0l34.17,27.66a.13.13,0,0,1,0,.12.12.12,0,0,1-.09.09l-46.91,11.57Zm12.8-39.13L164,406.21l46.44-11.45Z" transform="translate(24.4 29.78)"/><path class="cls-4" d="M163.81,406.51h0a.12.12,0,0,1-.1-.13l.48-16a.08.08,0,0,1,0,0l12.25-23.23v0h0a.13.13,0,0,1,.17,0,.14.14,0,0,1,0,.16l-12.74,39.21A.11.11,0,0,1,163.81,406.51Zm.61-16.07L164,405.52l12-37Z" transform="translate(24.4 29.78)"/><path class="cls-4" d="M210.72,395a.11.11,0,0,1-.08,0l-34.17-27.66a.12.12,0,0,1,0-.13.14.14,0,0,1,.11-.09l44.32-5.62a.14.14,0,0,1,.11.05.09.09,0,0,1,0,.11l-10.16,33.28a.13.13,0,0,1-.08.08Zm-33.86-27.7,33.79,27.36,10.06-32.92Z" transform="translate(24.4 29.78)"/><path class="cls-4" d="M241,377.57l-.07,0a.12.12,0,0,1-.05-.15l22.48-61.76,0,0h0a.13.13,0,0,1,.12-.06.16.16,0,0,1,.1.08l10.92,30.58a.14.14,0,0,1,0,.13l-33.41,31.19A.11.11,0,0,1,241,377.57Zm22.48-61.52L241.32,377l33-30.77Z" transform="translate(24.4 29.78)"/><path class="cls-4" d="M241,377.57a.11.11,0,0,1-.08,0l-20.15-15.9a.13.13,0,0,1-.05-.09.11.11,0,0,1,0-.09l42.63-45.86a.13.13,0,0,1,.21.14l-22.48,61.75a.16.16,0,0,1-.09.07Zm-20-16L241,377.24l22.21-61Z" transform="translate(24.4 29.78)"/><path class="cls-4" d="M274.43,346.39h0a.12.12,0,0,1-.11-.08l-10.92-30.57a.12.12,0,0,1,.08-.16l33.68-12.16a.12.12,0,0,1,.13,0,.13.13,0,0,1,.05.17h0l-22.78,42.74A.12.12,0,0,1,274.43,346.39Zm-10.76-30.63L274.45,346,297,303.74Z" transform="translate(24.4 29.78)"/><path class="cls-4" d="M309.77,334.75a.11.11,0,0,1-.08,0,.11.11,0,0,1,0-.12l11.11-58.44a.12.12,0,0,1,.23-.05l27.19,43.42a.12.12,0,0,1,0,.1.11.11,0,0,1-.07.08l-38.3,15Zm11.17-58.24-11,57.92,38-14.9Z" transform="translate(24.4 29.78)"/><path class="cls-4" d="M309.77,334.75a.13.13,0,0,1-.12-.08L297.1,303.56a.13.13,0,0,1,0-.13l23.67-27.34a.12.12,0,0,1,.11,0,.12.12,0,0,1,.1.08.09.09,0,0,1,0,.07l-11.11,58.45a.11.11,0,0,1-.11.1Zm-12.41-31.21,12.37,30.65,10.94-57.58Z" transform="translate(24.4 29.78)"/><path class="cls-4" d="M348.07,319.72a.11.11,0,0,1-.1-.06l-27.2-43.42a.13.13,0,0,1,0-.12.11.11,0,0,1,.09-.07L360,270a.09.09,0,0,1,.07,0h0a.1.1,0,0,1,.09.12.15.15,0,0,1,0,.07l-12,49.46a.13.13,0,0,1-.1.1Zm-27-43.45,26.93,43,11.89-49Z" transform="translate(24.4 29.78)"/><path class="cls-4" d="M374.4,314.64a.08.08,0,0,1-.07,0,.14.14,0,0,1-.06-.12l10.85-66a.13.13,0,0,1,.1-.12.14.14,0,0,1,.15.1v0L391.46,305a.13.13,0,0,1-.07.12l-16.93,9.49Zm10.82-65.16-10.66,64.8L391.2,305Z" transform="translate(24.4 29.78)"/><path class="cls-4" d="M374.4,314.64a.12.12,0,0,1-.12-.08L360,270.13a.13.13,0,0,1,0-.14l25.16-21.54a.11.11,0,0,1,.12,0,.12.12,0,0,1,.09.09v0l-10.85,66a.12.12,0,0,1-.11.1Zm-14.18-44.51L374.36,314l10.71-65.13Z" transform="translate(24.4 29.78)"/><path class="cls-4" d="M391.33,305.16l-.06,0a.12.12,0,0,1-.06-.13L402,233.89a.13.13,0,0,1,.22-.07l42.67,35.49a.16.16,0,0,1,.05.11.15.15,0,0,1-.06.09L391.4,305.13A.09.09,0,0,1,391.33,305.16Zm10.83-71L391.5,304.77l53.05-35.37Z" transform="translate(24.4 29.78)"/><path class="cls-4" d="M391.33,305.16h0a.13.13,0,0,1-.12-.12l-6.09-56.48a.15.15,0,0,1,0-.11L402,233.83l.08-.05a.12.12,0,0,1,.13.07h0a.17.17,0,0,1,0,.1l-10.73,71.1A.14.14,0,0,1,391.33,305.16Zm-5.95-56.56,6,55.46,10.55-69.83Z" transform="translate(24.4 29.78)"/><path class="cls-4" d="M444.76,269.54a.13.13,0,0,1-.08,0L402,234a.11.11,0,0,1,0-.11.14.14,0,0,1,.08-.1l50.77-20.46a.14.14,0,0,1,.11,0,.1.1,0,0,1,.06.08v.05l-8.08,56a.16.16,0,0,1-.08.1ZM402.31,234l42.36,35.22,8-55.53Z" transform="translate(24.4 29.78)"/><path class="cls-4" d="M507.69,228.85h-.05a.1.1,0,0,1-.07-.09l-9.75-44.88a.13.13,0,0,1,0-.06h0a.16.16,0,0,1,.07-.09.14.14,0,0,1,.11,0l41.16,25.65a.11.11,0,0,1,.06.1.11.11,0,0,1-.06.11l-31.42,19.24A.07.07,0,0,1,507.69,228.85Zm-9.56-44.75,9.64,44.43,31.1-19.05Z" transform="translate(24.4 29.78)"/><path class="cls-4" d="M507.69,228.85h-.06L464.44,208.5a.12.12,0,0,1-.07-.1.11.11,0,0,1,.05-.12l33.45-24.54a.14.14,0,0,1,.15,0,.12.12,0,0,1,.05.1l9.74,44.86a.11.11,0,0,1-.05.12A.09.09,0,0,1,507.69,228.85Zm-42.95-20.49,42.77,20.15-9.65-44.45Z" transform="translate(24.4 29.78)"/><path class="cls-4" d="M539.1,209.61l-.06,0-41.16-25.65a.13.13,0,0,1-.06-.12.13.13,0,0,1,.1-.1l36.83-9.52h0a.13.13,0,0,1,.15.06h0a.08.08,0,0,1,0,.05l4.29,35.16a.14.14,0,0,1-.06.12Zm-40.84-25.72L539,209.24l-4.25-34.77Z" transform="translate(24.4 29.78)"/><path class="cls-4" d="M544.33,193.46a.14.14,0,0,1-.11-.06.13.13,0,0,1,0-.12l25.9-52.3a.11.11,0,0,1,.07-.06h0a.11.11,0,0,1,.1,0,.11.11,0,0,1,.06.07L586,192.34a.15.15,0,0,1,0,.11.12.12,0,0,1-.1.05l-41.52,1Zm25.87-52.09-25.67,51.84,41.15-1Z" transform="translate(24.4 29.78)"/><path class="cls-4" d="M544.33,193.46a.12.12,0,0,1-.11-.07l-9.52-19a.11.11,0,0,1,0-.15L570.13,141s0,0,.06,0h0a.12.12,0,0,1,.15.05.14.14,0,0,1,0,.15l-25.89,52.27a.12.12,0,0,1-.11.07ZM535,174.34l9.37,18.71,25.48-51.44Z" transform="translate(24.4 29.78)"/><path class="cls-4" d="M585.85,192.5h0a.14.14,0,0,1-.11-.09l-15.62-51.34a.12.12,0,0,1,.09-.15l45.28-14.29h.06a.1.1,0,0,1,.09.06.11.11,0,0,1,0,.11L586,192.42A.12.12,0,0,1,585.85,192.5Zm-15.46-51.38L585.87,192,615.3,127Z" transform="translate(24.4 29.78)"/><path class="cls-2" d="M-4.74,318a2,2,0,0,0-2,2,2.05,2.05,0,0,0,2.05,2,2,2,0,0,0,2-2A2,2,0,0,0-4.74,318Z" transform="translate(24.4 29.78)"/><path class="cls-2" d="M-23.12,302.77a1.28,1.28,0,0,0-1.28,1.28,1.28,1.28,0,0,0,1.28,1.28,1.28,1.28,0,0,0,1.27-1.28A1.28,1.28,0,0,0-23.12,302.77Z" transform="translate(24.4 29.78)"/><path class="cls-2" d="M21.52,260.54a1,1,0,1,0,1,1A1,1,0,0,0,21.52,260.54Z" transform="translate(24.4 29.78)"/><path class="cls-2" d="M45.67,287.25A2.72,2.72,0,1,0,48.38,290,2.71,2.71,0,0,0,45.67,287.25Z" transform="translate(24.4 29.78)"/><path class="cls-2" d="M26.2,287.63a1.52,1.52,0,1,0,1.52,1.51A1.52,1.52,0,0,0,26.2,287.63Z" transform="translate(24.4 29.78)"/><circle class="cls-2" cx="110.67" cy="270.73" r="1.4"/><circle class="cls-2" cx="64.26" cy="279.57" r="1.3"/><path class="cls-2" d="M169.4,233.34a2.77,2.77,0,1,0-2.76,2.76A2.77,2.77,0,0,0,169.4,233.34Z" transform="translate(24.4 29.78)"/><circle class="cls-2" cx="160.04" cy="229.5" r="3.23"/><circle class="cls-2" cx="198.02" cy="202.79" r="0.94"/><circle class="cls-2" cx="256.57" cy="160.37" r="1.42"/><path class="cls-2" d="M254,126a1.51,1.51,0,1,0,0,3,1.51,1.51,0,0,0,0-3Z" transform="translate(24.4 29.78)"/><path class="cls-2" d="M292.15,100a1.93,1.93,0,1,0,1.92,1.92A1.92,1.92,0,0,0,292.15,100Z" transform="translate(24.4 29.78)"/><circle class="cls-2" cx="365.29" cy="124.45" r="1.92"/><path class="cls-2" d="M315.34,141.93a2.38,2.38,0,1,0,2.37,2.37A2.38,2.38,0,0,0,315.34,141.93Z" transform="translate(24.4 29.78)"/><path class="cls-2" d="M384.9,48.21a1.6,1.6,0,1,0-1.6-1.6A1.6,1.6,0,0,0,384.9,48.21Z" transform="translate(24.4 29.78)"/><path class="cls-2" d="M355.3,63.89A1.29,1.29,0,1,0,354,65.17,1.28,1.28,0,0,0,355.3,63.89Z" transform="translate(24.4 29.78)"/><path class="cls-2" d="M430.3,60.5a1.56,1.56,0,1,0,1.56,1.56A1.56,1.56,0,0,0,430.3,60.5Z" transform="translate(24.4 29.78)"/><path class="cls-2" d="M475.81-10.2A2.19,2.19,0,0,0,473.62-8a2.19,2.19,0,0,0,2.19,2.18A2.19,2.19,0,0,0,478-8,2.19,2.19,0,0,0,475.81-10.2Z" transform="translate(24.4 29.78)"/><circle class="cls-2" cx="491.79" cy="34.29" r="1.84"/><path class="cls-2" d="M471.39,41.86a1.7,1.7,0,1,0,1.7,1.69A1.69,1.69,0,0,0,471.39,41.86Z" transform="translate(24.4 29.78)"/><path class="cls-2" d="M554.47-29.78a2,2,0,0,0-2,2,2,2,0,0,0,2,2,2,2,0,0,0,2-2A2,2,0,0,0,554.47-29.78Z" transform="translate(24.4 29.78)"/><path class="cls-2" d="M501.85-21.81a2.24,2.24,0,0,0-2.24,2.24,2.24,2.24,0,0,0,2.24,2.24,2.24,2.24,0,0,0,2.24-2.24A2.24,2.24,0,0,0,501.85-21.81Z" transform="translate(24.4 29.78)"/><path class="cls-2" d="M35.59,328.54a1.66,1.66,0,1,0,1.66,1.66A1.65,1.65,0,0,0,35.59,328.54Z" transform="translate(24.4 29.78)"/><path class="cls-2" d="M78.34,254.48a2.5,2.5,0,1,0,2.5,2.5A2.5,2.5,0,0,0,78.34,254.48Z" transform="translate(24.4 29.78)"/><path class="cls-2" d="M121.93,237a1.6,1.6,0,1,0,1.59,1.59A1.59,1.59,0,0,0,121.93,237Z" transform="translate(24.4 29.78)"/><path class="cls-2" d="M118.73,283.63a2.17,2.17,0,1,0,2.17,2.17A2.17,2.17,0,0,0,118.73,283.63Z" transform="translate(24.4 29.78)"/><path class="cls-2" d="M152.34,271.53a1.83,1.83,0,1,0,1.82,1.82A1.82,1.82,0,0,0,152.34,271.53Z" transform="translate(24.4 29.78)"/><path class="cls-2" d="M186.47,198.25a2.67,2.67,0,1,0,2.67,2.66A2.66,2.66,0,0,0,186.47,198.25Z" transform="translate(24.4 29.78)"/><path class="cls-2" d="M198.92,250.53a1.38,1.38,0,1,0,1.38,1.38A1.38,1.38,0,0,0,198.92,250.53Z" transform="translate(24.4 29.78)"/><path class="cls-2" d="M221.19,180.9a2.35,2.35,0,1,0,2.35,2.35A2.35,2.35,0,0,0,221.19,180.9Z" transform="translate(24.4 29.78)"/><path class="cls-2" d="M267.66,174.93a1.95,1.95,0,1,0,1.95,1.95A2,2,0,0,0,267.66,174.93Z" transform="translate(24.4 29.78)"/><path class="cls-2" d="M283.09,149.15a2.42,2.42,0,1,0-2.42,2.42A2.42,2.42,0,0,0,283.09,149.15Z" transform="translate(24.4 29.78)"/><path class="cls-2" d="M358.51,112.36a2.09,2.09,0,1,0-2.09-2.08A2.08,2.08,0,0,0,358.51,112.36Z" transform="translate(24.4 29.78)"/><path class="cls-2" d="M384.54,111.36a3.12,3.12,0,1,0-3.11-3.11A3.12,3.12,0,0,0,384.54,111.36Z" transform="translate(24.4 29.78)"/><path class="cls-2" d="M405.43,77a.67.67,0,0,0-.66.66.66.66,0,0,0,.66.65.65.65,0,0,0,.65-.65A.66.66,0,0,0,405.43,77Z" transform="translate(24.4 29.78)"/><path class="cls-2" d="M393.67,122.36a1.76,1.76,0,1,0,1.76,1.76A1.76,1.76,0,0,0,393.67,122.36Z" transform="translate(24.4 29.78)"/><path class="cls-2" d="M491.59,31.14a1,1,0,1,0,1,1A1,1,0,0,0,491.59,31.14Z" transform="translate(24.4 29.78)"/><path class="cls-2" d="M526.25,11.89A2.77,2.77,0,1,0,529,14.65,2.77,2.77,0,0,0,526.25,11.89Z" transform="translate(24.4 29.78)"/><path class="cls-2" d="M535.15,48.07a2.68,2.68,0,1,0-2.68,2.69A2.68,2.68,0,0,0,535.15,48.07Z" transform="translate(24.4 29.78)"/><path class="cls-2" d="M577.79-27.39a2.13,2.13,0,0,0-2.13,2.13,2.13,2.13,0,0,0,2.13,2.13,2.13,2.13,0,0,0,2.13-2.13A2.13,2.13,0,0,0,577.79-27.39Z" transform="translate(24.4 29.78)"/><path class="cls-2" d="M101.83,337.18a3.37,3.37,0,1,0,3.36,3.37A3.37,3.37,0,0,0,101.83,337.18Z" transform="translate(24.4 29.78)"/><path class="cls-2" d="M90.22,310.8a1.36,1.36,0,0,0-.29,0,1.43,1.43,0,1,0,.29,0Z" transform="translate(24.4 29.78)"/><path class="cls-2" d="M137.86,318.71a1.92,1.92,0,1,0,1.92,1.92A1.92,1.92,0,0,0,137.86,318.71Z" transform="translate(24.4 29.78)"/><path class="cls-2" d="M155.5,297.12a1.37,1.37,0,1,0,1.36,1.36A1.37,1.37,0,0,0,155.5,297.12Z" transform="translate(24.4 29.78)"/><circle class="cls-2" cx="196.27" cy="299.18" r="1.14"/><circle class="cls-2" cx="217.23" cy="300.6" r="2.28"/><path class="cls-2" d="M241.19,272a2,2,0,1,0-2,2A2,2,0,0,0,241.19,272Z" transform="translate(24.4 29.78)"/><circle class="cls-2" cx="261.68" cy="255.54" r="1.57"/><path class="cls-2" d="M264.2,195.53a1.49,1.49,0,1,0,0-3,1.49,1.49,0,0,0,0,3Z" transform="translate(24.4 29.78)"/><path class="cls-2" d="M282.47,184.77a1.18,1.18,0,1,0-1.17,1.17A1.18,1.18,0,0,0,282.47,184.77Z" transform="translate(24.4 29.78)"/><path class="cls-2" d="M301.88,230.12a1.63,1.63,0,1,0-1.63,1.63A1.63,1.63,0,0,0,301.88,230.12Z" transform="translate(24.4 29.78)"/><path class="cls-2" d="M339.22,157.26a2.62,2.62,0,1,0,2.62,2.62A2.62,2.62,0,0,0,339.22,157.26Z" transform="translate(24.4 29.78)"/><circle class="cls-2" cx="392.42" cy="171.94" r="1.57"/><path class="cls-2" d="M419,162.89a1.44,1.44,0,1,0,1.43,1.43A1.43,1.43,0,0,0,419,162.89Z" transform="translate(24.4 29.78)"/><path class="cls-2" d="M409.75,114.92a2.07,2.07,0,1,0,2.07,2.07A2.07,2.07,0,0,0,409.75,114.92Z" transform="translate(24.4 29.78)"/><path class="cls-2" d="M447.57,92a1.37,1.37,0,1,0,1.36,1.36A1.36,1.36,0,0,0,447.57,92Z" transform="translate(24.4 29.78)"/><path class="cls-2" d="M507.75,76.67a2.05,2.05,0,1,0-2.05,2A2,2,0,0,0,507.75,76.67Z" transform="translate(24.4 29.78)"/><path class="cls-2" d="M569.94,32.58a1.58,1.58,0,1,0-1.58,1.59A1.58,1.58,0,0,0,569.94,32.58Z" transform="translate(24.4 29.78)"/><path class="cls-2" d="M588.23,53.44a2.28,2.28,0,1,0,2.28,2.27A2.27,2.27,0,0,0,588.23,53.44Z" transform="translate(24.4 29.78)"/><circle class="cls-2" cx="598.6" cy="48.22" r="1.64"/><path class="cls-2" d="M97.31,369.3a2.35,2.35,0,1,0,2.34,2.34A2.34,2.34,0,0,0,97.31,369.3Z" transform="translate(24.4 29.78)"/><path class="cls-2" d="M66.26,372.68a1,1,0,1,0-1-1A1,1,0,0,0,66.26,372.68Z" transform="translate(24.4 29.78)"/><path class="cls-2" d="M65.81,393.12A1.93,1.93,0,1,0,67.74,395,1.92,1.92,0,0,0,65.81,393.12Z" transform="translate(24.4 29.78)"/><path class="cls-2" d="M170.11,337.68a2,2,0,1,0,2,2A2,2,0,0,0,170.11,337.68Z" transform="translate(24.4 29.78)"/><path class="cls-2" d="M209.88,328a1.18,1.18,0,0,0-2.35,0,1.18,1.18,0,1,0,2.35,0Z" transform="translate(24.4 29.78)"/><path class="cls-2" d="M261.47,245.2a1.25,1.25,0,1,0-1.25-1.25A1.25,1.25,0,0,0,261.47,245.2Z" transform="translate(24.4 29.78)"/><circle class="cls-2" cx="328.25" cy="286.41" r="2.92"/><circle class="cls-2" cx="333.41" cy="245.91" r="2.19"/><path class="cls-2" d="M324.08,255.22a2.68,2.68,0,1,0,2.68,2.68A2.68,2.68,0,0,0,324.08,255.22Z" transform="translate(24.4 29.78)"/><path class="cls-2" d="M390.26,178.49a1.71,1.71,0,1,0-1.71,1.71A1.71,1.71,0,0,0,390.26,178.49Z" transform="translate(24.4 29.78)"/><path class="cls-2" d="M355.64,195.5a2.49,2.49,0,1,0,2.49,2.49A2.48,2.48,0,0,0,355.64,195.5Z" transform="translate(24.4 29.78)"/><circle class="cls-2" cx="489.25" cy="190.34" r="2.93"/><path class="cls-2" d="M450.33,121.77a1.44,1.44,0,1,0,1.43,1.43A1.43,1.43,0,0,0,450.33,121.77Z" transform="translate(24.4 29.78)"/><circle class="cls-2" cx="513.14" cy="151.8" r="1.06"/><circle class="cls-2" cx="524.36" cy="143.39" r="1.45"/><path class="cls-2" d="M552.38,125.65a2.78,2.78,0,1,0,2.77,2.78A2.78,2.78,0,0,0,552.38,125.65Z" transform="translate(24.4 29.78)"/><path class="cls-2" d="M516.69,150.27a2.56,2.56,0,1,0,2.56,2.56A2.56,2.56,0,0,0,516.69,150.27Z" transform="translate(24.4 29.78)"/><path class="cls-2" d="M544.44,94.28a2.78,2.78,0,1,0-2.78,2.77A2.77,2.77,0,0,0,544.44,94.28Z" transform="translate(24.4 29.78)"/><path class="cls-2" d="M596.22,89.27a1.47,1.47,0,1,0,1.47,1.46A1.46,1.46,0,0,0,596.22,89.27Z" transform="translate(24.4 29.78)"/><circle class="cls-2" cx="649.99" cy="119.9" r="1.65"/><path class="cls-2" d="M574.69,70.6a1.08,1.08,0,0,0,0,2.16,1.08,1.08,0,1,0,0-2.16Z" transform="translate(24.4 29.78)"/><path class="cls-2" d="M124.59,402.54a1.52,1.52,0,1,0,1.52,1.52A1.52,1.52,0,0,0,124.59,402.54Z" transform="translate(24.4 29.78)"/><path class="cls-2" d="M94.12,417.94a1.64,1.64,0,1,0,1.64,1.64A1.64,1.64,0,0,0,94.12,417.94Z" transform="translate(24.4 29.78)"/><path class="cls-2" d="M145.61,361.53a1,1,0,1,0,.95,1A.95.95,0,0,0,145.61,361.53Z" transform="translate(24.4 29.78)"/><path class="cls-2" d="M164.3,389.35a1.06,1.06,0,1,0,1,1.06A1.05,1.05,0,0,0,164.3,389.35Z" transform="translate(24.4 29.78)"/><path class="cls-2" d="M247,286.8a2.47,2.47,0,1,0,2.47,2.47A2.46,2.46,0,0,0,247,286.8Z" transform="translate(24.4 29.78)"/><path class="cls-2" d="M297.22,302.35a1.17,1.17,0,1,0,0,2.34,1.17,1.17,0,0,0,0-2.34Z" transform="translate(24.4 29.78)"/><path class="cls-2" d="M263.51,312.2a3.49,3.49,0,1,0,3.49,3.49A3.48,3.48,0,0,0,263.51,312.2Z" transform="translate(24.4 29.78)"/><path class="cls-2" d="M283.15,285.79a2.15,2.15,0,1,0,2.14,2.14A2.14,2.14,0,0,0,283.15,285.79Z" transform="translate(24.4 29.78)"/><circle class="cls-2" cx="384.75" cy="258.44" r="2.33"/><path class="cls-2" d="M436.29,196a2,2,0,1,0,2,2.05A2.05,2.05,0,0,0,436.29,196Z" transform="translate(24.4 29.78)"/><path class="cls-2" d="M387,209.13a3.18,3.18,0,1,0-3.17,3.18A3.17,3.17,0,0,0,387,209.13Z" transform="translate(24.4 29.78)"/><path class="cls-2" d="M498.24,164.86a2,2,0,1,0-2,2A2,2,0,0,0,498.24,164.86Z" transform="translate(24.4 29.78)"/><path class="cls-2" d="M464.49,207.14a1.24,1.24,0,0,0,0,2.48,1.24,1.24,0,0,0,0-2.48Z" transform="translate(24.4 29.78)"/><path class="cls-2" d="M498,182.39a1.45,1.45,0,1,0,1.45,1.45A1.45,1.45,0,0,0,498,182.39Z" transform="translate(24.4 29.78)"/><path class="cls-2" d="M534.81,172.86a1.45,1.45,0,1,0,1.45,1.45A1.45,1.45,0,0,0,534.81,172.86Z" transform="translate(24.4 29.78)"/><circle class="cls-2" cx="594.63" cy="170.82" r="1.8"/><path class="cls-2" d="M640.18,111.4a1.07,1.07,0,1,0,1.07,1.07A1.06,1.06,0,0,0,640.18,111.4Z" transform="translate(24.4 29.78)"/><circle class="cls-2" cx="200.95" cy="396.95" r="1.55"/><circle class="cls-2" cx="235.12" cy="424.61" r="2.35"/><circle class="cls-2" cx="188.21" cy="436.17" r="0.76"/><path class="cls-2" d="M220.88,359.93a1.61,1.61,0,1,0,1.61,1.61A1.61,1.61,0,0,0,220.88,359.93Z" transform="translate(24.4 29.78)"/><path class="cls-2" d="M274.43,344.76a1.5,1.5,0,1,0,1.5,1.5A1.5,1.5,0,0,0,274.43,344.76Z" transform="translate(24.4 29.78)"/><path class="cls-2" d="M241,375.93a1.52,1.52,0,1,0,1.51,1.51A1.51,1.51,0,0,0,241,375.93Z" transform="translate(24.4 29.78)"/><path class="cls-2" d="M348.07,318.54a1.06,1.06,0,1,0,1.06,1A1.06,1.06,0,0,0,348.07,318.54Z" transform="translate(24.4 29.78)"/><circle class="cls-2" cx="334.17" cy="364.41" r="1.33"/><path class="cls-2" d="M320.88,274.8a1.38,1.38,0,1,0,1.37,1.38A1.37,1.37,0,0,0,320.88,274.8Z" transform="translate(24.4 29.78)"/><path class="cls-2" d="M385.24,245.26a3.29,3.29,0,1,0,3.29,3.29A3.29,3.29,0,0,0,385.24,245.26Z" transform="translate(24.4 29.78)"/><path class="cls-2" d="M391.33,303.42a1.61,1.61,0,1,0,1.61,1.61A1.61,1.61,0,0,0,391.33,303.42Z" transform="translate(24.4 29.78)"/><circle class="cls-2" cx="398.79" cy="344.3" r="0.76"/><path class="cls-2" d="M360.08,268.2a1.89,1.89,0,1,0,1.89,1.89A1.88,1.88,0,0,0,360.08,268.2Z" transform="translate(24.4 29.78)"/><path class="cls-2" d="M402.07,231.81a2.09,2.09,0,1,0,2.09,2.09A2.1,2.1,0,0,0,402.07,231.81Z" transform="translate(24.4 29.78)"/><path class="cls-2" d="M444.76,267.91a1.5,1.5,0,1,0,1.5,1.5A1.5,1.5,0,0,0,444.76,267.91Z" transform="translate(24.4 29.78)"/><path class="cls-2" d="M452.85,212a1.51,1.51,0,1,0,1.5,1.5A1.51,1.51,0,0,0,452.85,212Z" transform="translate(24.4 29.78)"/><circle class="cls-2" cx="532.08" cy="258.51" r="1.06"/><path class="cls-2" d="M539.1,208.78a.7.7,0,0,0,0,1.4.7.7,0,1,0,0-1.4Z" transform="translate(24.4 29.78)"/><circle class="cls-2" cx="610.25" cy="222.15" r="1.3"/><path class="cls-2" d="M544.33,191a2.37,2.37,0,1,0,2.36,2.37A2.37,2.37,0,0,0,544.33,191Z" transform="translate(24.4 29.78)"/><path class="cls-2" d="M615.52,125a1.75,1.75,0,1,0,1.75,1.75A1.75,1.75,0,0,0,615.52,125Z" transform="translate(24.4 29.78)"/></g></svg>