<svg width="48" height="48" viewBox="0 0 48 48" fill="none" xmlns="http://www.w3.org/2000/svg"><path d="M24 6c-.92 0-1.86.08-2.8.28-5.52 1.06-9.92 5.52-10.96 11.04-.96 5.22.96 10.02 4.44 13.12A3.89 3.89 0 0116 33.38V38c0 2.2 1.8 4 4 4h.56c.7 1.2 1.96 2 3.44 2s2.76-.8 3.44-2H28c2.2 0 4-1.8 4-4v-4.62c0-1.1.44-2.18 1.28-2.92C36.18 27.9 38 24.16 38 20c0-7.74-6.26-14-14-14zm1 22h-2v-5.18l-3.66-3.64 1.42-1.42L24 21l3.24-3.24 1.42 1.42L25 22.84V28zm2 10c-.02 0-.04-.02-.06-.02V38h-5.88v-.02c-.02 0-.04.02-.06.02-.56 0-1-.44-1-1s.44-1 1-1c.02 0 .04.02.06.02V36h5.88v.02c.02 0 .04-.02.06-.02.56 0 1 .44 1 1s-.44 1-1 1zm0-4h-6c-.56 0-1-.44-1-1s.44-1 1-1h6c.56 0 1 .44 1 1s-.44 1-1 1z" fill="#2D4A6E"/></svg>
