<svg width="49" height="48" viewBox="0 0 49 48" fill="none" xmlns="http://www.w3.org/2000/svg"><path d="M10.425 8h-.004a1.497 1.497 0 00-1.495 1.503v22.536c0 .827.675 1.5 1.505 1.503 3.498.008 9.359.737 13.402 4.969V14.926c0-.28-.071-.544-.206-.761C20.308 8.82 13.93 8.008 10.425 8zM41.074 32.04V9.503A1.497 1.497 0 0039.58 8h-.004c-3.506.008-9.883.82-13.202 6.165a1.44 1.44 0 00-.206.76v23.586c4.043-4.232 9.904-4.96 13.403-4.969a1.508 1.508 0 001.504-1.502z" fill="#2D4A6E"/><path d="M44.497 13.198h-1.09v18.843c0 2.11-1.719 3.83-3.832 3.836-2.967.007-7.86.587-11.325 3.866 5.993-1.467 12.31-.513 15.91.307A1.5 1.5 0 0046 38.586V14.701c0-.829-.674-1.503-1.503-1.503zM6.592 32.04V13.199h-1.09c-.828 0-1.502.675-1.502 1.503v23.885c0 .46.206.887.565 1.174.36.286.824.393 1.274.29 3.6-.82 9.918-1.774 15.91-.307-3.464-3.28-8.357-3.86-11.324-3.867a3.845 3.845 0 01-3.833-3.835z" fill="#2D4A6E"/></svg>