<svg width="48" height="48" viewBox="0 0 48 48" fill="none" xmlns="http://www.w3.org/2000/svg"><path d="M36 24c0 1.1.9 2 2 2h4c1.1 0 2-.9 2-2s-.9-2-2-2h-4c-1.1 0-2 .9-2 2zM33.18 33.64c-.66.88-.48 2.1.4 2.74 1.06.78 2.18 1.62 3.24 2.42.88.66 2.12.48 2.76-.4 0-.02.02-.02.02-.04.66-.88.48-2.12-.4-2.76-1.06-.8-2.18-1.64-3.22-2.42-.88-.66-2.12-.46-2.78.42 0 .02-.02.04-.02.04zM39.62 9.62c0-.02-.02-.02-.02-.04-.66-.88-1.9-1.06-2.76-.4-1.06.8-2.2 1.64-3.24 2.44-.88.66-1.04 1.9-.38 2.76 0 .02.02.02.02.04.66.88 1.88 1.06 2.76.4 1.06-.78 2.18-1.64 3.24-2.44.86-.64 1.02-1.88.38-2.76zM16 18H8c-2.2 0-4 1.8-4 4v4c0 2.2 1.8 4 4 4h2v6c0 1.1.9 2 2 2s2-.9 2-2v-6h2l10 6V12l-10 6zM31 24a8.96 8.96 0 00-3-6.7v13.38c1.84-1.62 3-4.02 3-6.68z" fill="#2D4A6E"/></svg>