<svg width="49" height="48" viewBox="0 0 49 48" fill="none" xmlns="http://www.w3.org/2000/svg"><path d="M43.84 36.34L34.4 26.9c-.96-.96-1.98-1.18-3.16-1.18l-5.08 5.08c0 1.18.22 2.22 1.18 3.16l9.44 9.44c.78.78 2.04.78 2.82 0l4.24-4.24c.78-.76.78-2.04 0-2.82z" fill="#2D4A6E"/><path d="M33.76 18.98c.78.78 2.04.78 2.82 0L38 17.56l4.24 4.24a6 6 0 000-8.48l-5.66-5.66c-.78-.78-2.04-.78-2.82 0l-1.42 1.42V4c0-1.24-1.52-1.9-2.42-1l-5.08 5.08c-.9.9-.24 2.42 1 2.42h5.08l-1.42 1.42c-.78.78-.78 2.04 0 2.82l.7.7-5.78 5.78-8.22-8.26v-2c0-.54-.22-1.04-.58-1.42l-4.04-4.06c-.78-.78-2.04-.78-2.82 0L5.92 8.32c-.78.78-.78 2.04 0 2.82l4.04 4.06c.38.38.88.58 1.42.58h2l8.26 8.26-1.7 1.7h-2.6c-1.06 0-2.08.42-2.82 1.18l-9.44 9.44c-.78.78-.78 2.04 0 2.82l4.24 4.24c.78.78 2.04.78 2.82 0l9.44-9.44c.76-.76 1.18-1.76 1.18-2.82v-2.58l10.3-10.3.7.7z" fill="#2D4A6E"/></svg>