<svg width="48" height="48" viewBox="0 0 48 48" fill="none" xmlns="http://www.w3.org/2000/svg"><path d="M42 16c-2.9 0-4.52 2.88-3.86 5.02l-7.1 7.12c-.6-.18-1.48-.18-2.08 0l-5.1-5.1C24.54 20.9 22.92 18 20 18c-2.9 0-4.54 2.88-3.86 5.04l-9.12 9.1C4.88 31.48 2 33.1 2 36c0 2.2 1.8 4 4 4 2.9 0 4.52-2.88 3.86-5.02l9.1-9.12c.6.18 1.48.18 2.08 0l5.1 5.1C25.46 33.1 27.08 36 30 36c2.9 0 4.54-2.88 3.86-5.04l7.12-7.1C43.12 24.52 46 22.9 46 20c0-2.2-1.8-4-4-4z" fill="#2D4A6E"/><path d="M30 18l1.88-4.14L36 12l-4.12-1.86L30 6l-1.84 4.14L24 12l4.16 1.86L30 18zM7 22l1-4 4-1-4-1-1-4-1 4-4 1 4 1 1 4z" fill="#2D4A6E"/></svg>